<svg width="301" height="301" viewBox="0 0 301 301" fill="none" xmlns="http://www.w3.org/2000/svg">
<mask id="mask0_204_876" style="mask-type:alpha" maskUnits="userSpaceOnUse" x="0" y="0" width="301" height="301">
<circle cx="150.5" cy="150.5" r="150.5" fill="#D9D9D9"/>
</mask>
<g mask="url(#mask0_204_876)">
<circle cx="150.5" cy="150.5" r="150.5" fill="white"/>
<path d="M217.172 102.238C221.735 102.238 225.435 98.3336 225.435 93.5167C225.435 88.6998 221.735 84.7949 217.172 84.7949C212.609 84.7949 208.909 88.6998 208.909 93.5167C208.909 98.3336 212.609 102.238 217.172 102.238Z" fill="#263238" stroke="#263238" stroke-miterlimit="10" stroke-linecap="round" stroke-linejoin="round"/>
<path d="M215.948 296.796C215.948 296.796 216.254 324.339 219.314 339.947C222.374 355.554 225.435 374.834 225.435 374.834C225.435 374.834 222.375 386.769 221.457 387.381C220.539 387.994 214.418 391.666 216.255 393.196C218.091 394.726 235.84 393.196 235.84 393.196C235.84 393.196 237.982 391.054 237.37 386.769C236.758 382.484 237.065 368.101 237.065 368.101C237.065 368.101 238.901 317.912 238.901 310.262C238.901 302.612 238.901 294.655 238.901 294.655L215.336 292.818L215.948 296.796Z" fill="white" stroke="#263238" stroke-miterlimit="10" stroke-linecap="round" stroke-linejoin="round"/>
<path d="M267.972 296.796C267.972 296.796 267.666 324.339 264.605 339.947C261.545 355.554 258.485 374.834 258.485 374.834C258.485 374.834 261.545 386.769 262.463 387.381C263.381 387.994 269.502 391.666 267.665 393.196C265.829 394.726 248.08 393.196 248.08 393.196C248.08 393.196 245.938 391.054 246.549 386.769C247.162 382.484 246.855 368.101 246.855 368.101C246.855 368.101 245.019 317.912 245.019 310.262C245.019 302.612 245.019 294.655 245.019 294.655L268.584 292.818L267.972 296.796Z" fill="white" stroke="#263238" stroke-miterlimit="10" stroke-linecap="round" stroke-linejoin="round"/>
<path d="M214.112 189.686C214.112 189.686 204.931 213.556 202.177 231.612C199.423 249.668 190.547 284.556 192.384 287.003C194.22 289.451 199.423 290.063 199.423 290.063L199.117 294.959C199.117 294.959 209.216 299.244 219.009 299.55C228.802 299.856 236.758 297.101 242.267 298.326C247.775 299.55 264.607 300.775 268.891 298.326C273.176 295.878 278.072 293.736 278.378 292.512C278.684 291.288 278.378 288.227 278.378 288.227L282.968 286.085C282.968 286.085 281.745 254.258 278.684 235.896C275.624 217.534 271.033 202.233 268.891 196.724C266.749 191.216 258.792 189.992 258.792 189.992L214.112 189.686Z" fill="#263238" stroke="#263238" stroke-miterlimit="10" stroke-linecap="round" stroke-linejoin="round"/>
<path d="M199.422 290.063L201.87 257.93" stroke="#263238" stroke-miterlimit="10" stroke-linecap="round" stroke-linejoin="round"/>
<path d="M278.378 288.227L272.869 246.302" stroke="#263238" stroke-miterlimit="10" stroke-linecap="round" stroke-linejoin="round"/>
<path d="M228.418 110.042L227.041 123.125C227.041 123.125 201.105 133.683 200.187 135.06C199.269 136.437 216.024 191.981 216.024 191.981C216.024 191.981 224.287 197.949 239.206 197.719C254.125 197.49 262.617 189.916 262.617 189.916C262.617 189.916 272.028 135.06 270.421 131.847C268.814 128.633 244.714 121.748 244.714 121.748L244.255 111.878L228.418 110.042Z" fill="#0D6EFD" stroke="#263238" stroke-miterlimit="10" stroke-linecap="round" stroke-linejoin="round"/>
<path d="M236.222 153.881L251.578 123.827C247.671 122.592 244.714 121.748 244.714 121.748L244.255 111.878L226.482 108.424L227.041 123.125C227.041 123.125 225.015 123.95 222.076 125.168L236.222 153.881Z" fill="white" stroke="#263238" stroke-miterlimit="10" stroke-linecap="round" stroke-linejoin="round"/>
<path d="M244.553 118.27L244.255 111.878L226.482 108.424L226.621 112.101C228.582 114.65 233.226 120.251 236.927 121.28C239.41 121.969 242.315 120.174 244.553 118.27Z" fill="#263238" stroke="#263238" stroke-miterlimit="10" stroke-linecap="round" stroke-linejoin="round"/>
<path d="M220.844 96.2709C220.844 96.2709 220.718 95.9615 220.504 95.5245C219.761 94.006 217.96 90.946 216.713 93.9757C215.106 97.8775 216.942 100.861 218.549 102.697C220.155 104.534 222.221 103.616 222.221 103.616C222.221 103.616 226.582 111.19 230.025 115.092C233.468 118.994 240.124 119.682 242.878 116.698C245.632 113.715 248.942 111.484 250.319 104.139C250.628 102.492 250.564 99.2538 250.781 97.4029C251.53 90.9983 251.726 83.9438 251.37 80.2044C250.911 75.3844 247.927 68.2693 242.419 65.2855C236.91 62.3017 226.123 63.9084 221.073 70.335C216.024 76.7616 214.647 83.6472 216.713 86.8605C218.778 90.0738 219.467 91.91 219.467 91.91L220.844 96.2709Z" fill="white" stroke="#263238" stroke-miterlimit="10" stroke-linecap="round" stroke-linejoin="round"/>
<path d="M217.217 93.0971L220.844 96.2709C220.844 96.2709 220.718 95.9615 220.504 95.5236C219.856 94.1997 218.405 91.708 217.217 93.0971Z" fill="white" stroke="#263238" stroke-miterlimit="10" stroke-linecap="round" stroke-linejoin="round"/>
<path d="M242.419 65.2855C236.91 62.3017 226.123 63.9084 221.073 70.335C216.024 76.7616 214.647 83.6472 216.713 86.8605C218.778 90.0738 219.467 91.91 219.467 91.91L220.844 96.2709C220.844 96.2709 220.844 90.5329 221.762 88.2376C222.68 85.9424 226.811 75.1549 238.288 74.9254C249.764 74.6959 249.534 85.7129 250.682 88.4672C250.848 88.8656 251.101 89.2567 251.414 89.6148C251.596 85.8598 251.583 82.4381 251.37 80.2044C250.911 75.3844 247.927 68.2693 242.419 65.2855Z" fill="#263238" stroke="#263238" stroke-miterlimit="10" stroke-linecap="round" stroke-linejoin="round"/>
<path d="M241.73 93.0576C241.73 93.0576 241.271 97.648 242.19 98.1071C243.108 98.5661 245.173 98.7957 244.714 100.402C244.255 102.009 242.19 102.468 242.19 102.468" stroke="#263238" stroke-miterlimit="10" stroke-linecap="round" stroke-linejoin="round"/>
<path d="M233.238 104.534C233.238 104.534 234.845 107.977 241.501 107.747" stroke="#263238" stroke-miterlimit="10" stroke-linecap="round" stroke-linejoin="round"/>
<path d="M228.189 95.3528C228.189 95.3528 231.303 93.6929 234.616 95.5823" stroke="#263238" stroke-miterlimit="10" stroke-linecap="round" stroke-linejoin="round"/>
<path d="M243.337 95.3528C243.337 95.3528 246.78 93.7461 248.846 96.0414" stroke="#263238" stroke-miterlimit="10" stroke-linecap="round" stroke-linejoin="round"/>
<path d="M227.729 90.0738C227.729 90.0738 231.172 85.9424 236.222 88.9262" stroke="#263238" stroke-miterlimit="10" stroke-linecap="round" stroke-linejoin="round"/>
<path d="M242.878 89.8443C242.878 89.8443 247.468 86.4015 250.223 90.0738" stroke="#263238" stroke-miterlimit="10" stroke-linecap="round" stroke-linejoin="round"/>
<path d="M206.384 132.535C206.384 132.535 197.662 135.06 197.433 136.437C197.203 137.814 202.941 179.817 202.941 179.817C202.941 179.817 199.958 182.571 201.105 184.178C202.253 185.784 204.778 188.998 204.778 188.998C204.778 188.998 204.089 191.063 205.696 192.44C207.302 193.818 211.893 211.261 216.483 219.524C221.074 227.787 226.812 234.443 226.812 234.443C226.812 234.443 230.025 240.41 232.32 242.017C234.615 243.624 236.222 245.001 237.599 244.312C238.976 243.624 240.353 238.115 240.583 234.672C240.813 231.23 233.468 226.869 232.55 226.41C231.632 225.951 229.336 223.655 229.336 223.655C229.336 223.655 223.139 210.573 221.992 204.146C220.844 197.719 217.86 187.85 217.86 187.85C217.86 187.85 219.467 183.948 219.467 183.03C219.467 182.112 216.942 179.817 216.942 178.899C216.942 177.981 216.942 175.685 216.942 174.767C216.942 173.849 216.942 172.013 216.942 172.013L214.877 148.143" fill="#0D6EFD"/>
<path d="M206.384 132.535C206.384 132.535 197.662 135.06 197.433 136.437C197.203 137.814 202.941 179.817 202.941 179.817C202.941 179.817 199.958 182.571 201.105 184.178C202.253 185.784 204.778 188.998 204.778 188.998C204.778 188.998 204.089 191.063 205.696 192.44C207.302 193.818 211.893 211.261 216.483 219.524C221.074 227.787 226.812 234.443 226.812 234.443C226.812 234.443 230.025 240.41 232.32 242.017C234.615 243.624 236.222 245.001 237.599 244.312C238.976 243.624 240.353 238.115 240.583 234.672C240.813 231.23 233.468 226.869 232.55 226.41C231.632 225.951 229.336 223.655 229.336 223.655C229.336 223.655 223.139 210.573 221.992 204.146C220.844 197.719 217.86 187.85 217.86 187.85C217.86 187.85 219.467 183.948 219.467 183.03C219.467 182.112 216.942 179.817 216.942 178.899C216.942 177.981 216.942 175.685 216.942 174.767C216.942 173.849 216.942 172.013 216.942 172.013L214.877 148.143" stroke="#263238" stroke-miterlimit="10" stroke-linecap="round" stroke-linejoin="round"/>
<path d="M232.55 226.41C231.632 225.951 229.337 223.655 229.337 223.655C229.337 223.655 223.139 210.573 221.992 204.146C221.489 201.327 220.632 197.848 219.83 194.828C213.882 192.939 209.848 195.269 207.781 197.096C209.972 203.185 213.228 213.662 216.484 219.524C221.075 227.787 226.813 234.443 226.813 234.443C226.813 234.443 230.026 240.41 232.321 242.017C234.616 243.624 236.223 245.001 237.6 244.312C238.977 243.624 240.354 238.115 240.584 234.672C240.814 231.23 233.468 226.869 232.55 226.41Z" fill="white" stroke="#263238" stroke-miterlimit="10" stroke-linecap="round" stroke-linejoin="round"/>
<path d="M206.843 187.391C206.843 187.391 212.581 183.489 216.483 185.096" stroke="#263238" stroke-miterlimit="10" stroke-linecap="round" stroke-linejoin="round"/>
<path d="M203.171 185.096C203.171 185.096 210.516 179.817 215.106 182.112" stroke="#263238" stroke-miterlimit="10" stroke-linecap="round" stroke-linejoin="round"/>
<path d="M261.469 149.061L259.633 180.964C259.633 180.964 255.961 186.014 256.42 187.391C256.879 188.768 256.879 190.375 256.879 190.375L254.813 192.899L241.96 227.098C241.96 227.098 236.451 231 236.222 231.918C235.992 232.836 233.927 239.033 233.927 240.41C233.927 241.788 233.468 241.788 235.074 241.788C236.681 241.788 238.517 236.738 238.517 236.738L237.828 242.706C237.828 242.706 234.615 243.624 233.697 243.624C232.779 243.624 235.074 246.837 238.747 246.378C242.419 245.919 244.714 244.312 245.862 240.64C247.009 236.968 248.616 225.951 248.616 225.951C248.616 225.951 269.961 197.949 272.027 194.506C274.093 191.063 274.781 187.85 274.552 186.243C274.322 184.637 274.322 183.719 275.011 181.423C275.7 179.128 275.929 177.062 275.47 176.374C275.011 175.685 276.388 153.192 275.7 145.389C275.011 137.585 272.945 133.683 270.421 131.847C267.896 130.011 263.535 129.322 263.535 129.322" fill="#0D6EFD"/>
<path d="M261.469 149.061L259.633 180.964C259.633 180.964 255.961 186.014 256.42 187.391C256.879 188.768 256.879 190.375 256.879 190.375L254.813 192.899L241.96 227.098C241.96 227.098 236.451 231 236.222 231.918C235.992 232.836 233.927 239.033 233.927 240.41C233.927 241.788 233.468 241.788 235.074 241.788C236.681 241.788 238.517 236.738 238.517 236.738L237.828 242.706C237.828 242.706 234.615 243.624 233.697 243.624C232.779 243.624 235.074 246.837 238.747 246.378C242.419 245.919 244.714 244.312 245.862 240.64C247.009 236.968 248.616 225.951 248.616 225.951C248.616 225.951 269.961 197.949 272.027 194.506C274.093 191.063 274.781 187.85 274.552 186.243C274.322 184.637 274.322 183.719 275.011 181.423C275.7 179.128 275.929 177.062 275.47 176.374C275.011 175.685 276.388 153.192 275.7 145.389C275.011 137.585 272.945 133.683 270.421 131.847C267.896 130.011 263.535 129.322 263.535 129.322" stroke="#263238" stroke-miterlimit="10" stroke-linecap="round" stroke-linejoin="round"/>
<path d="M254.607 193.447L241.96 227.098C241.96 227.098 236.451 231 236.222 231.918C235.992 232.836 233.927 239.033 233.927 240.41C233.927 241.788 233.468 241.788 235.074 241.788C236.681 241.788 238.517 236.738 238.517 236.738L237.828 242.706C237.828 242.706 234.615 243.624 233.697 243.624C232.779 243.624 235.074 246.837 238.747 246.378C242.419 245.919 244.714 244.312 245.862 240.64C247.009 236.968 248.616 225.951 248.616 225.951C248.616 225.951 262.082 208.286 268.655 199.294C264.854 193.143 258.036 193.043 254.607 193.447Z" fill="white" stroke="#263238" stroke-miterlimit="10" stroke-linecap="round" stroke-linejoin="round"/>
<path d="M259.404 188.768C259.404 188.768 265.83 185.325 270.421 189.686" stroke="#263238" stroke-miterlimit="10" stroke-linecap="round" stroke-linejoin="round"/>
<path d="M270.65 183.948C270.65 183.948 263.994 183.03 259.863 186.702" stroke="#263238" stroke-miterlimit="10" stroke-linecap="round" stroke-linejoin="round"/>
<path d="M116.412 203.152L117.635 239.263L122.838 359.532L120.696 365.959L123.756 375.752C123.756 375.752 127.429 372.08 132.019 374.221C136.61 376.363 139.364 379.118 139.364 379.118C139.364 379.118 140.894 376.363 141.812 373.915C142.73 371.466 142.73 368.101 142.73 367.182C142.73 366.264 147.015 361.98 147.015 360.45C147.015 358.92 143.343 352.493 143.343 352.493L149.157 238.345L155.889 358.92C155.889 358.92 154.053 361.062 154.053 361.98C154.053 362.898 156.502 377.587 156.502 377.587C156.502 377.587 156.807 377.894 160.48 377.894C164.152 377.894 169.048 376.976 170.579 375.445C172.109 373.915 175.169 373.609 175.169 373.609L175.782 366.877L174.558 361.981L178.536 287.921V213.251L178.842 201.928L115.799 201.01L116.412 203.152Z" fill="#263238" stroke="#263238" stroke-miterlimit="10" stroke-linecap="round" stroke-linejoin="round"/>
<path d="M128.041 109.813L105.701 121.748L92.2356 172.548L74.4854 199.785L80.9119 204.988L104.782 181.73L111.515 173.162L113.963 188.769C113.963 188.769 109.373 199.786 111.821 201.928C114.27 204.07 117.635 205.295 117.635 205.295H178.841C178.841 205.295 180.065 201.01 180.065 199.786C180.065 198.562 178.535 188.157 178.535 188.157L179.453 166.735L182.819 185.709L185.88 219.065L195.061 218.759L196.897 174.079L184.044 121.748L158.338 111.036L128.041 109.813Z" fill="white" stroke="#263238" stroke-miterlimit="10" stroke-linecap="round" stroke-linejoin="round"/>
<path d="M133.626 101.32L129.265 101.779L125.134 109.583L128.118 128.633L142.118 118.764L156.119 129.093L160.939 109.354L155.201 101.091L133.626 101.32Z" fill="white" stroke="#263238" stroke-miterlimit="10" stroke-linecap="round" stroke-linejoin="round"/>
<path d="M132.249 94.2052L131.56 105.911L143.036 119.682L153.365 105.452L152.447 93.9757C152.447 93.9757 140.511 97.189 132.249 94.2052Z" fill="white" stroke="#263238" stroke-miterlimit="10" stroke-linecap="round" stroke-linejoin="round"/>
<path d="M152.803 98.4247L152.447 93.9757C152.447 93.9757 140.511 97.189 132.249 94.2052L132.075 97.1596C133.821 100.378 137.805 106.687 142.382 107.085C146.236 107.42 150.3 102.303 152.803 98.4247Z" fill="#263238" stroke="#263238" stroke-miterlimit="10" stroke-linecap="round" stroke-linejoin="round"/>
<path d="M126.51 75.614C126.51 75.614 124.904 72.1711 123.986 74.9254C123.068 77.6797 126.74 83.4177 126.74 83.4177L127.429 75.8435L126.51 75.614Z" fill="white" stroke="#263238" stroke-miterlimit="10" stroke-linecap="round" stroke-linejoin="round"/>
<path d="M157.119 75.614C157.119 75.614 158.725 72.1711 159.644 74.9254C160.562 77.6797 156.889 83.4177 156.889 83.4177L156.201 75.8435L157.119 75.614Z" fill="white" stroke="#263238" stroke-miterlimit="10" stroke-linecap="round" stroke-linejoin="round"/>
<path d="M155.889 79.5159C155.889 79.5159 156.348 79.7454 157.037 78.1387C157.725 76.5321 158.184 67.3512 158.184 67.3512C158.184 67.3512 162.775 60.4656 160.25 55.6456C157.725 50.8257 149.233 48.76 143.036 47.3829C136.839 46.0057 127.429 48.5305 124.445 51.9733C121.461 55.4161 118.477 59.5475 120.313 61.8427C122.15 64.1379 126.281 67.1217 126.281 67.1217C126.281 67.1217 125.592 74.2369 126.51 75.614C127.429 76.9911 127.429 76.9911 127.429 76.9911L128.576 67.5807C128.576 67.5807 136.609 66.6627 141.429 65.056C146.249 63.4494 148.545 62.7608 148.545 62.7608C148.545 62.7608 150.61 66.6627 152.217 67.8103C153.824 68.9579 154.512 69.876 154.512 69.876L155.889 79.5159Z" fill="#263238" stroke="#263238" stroke-miterlimit="10" stroke-linecap="round" stroke-linejoin="round"/>
<path d="M127.658 65.7446C127.658 65.7446 126.052 85.7129 127.429 88.6967C128.806 91.6805 134.544 102.698 143.495 101.779C152.447 100.861 155.889 91.91 156.349 86.631C156.808 81.352 155.889 67.1217 155.889 67.1217C155.889 67.1217 151.529 65.2855 151.07 63.4493C150.611 61.6132 150.611 58.6294 150.611 58.6294C150.611 58.6294 137.069 66.8922 127.658 65.7446Z" fill="white" stroke="#263238" stroke-miterlimit="10" stroke-linecap="round" stroke-linejoin="round"/>
<path d="M142.577 82.9587C142.577 82.9587 139.134 83.1882 135.921 85.7129C132.708 88.2377 130.872 88.4672 130.872 88.4672C130.872 88.4672 135.003 93.5167 141.2 93.5167C147.397 93.5167 151.299 90.5329 151.988 88.4672C152.676 86.4015 152.676 86.4015 152.676 86.4015C152.676 86.4015 148.545 85.9425 146.02 84.5653C143.495 83.1882 142.577 82.9587 142.577 82.9587Z" fill="#263238" stroke="#263238" stroke-miterlimit="10" stroke-linecap="round" stroke-linejoin="round"/>
<path d="M140.282 78.1387C140.282 78.1387 139.823 83.1882 140.282 84.1063C140.741 85.0244 144.184 86.8605 144.643 84.7949C145.102 82.7292 144.643 78.1387 144.643 78.1387" fill="white"/>
<path d="M140.282 78.1387C140.282 78.1387 139.823 83.1882 140.282 84.1063C140.741 85.0244 144.184 86.8605 144.643 84.7949C145.102 82.7292 144.643 78.1387 144.643 78.1387" stroke="#263238" stroke-miterlimit="10" stroke-linecap="round" stroke-linejoin="round"/>
<path d="M135.118 77.9092C135.815 77.9092 136.38 77.1899 136.38 76.3026C136.38 75.4152 135.815 74.6959 135.118 74.6959C134.421 74.6959 133.855 75.4152 133.855 76.3026C133.855 77.1899 134.421 77.9092 135.118 77.9092Z" fill="#263238"/>
<path d="M148.774 77.9092C149.471 77.9092 150.036 77.1899 150.036 76.3026C150.036 75.4152 149.471 74.6959 148.774 74.6959C148.077 74.6959 147.512 75.4152 147.512 76.3026C147.512 77.1899 148.077 77.9092 148.774 77.9092Z" fill="#263238"/>
<path d="M131.331 71.9416C131.331 71.9416 132.478 68.2693 138.216 70.335" stroke="#263238" stroke-miterlimit="10" stroke-linecap="round" stroke-linejoin="round"/>
<path d="M144.873 70.1055C144.873 70.1055 148.086 67.1217 151.988 71.0236" stroke="#263238" stroke-miterlimit="10" stroke-linecap="round" stroke-linejoin="round"/>
<path d="M106.925 138.579L111.516 173.161L102.946 148.067" stroke="#263238" stroke-miterlimit="10" stroke-linecap="round" stroke-linejoin="round"/>
<path d="M143.036 122.972L146.096 187.544" stroke="#263238" stroke-miterlimit="10" stroke-linecap="round" stroke-linejoin="round"/>
<path d="M179.454 166.734L179.76 135.825" stroke="#263238" stroke-miterlimit="10" stroke-linecap="round" stroke-linejoin="round"/>
<path d="M143.955 239.263L156.195 231.612" stroke="#808080" stroke-miterlimit="10" stroke-linecap="round" stroke-linejoin="round"/>
<path d="M195.54 233.117L193.76 244.4L192.752 243.896L195.54 233.117Z" stroke="#263238" stroke-miterlimit="10" stroke-linecap="round" stroke-linejoin="round"/>
<path d="M185.881 219.065L183.777 229.054L184.697 239.366L186.208 239.534L186.771 232.262L187.841 243.811L192.332 244.667C192.332 244.667 195.326 234.829 195.54 233.118C195.754 231.407 195.062 218.76 195.062 218.76L185.881 219.065Z" fill="white" stroke="#263238" stroke-miterlimit="10" stroke-linecap="round" stroke-linejoin="round"/>
<path d="M189.061 243.728L190.739 231.31" stroke="#263238" stroke-miterlimit="10" stroke-linecap="round" stroke-linejoin="round"/>
<path d="M190.403 244.232L193.423 232.317" stroke="#263238" stroke-miterlimit="10" stroke-linecap="round" stroke-linejoin="round"/>
<path d="M74.4856 199.785C74.4856 199.785 67.1409 203.152 65.3047 203.763C63.4685 204.376 62.8562 206.517 60.7143 208.048C58.5724 209.578 55.8181 211.414 57.3477 212.026C58.8781 212.638 60.7143 212.332 60.7143 212.332L63.4685 208.965L58.5724 219.676L58.2667 223.655L61.939 225.186L70.5075 220.595L80.9122 204.988L74.4856 199.785Z" fill="white" stroke="#263238" stroke-miterlimit="10" stroke-linecap="round" stroke-linejoin="round"/>
<path d="M63.4688 208.966C63.4688 208.966 67.0686 211.987 69.2995 211.35C71.5305 210.713 73.284 206.091 73.284 206.091" fill="white"/>
<path d="M63.4688 208.966C63.4688 208.966 67.0686 211.987 69.2995 211.35C71.5305 210.713 73.284 206.091 73.284 206.091" stroke="#263238" stroke-miterlimit="10" stroke-linecap="round" stroke-linejoin="round"/>
<path d="M58.6206 222.029L63.7206 214.538" stroke="#263238" stroke-miterlimit="10" stroke-linecap="round" stroke-linejoin="round"/>
<path d="M60.0547 224.101L65.9525 215.653" stroke="#263238" stroke-miterlimit="10" stroke-linecap="round" stroke-linejoin="round"/>
<path d="M61.939 225.186L68.8209 216.929" stroke="#263238" stroke-miterlimit="10" stroke-linecap="round" stroke-linejoin="round"/>
<path d="M39.981 279.796L44.3419 361.047C44.3419 361.047 41.3581 366.096 42.0467 367.474C42.7352 368.851 43.6533 373.671 43.6533 373.671L52.1456 378.72C52.1456 378.72 58.1132 377.802 58.3427 376.884C58.5722 375.966 59.2608 370.916 59.4903 367.703C59.7198 364.49 58.3427 361.506 58.5722 358.293C58.8017 355.079 63.6217 292.879 63.6217 292.879L65.2283 292.42L68.6711 366.785C68.6711 366.785 67.7531 368.851 67.5235 370.457C67.294 372.064 69.5892 375.277 69.5892 375.277C69.5892 375.277 69.5892 378.032 70.9664 378.491C72.3435 378.95 75.3273 378.032 76.2454 377.113C77.1634 376.195 76.7044 373.441 78.7701 372.982C80.8358 372.523 84.9672 374.589 84.9672 374.589C84.9672 374.589 85.1967 369.998 84.9672 367.933C84.7377 365.867 82.4424 362.654 82.4424 362.654L85.4262 302.748L84.5081 279.796H39.981Z" fill="#263238" stroke="#263238" stroke-miterlimit="10" stroke-linecap="round" stroke-linejoin="round"/>
<path d="M97.8206 242.384L95.9844 286.452C95.9844 286.452 97.8206 297.01 97.8206 297.699C97.8206 298.388 96.9025 302.978 95.2958 304.355C93.6892 305.732 92.7711 303.896 92.7711 303.896L93.2301 301.371L92.0825 295.863L90.4759 302.06C90.4759 302.06 88.4102 302.289 88.8692 299.535C89.3283 296.781 89.0988 291.961 89.5578 290.354C90.0168 288.748 90.0168 286.452 90.0168 286.452C90.0168 286.452 85.4264 262.812 85.4264 262.123C85.4264 261.435 84.2788 243.991 84.2788 243.991L97.8206 242.384Z" fill="white" stroke="#263238" stroke-miterlimit="10" stroke-linecap="round" stroke-linejoin="round"/>
<path d="M23.1111 282.321C32.6816 282.321 40.44 274.563 40.44 264.992C40.44 255.422 32.6816 247.663 23.1111 247.663C13.5406 247.663 5.78223 255.422 5.78223 264.992C5.78223 274.563 13.5406 282.321 23.1111 282.321Z" fill="white" stroke="#263238" stroke-miterlimit="10" stroke-linecap="round" stroke-linejoin="round"/>
<path d="M15.4222 230.679C15.4222 230.679 7.84795 240.089 7.38891 241.237C6.92986 242.384 -0.644347 267.861 0.0442179 270.386C0.732782 272.911 3.48704 278.419 4.1756 280.255C4.86417 282.092 12.4384 285.993 14.9631 285.993C16.4164 285.993 18.2508 284.928 19.5453 284.024C20.3055 283.493 20.2329 282.344 19.4094 281.918C18.4739 281.434 17.3566 280.817 16.5698 280.255C14.9631 279.108 13.586 277.96 13.586 277.96C13.586 277.96 16.7993 280.485 17.0288 278.649C17.2583 276.813 15.1926 275.435 14.5041 274.058C13.8155 272.681 10.6022 269.468 9.91364 269.009C9.22508 268.55 7.15938 267.173 7.15938 267.173C7.15938 267.173 6.2413 259.828 8.30699 256.385C10.3727 252.942 13.1269 251.106 13.1269 251.106L17.7174 244.22L22.0783 240.548L15.4222 230.679Z" fill="white" stroke="#263238" stroke-miterlimit="10" stroke-linecap="round" stroke-linejoin="round"/>
<path d="M13.5862 277.96L7.61865 274.747" stroke="#263238" stroke-miterlimit="10" stroke-linecap="round" stroke-linejoin="round"/>
<path d="M56.9657 198.087L34.4726 205.89L12.209 231.597L22.5375 244.909L38.1449 234.122L38.604 281.403C38.604 281.403 48.7029 285.075 60.638 285.993C72.5731 286.912 85.4263 281.403 85.4263 281.403L87.2625 248.581L103.1 243.761C103.1 243.761 92.0825 213.235 90.0168 209.563C87.9511 205.89 69.5894 199.234 69.5894 199.234C69.5894 199.234 62.0152 197.169 56.9657 198.087Z" fill="#0D6EFD" stroke="#263238" stroke-miterlimit="10" stroke-linecap="round" stroke-linejoin="round"/>
<path d="M87.2627 248.581L87.9513 217.366" stroke="#263238" stroke-miterlimit="10" stroke-linecap="round" stroke-linejoin="round"/>
<path d="M38.1449 234.122L35.6201 220.58" stroke="#263238" stroke-miterlimit="10" stroke-linecap="round" stroke-linejoin="round"/>
<path d="M55.5884 189.135C55.5884 189.135 56.2769 199.234 56.0474 201.07C55.8179 202.907 56.9655 209.333 61.5559 210.022C66.1464 210.71 70.5073 202.448 70.9663 201.759C71.4254 201.07 70.5073 194.873 70.5073 194.873L55.5884 189.135Z" fill="white" stroke="#263238" stroke-miterlimit="10" stroke-linecap="round" stroke-linejoin="round"/>
<path d="M71.0921 200.701C71.0783 198.739 70.5073 194.873 70.5073 194.873L55.5884 189.135C55.5884 189.135 55.6802 190.484 55.7858 192.283C57.419 194.429 60.1843 197.193 64.3469 198.719C66.9635 199.68 69.2348 200.297 71.0921 200.701Z" fill="#263238" stroke="#263238" stroke-miterlimit="10" stroke-linecap="round" stroke-linejoin="round"/>
<path d="M76.7044 163.199C76.7044 163.199 74.1796 157.461 65.2283 155.855C56.2769 154.248 46.4075 158.379 42.9647 166.642C39.5219 174.905 47.0961 183.397 47.0961 183.397C47.0961 183.397 54.8998 190.972 56.5065 192.578C58.1131 194.185 60.1788 196.48 64.3102 196.939C68.4416 197.398 74.6387 198.087 76.9339 196.939C79.2291 195.791 80.1472 191.431 80.6062 190.513C81.0653 189.594 82.9014 182.479 81.5243 179.036C80.1472 175.594 78.0815 173.757 78.0815 173.757C78.0815 173.757 78.311 167.101 76.7044 163.199Z" fill="white" stroke="#263238" stroke-miterlimit="10" stroke-linecap="round" stroke-linejoin="round"/>
<path d="M75.7863 165.036C76.2995 164.522 76.6566 164.095 76.9036 163.741C76.8393 163.558 76.776 163.373 76.7044 163.199C76.7044 163.199 74.1796 157.461 65.2283 155.855C56.2769 154.248 46.4075 158.379 42.9647 166.642C39.5219 174.905 47.0961 183.397 47.0961 183.397C47.0961 183.397 48.2538 184.521 49.7659 185.992C50.0698 185.525 50.471 185.076 50.9979 184.774C52.6046 183.856 54.4408 187.07 54.4408 187.07C54.4408 187.07 55.5884 186.84 56.2769 185.463C56.9655 184.086 53.9817 179.725 53.9817 179.725C53.9817 179.725 54.8998 177.659 57.195 175.364C59.4902 173.069 63.3921 166.183 63.3921 166.183L63.8511 169.626C63.8511 169.626 66.3759 169.167 67.5235 168.249C68.6711 167.331 70.7368 165.495 70.7368 165.495L70.2777 169.167C70.2777 169.167 73.7206 167.101 75.7863 165.036Z" fill="#263238" stroke="#263238" stroke-miterlimit="10" stroke-linecap="round" stroke-linejoin="round"/>
<path d="M76.2456 179.725C76.2456 179.725 80.1475 182.709 78.9999 184.086C77.8523 185.463 76.2456 185.463 76.2456 185.463" stroke="#263238" stroke-miterlimit="10" stroke-linecap="round" stroke-linejoin="round"/>
<path d="M69.5894 188.447C69.5894 188.447 72.3436 191.201 76.2455 189.365" stroke="#263238" stroke-miterlimit="10" stroke-linecap="round" stroke-linejoin="round"/>
<path d="M69.1164 180.007C69.2532 180.884 68.8566 181.673 68.2305 181.771C67.6043 181.87 66.9856 181.238 66.8488 180.361C66.712 179.484 67.1086 178.695 67.7347 178.597C68.3609 178.498 68.9796 179.13 69.1164 180.007Z" fill="#263238"/>
<path d="M77.3791 176.794C77.5159 177.67 77.1193 178.46 76.4932 178.558C75.867 178.656 75.2483 178.025 75.1115 177.148C74.9747 176.271 75.3713 175.482 75.9974 175.383C76.6236 175.285 77.2423 175.917 77.3791 176.794Z" fill="#263238"/>
<path d="M64.54 177.43C64.54 177.43 65.6876 174.675 68.9009 174.675" stroke="#263238" stroke-miterlimit="10" stroke-linecap="round" stroke-linejoin="round"/>
<path d="M73.9502 173.528C73.9502 173.528 76.2454 171.462 77.6225 171.692" stroke="#263238" stroke-miterlimit="10" stroke-linecap="round" stroke-linejoin="round"/>
<path d="M56.9653 187.299C56.9653 187.299 53.9815 180.873 50.7682 181.332C47.5549 181.791 47.3254 186.84 50.0796 189.594C52.8339 192.349 56.5062 190.742 56.5062 190.742" fill="white"/>
<path d="M56.9653 187.299C56.9653 187.299 53.9815 180.873 50.7682 181.332C47.5549 181.791 47.3254 186.84 50.0796 189.594C52.8339 192.349 56.5062 190.742 56.5062 190.742" stroke="#263238" stroke-miterlimit="10" stroke-linecap="round" stroke-linejoin="round"/>
</g>
</svg>
