<svg width="301" height="301" viewBox="0 0 301 301" fill="none" xmlns="http://www.w3.org/2000/svg">
<mask id="mask0_204_839" style="mask-type:alpha" maskUnits="userSpaceOnUse" x="0" y="0" width="301" height="301">
<circle cx="150.5" cy="150.5" r="150.5" fill="#D9D9D9"/>
</mask>
<g mask="url(#mask0_204_839)">
<circle cx="150.5" cy="150.5" r="150.5" fill="white"/>
<path d="M129.04 147.806C129.04 147.806 86.7657 160.838 85.1767 167.195C83.5877 173.552 59.4307 239.03 59.4307 239.03L97.8907 243.162C97.8907 243.162 89.3086 307.686 90.8976 309.593C92.4866 311.5 144.297 313.407 153.833 313.725C163.369 314.043 212.636 308.639 213.907 306.414C215.178 304.189 214.861 299.103 214.861 299.103L213.272 252.061L213.59 232.672L231.072 267C231.072 267 236.158 271.132 245.375 269.861C254.593 268.59 261.268 264.457 259.361 251.744C257.454 239.03 232.344 180.863 229.483 172.281C226.622 163.699 223.762 159.567 219.312 157.342C214.862 155.117 171.634 144.31 171.634 144.31L129.04 147.806Z" fill="#0D6EFD" stroke="#263238" stroke-miterlimit="10" stroke-linecap="round" stroke-linejoin="round"/>
<path d="M213.589 232.672L214.86 190.398" stroke="#263238" stroke-miterlimit="10" stroke-linecap="round" stroke-linejoin="round"/>
<path d="M214.86 215.826L218.992 192.305" stroke="#263238" stroke-miterlimit="10" stroke-linecap="round" stroke-linejoin="round"/>
<path d="M97.8896 243.161L102.658 185.948" stroke="#263238" stroke-miterlimit="10" stroke-linecap="round" stroke-linejoin="round"/>
<path d="M99.7978 209.469L96.3008 186.584" stroke="#263238" stroke-miterlimit="10" stroke-linecap="round" stroke-linejoin="round"/>
<path d="M129.358 138.27C129.358 138.27 119.822 145.898 120.14 147.488C120.458 149.077 120.458 156.07 123.954 157.659C127.45 159.248 149.7 176.73 149.7 176.73L129.358 138.27Z" fill="#0D6EFD" stroke="#263238" stroke-miterlimit="10" stroke-linecap="round" stroke-linejoin="round"/>
<path d="M125.221 112.03L129.994 151.302L149.701 176.73L173.222 141.766L173.54 117.291C173.54 117.291 171.315 124.602 157.647 123.966C143.979 123.331 125.221 112.03 125.221 112.03Z" fill="white" stroke="#263238" stroke-miterlimit="10" stroke-linecap="round" stroke-linejoin="round"/>
<path d="M149.644 132.97L129.358 138.27L124.457 108.102L149.644 132.97Z" fill="#263238" stroke="#263238" stroke-miterlimit="10" stroke-linecap="round" stroke-linejoin="round"/>
<path d="M149.7 176.73C149.7 176.73 156.693 154.162 157.329 150.984C157.965 147.806 174.175 135.091 174.175 135.091C174.175 135.091 177.353 135.091 177.353 138.269C177.353 141.447 177.671 145.262 177.671 145.262L149.7 176.73Z" fill="#0D6EFD" stroke="#263238" stroke-miterlimit="10" stroke-linecap="round" stroke-linejoin="round"/>
<path d="M177.988 88.8443C177.988 88.8443 182.438 85.3483 184.663 90.7513C186.888 96.1553 179.895 104.737 178.306 106.326C176.717 107.915 176.717 107.915 176.717 107.915C176.717 107.915 175.764 99.0153 175.764 95.8373C175.763 92.6583 175.128 88.2083 177.988 88.8443Z" fill="white" stroke="#263238" stroke-miterlimit="10" stroke-linecap="round" stroke-linejoin="round"/>
<path d="M117.924 93.5893C117.924 93.5893 113.156 94.2213 113.152 98.3533C113.149 102.485 115.687 108.209 118.864 110.118C122.041 112.028 125.219 112.03 125.219 112.03C125.219 112.03 126.166 119.659 130.612 124.748C135.058 129.837 140.776 133.656 143.635 135.566C146.494 137.476 152.849 140.341 156.664 138.755C160.479 137.169 166.206 131.452 166.206 131.452C166.206 131.452 171.611 129.231 173.842 122.241C176.073 115.25 178.625 103.174 178.63 97.1353C178.635 91.0963 177.052 83.7843 176.736 81.8773C176.42 79.9703 171.34 72.6553 156.401 72.6433C141.462 72.6313 129.38 77.3883 127.152 80.8833C124.925 84.3773 117.924 93.5893 117.924 93.5893Z" fill="white" stroke="#263238" stroke-miterlimit="10" stroke-linecap="round" stroke-linejoin="round"/>
<path d="M121.819 91.4753L123.66 99.3003C123.66 99.3003 125.501 99.5303 125.501 98.1493C125.501 96.7683 123.636 88.8443 123.636 88.8443L121.819 91.4753Z" fill="#263238" stroke="#263238" stroke-miterlimit="10" stroke-linecap="round" stroke-linejoin="round"/>
<path d="M148.744 107.6C148.744 107.6 148.424 110.143 151.92 111.099C155.416 112.055 160.502 111.106 161.139 109.2C161.776 107.294 160.824 105.068 160.824 105.068" stroke="#263238" stroke-miterlimit="10" stroke-linecap="round" stroke-linejoin="round"/>
<path d="M144.606 115.86C144.606 115.86 153.82 120.635 163.996 114.287" stroke="#263238" stroke-miterlimit="10" stroke-linecap="round" stroke-linejoin="round"/>
<path d="M144.137 99.0163C145.278 99.0163 146.203 97.6642 146.203 95.9963C146.203 94.3284 145.278 92.9763 144.137 92.9763C142.996 92.9763 142.071 94.3284 142.071 95.9963C142.071 97.6642 142.996 99.0163 144.137 99.0163Z" fill="#263238"/>
<path d="M167.658 95.9963C167.658 97.6643 166.733 99.0163 165.592 99.0163C164.451 99.0163 163.526 97.6643 163.526 95.9963C163.526 94.3283 164.451 92.9763 165.592 92.9763C166.733 92.9763 167.658 94.3283 167.658 95.9963Z" fill="#263238"/>
<path d="M136.985 91.3873C136.985 91.3873 141.435 86.9373 148.746 88.5263" stroke="#263238" stroke-width="2" stroke-miterlimit="10" stroke-linecap="round" stroke-linejoin="round"/>
<path d="M160.824 87.8913C160.824 87.8913 166.545 85.9843 171.949 90.1163" stroke="#263238" stroke-width="2" stroke-miterlimit="10" stroke-linecap="round" stroke-linejoin="round"/>
<path d="M123.636 88.8443C123.636 88.8443 120.457 93.6123 117.915 93.6123C115.372 93.6123 106.79 86.9373 106.155 81.2163C105.519 75.4953 118.551 71.0453 123.319 64.0523C128.087 57.0593 140.801 45.2993 150.972 47.2063C161.143 49.1133 167.818 60.2383 174.175 62.1453C180.532 64.0523 190.703 70.4093 189.75 76.7663C188.796 83.1233 186.254 85.9843 183.711 86.3023C181.168 86.6203 177.99 84.7133 177.99 84.7133C177.99 84.7133 169.09 74.2243 156.376 72.6353C143.662 71.0463 139.212 74.2243 134.762 78.9923C130.31 83.7593 123.636 88.8443 123.636 88.8443Z" fill="#263238" stroke="#263238" stroke-miterlimit="10" stroke-linecap="round" stroke-linejoin="round"/>
<path d="M123.636 88.8443C123.636 88.8443 128.086 91.0693 133.489 87.8903C138.892 84.7113 142.071 76.4473 155.421 78.6723C168.771 80.8973 170.36 85.3473 173.538 85.9833C176.716 86.6193 177.988 86.3013 176.716 81.8513C175.445 77.4013 164.32 69.4553 153.195 68.8193C142.071 68.1843 124.271 79.3093 123.636 88.8443Z" fill="#CBCBCB" stroke="#263238" stroke-miterlimit="10" stroke-linecap="round" stroke-linejoin="round"/>
<path d="M120.569 215.853C120.569 215.853 124.426 204.381 125.591 203.011C126.756 201.641 134.181 198.81 134.181 198.81L139.059 196.648C139.736 196.348 140.521 196.741 140.696 197.46C141.226 199.637 141.051 200.046 139.798 201.226C138.316 202.621 132.476 205.325 132.476 205.325L143.277 202.973L161.226 199.273C162.027 199.108 162.793 199.678 162.864 200.493L162.866 200.515C162.926 201.262 147.745 207.121 147.745 207.121L147.99 208.604L160.049 207.505L165.138 206.72C166.106 206.571 167.027 207.19 167.253 208.143C167.461 209.019 167.022 209.918 166.201 210.289C164.384 211.11 161.418 212.444 161.083 212.557C160.595 212.722 149.124 214.9 149.124 214.9L155.661 216.752L166.752 216.649C167.401 216.643 167.932 217.163 167.941 217.811C167.947 218.246 167.718 218.647 167.336 218.857C166.24 219.461 163.951 220.687 162.771 221.061C161.184 221.565 155.749 222.504 154.39 222.739C153.031 222.974 148.418 223.221 148.044 223.251C147.671 223.281 156.034 224.485 156.417 224.579C156.8 224.673 161.454 224.924 161.37 225.432C161.286 225.94 161.47 226.676 160.62 226.995C159.769 227.314 156.41 227.585 153.02 227.483C149.63 227.381 145.121 227.369 145.121 227.369C145.121 227.369 135.964 228.734 132.231 229.036C128.498 229.337 123.447 230.371 123.447 230.371L116.536 233.183L113.569 218.144L120.569 215.853Z" fill="white" stroke="#263238" stroke-miterlimit="10" stroke-linecap="round" stroke-linejoin="round"/>
<path d="M118.173 216.458L121.916 233.428C121.916 233.428 74.7495 268.866 74.0005 268.866C73.2515 268.866 68.2605 269.615 62.0215 264.124C55.7825 258.634 54.2855 250.897 55.2835 245.906C56.2815 240.915 61.2725 234.676 63.7685 232.43C66.2645 230.184 118.173 216.458 118.173 216.458Z" fill="#0D6EFD" stroke="#263238" stroke-miterlimit="10" stroke-linecap="round" stroke-linejoin="round"/>
<path d="M243.952 253.643C243.952 253.643 234.968 261.13 232.971 264.624C230.975 268.118 220.743 310.543 220.743 310.543L236.465 324.269L244.701 313.039C244.701 313.039 263.917 269.865 264.666 266.87C265.415 263.875 261.671 252.645 257.678 247.155" fill="#0D6EFD"/>
<path d="M243.952 253.643C243.952 253.643 234.968 261.13 232.971 264.624C230.975 268.118 220.743 310.543 220.743 310.543L236.465 324.269L244.701 313.039C244.701 313.039 263.917 269.865 264.666 266.87C265.415 263.875 261.671 252.645 257.678 247.155" stroke="#263238" stroke-miterlimit="10" stroke-linecap="round" stroke-linejoin="round"/>
</g>
</svg>
