<svg width="301" height="301" viewBox="0 0 301 301" fill="none" xmlns="http://www.w3.org/2000/svg">
<mask id="mask0_204_731" style="mask-type:alpha" maskUnits="userSpaceOnUse" x="0" y="0" width="301" height="301">
<circle cx="150.5" cy="150.5" r="150.5" fill="#D9D9D9"/>
</mask>
<g mask="url(#mask0_204_731)">
<circle cx="150.5" cy="150.5" r="150.5" fill="white"/>
<path d="M227.496 114.439C227.496 114.439 230.299 113.739 231.139 114.018C231.979 114.299 230.581 115.292 230.581 115.292C230.581 115.292 231.279 115.7 231.7 116.68C232.12 117.661 230.303 117.239 230.303 117.239C230.303 117.239 230.859 117.942 230.299 118.502C229.738 119.063 227.216 116.26 227.216 116.26C227.216 116.26 225.394 117.382 223.713 117.241C222.031 117.101 221.05 116.681 219.929 115C218.809 113.318 217.967 112.477 217.967 112.477L216.846 112.057L218.528 111.076C218.528 111.076 219.929 109.815 221.33 109.955C222.731 110.095 223.292 110.515 223.292 110.515C223.292 110.515 224.133 108.273 225.394 107.433C226.654 106.592 230.578 105.471 231.839 104.77C233.1 104.069 232.82 105.191 232.4 105.891C231.979 106.592 230.718 107.152 230.158 107.433C229.597 107.713 233.1 107.853 232.54 108.554C231.979 109.254 229.877 109.535 229.877 109.535C229.877 109.535 231.839 110.235 231.419 110.796C230.998 111.356 229.317 111.356 229.317 111.356C229.317 111.356 229.877 112.757 229.036 112.757C228.196 112.757 228.196 112.757 228.196 112.757C228.196 112.757 228.617 114.72 227.496 114.439Z" fill="#0D6EFD" stroke="#263238" stroke-miterlimit="10" stroke-linecap="round" stroke-linejoin="round"/>
<path d="M223.292 110.516C223.292 110.516 222.17 108.274 222.731 106.873C223.292 105.472 228.477 101.828 228.336 103.23C228.196 104.631 226.795 105.472 226.795 105.472C226.795 105.472 228.897 104.771 228.897 105.331C228.897 105.892 228.897 105.892 228.897 105.892C228.897 105.892 226.514 106.452 225.393 107.433C224.273 108.414 223.292 110.516 223.292 110.516Z" fill="#263238" stroke="#263238" stroke-miterlimit="10" stroke-linecap="round" stroke-linejoin="round"/>
<path d="M220.012 112.024C220.242 112.024 220.429 111.838 220.429 111.607C220.429 111.377 220.242 111.19 220.012 111.19C219.781 111.19 219.595 111.377 219.595 111.607C219.595 111.838 219.781 112.024 220.012 112.024Z" fill="#263238"/>
<path d="M225.64 115.89C225.388 116.74 224.052 117.093 222.656 116.679C221.26 116.265 220.333 115.24 220.585 114.39C220.837 113.54 222.173 113.187 223.57 113.601C224.965 114.015 225.892 115.04 225.64 115.89Z" fill="white" stroke="#263238" stroke-width="0.5" stroke-miterlimit="10" stroke-linecap="round" stroke-linejoin="round"/>
<path d="M88.1187 78.5245C88.1187 78.5245 85.3159 77.824 84.4751 78.1038C83.6344 78.3843 85.033 79.3774 85.033 79.3774C85.033 79.3774 84.3355 79.7854 83.9148 80.7658C83.4947 81.7468 85.3111 81.3243 85.3111 81.3243C85.3111 81.3243 84.7556 82.0272 85.3159 82.5876C85.8762 83.1479 88.3985 80.3457 88.3985 80.3457C88.3985 80.3457 90.2203 81.4669 91.9019 81.3267C93.5834 81.1865 94.5644 80.7664 95.685 79.0848C96.8056 77.4033 97.647 76.5625 97.647 76.5625L98.7683 76.1418L97.0867 75.1608C97.0867 75.1608 95.6856 73.9 94.2839 74.0396C92.8829 74.1798 92.3219 74.5999 92.3219 74.5999C92.3219 74.5999 91.4812 72.3581 90.2203 71.5173C88.9595 70.6765 85.0355 69.5553 83.7746 68.8548C82.5137 68.1542 82.7936 69.2748 83.2143 69.976C83.6344 70.6765 84.8958 71.2368 85.4561 71.5173C86.0165 71.7978 82.5137 71.9374 83.0741 72.6385C83.6344 73.3391 85.7366 73.6195 85.7366 73.6195C85.7366 73.6195 83.7746 74.3201 84.1953 74.8804C84.616 75.4407 86.2969 75.4407 86.2969 75.4407C86.2969 75.4407 85.7366 76.8418 86.5774 76.8418C87.4181 76.8418 87.4181 76.8418 87.4181 76.8418C87.4181 76.8418 86.9981 78.805 88.1187 78.5245Z" fill="#0D6EFD" stroke="#263238" stroke-miterlimit="10" stroke-linecap="round" stroke-linejoin="round"/>
<path d="M92.3222 74.6012C92.3222 74.6012 93.4434 72.3593 92.8825 70.9583C92.3222 69.5572 87.1374 65.9136 87.2776 67.3153C87.4178 68.7164 88.8189 69.5572 88.8189 69.5572C88.8189 69.5572 86.7173 68.8566 86.7173 69.4169C86.7173 69.9773 86.7173 69.9773 86.7173 69.9773C86.7173 69.9773 89.0994 70.5376 90.2206 71.5186C91.3412 72.499 92.3222 74.6012 92.3222 74.6012Z" fill="#263238" stroke="#263238" stroke-miterlimit="10" stroke-linecap="round" stroke-linejoin="round"/>
<path d="M95.1851 75.6926C95.1851 75.9233 95.372 76.1097 95.6021 76.1097C95.8328 76.1097 96.0191 75.9227 96.0191 75.6926C96.0191 75.4619 95.8322 75.2756 95.6021 75.2756C95.372 75.2756 95.1851 75.4626 95.1851 75.6926Z" fill="#263238"/>
<path d="M89.9739 79.9754C90.2258 80.8253 91.562 81.178 92.9582 80.764C94.3538 80.3494 95.2814 79.3253 95.0289 78.4754C94.7769 77.6255 93.4408 77.2728 92.0446 77.6868C90.6489 78.1008 89.722 79.1255 89.9739 79.9754Z" fill="white" stroke="#263238" stroke-width="0.5" stroke-miterlimit="10" stroke-linecap="round" stroke-linejoin="round"/>
<path d="M80.5938 182.883C80.5938 182.883 75.0532 174.073 65.012 168.865C54.9707 163.659 50.6891 158.517 55.9001 158.823C62.2225 159.196 76.5411 164.216 83.0494 181.882C85.8576 189.505 80.5938 182.883 80.5938 182.883Z" fill="#0D6EFD" stroke="#263238" stroke-miterlimit="10" stroke-linecap="round" stroke-linejoin="round"/>
<path d="M80.2602 180.581C80.2602 180.581 75.2393 170.539 65.7559 165.704" stroke="#263238" stroke-miterlimit="10" stroke-linecap="round" stroke-linejoin="round"/>
<path d="M86.6322 188.975C86.6322 188.975 83.4652 180.117 85.3731 170.073C87.2811 160.029 86.0184 154.115 83.3261 157.989C80.0596 162.69 75.6305 175.67 84.55 190.161C88.3981 196.413 86.6322 188.975 86.6322 188.975Z" fill="#0D6EFD" stroke="#263238" stroke-miterlimit="10" stroke-linecap="round" stroke-linejoin="round"/>
<path d="M85.1827 187.452C85.1827 187.452 80.8508 178.276 82.7114 168.836" stroke="#263238" stroke-miterlimit="10" stroke-linecap="round" stroke-linejoin="round"/>
<path d="M81.0047 178.453C81.0047 178.453 77.8377 169.595 79.7457 159.551C81.6537 149.507 80.391 143.593 77.6987 147.467C74.4321 152.168 70.0031 165.148 78.9225 179.639C82.7707 185.891 81.0047 178.453 81.0047 178.453Z" fill="#0D6EFD" stroke="#263238" stroke-miterlimit="10" stroke-linecap="round" stroke-linejoin="round"/>
<path d="M80.2601 180.581C80.2601 180.581 75.2228 167.754 77.0834 158.314" stroke="#263238" stroke-miterlimit="10" stroke-linecap="round" stroke-linejoin="round"/>
<path d="M207.055 171.909C207.055 171.909 212.596 163.099 222.637 157.892C232.679 152.685 236.96 147.544 231.749 147.85C225.426 148.222 211.108 153.242 204.599 170.908C201.791 178.531 207.055 171.909 207.055 171.909Z" fill="#0D6EFD" stroke="#263238" stroke-miterlimit="10" stroke-linecap="round" stroke-linejoin="round"/>
<path d="M207.389 169.607C207.389 169.607 212.41 159.565 221.894 154.731" stroke="#263238" stroke-miterlimit="10" stroke-linecap="round" stroke-linejoin="round"/>
<path d="M201.017 178.001C201.017 178.001 204.184 169.143 202.276 159.099C200.368 149.055 201.63 143.141 204.323 147.016C207.589 151.716 212.018 164.696 203.099 179.187C199.251 185.44 201.017 178.001 201.017 178.001Z" fill="#0D6EFD" stroke="#263238" stroke-miterlimit="10" stroke-linecap="round" stroke-linejoin="round"/>
<path d="M202.466 176.478C202.466 176.478 206.798 167.302 204.938 157.862" stroke="#263238" stroke-miterlimit="10" stroke-linecap="round" stroke-linejoin="round"/>
<path d="M206.645 167.479C206.645 167.479 209.812 158.621 207.904 148.577C205.996 138.533 207.258 132.619 209.951 136.494C213.217 141.195 217.646 154.174 208.727 168.665C204.879 174.918 206.645 167.479 206.645 167.479Z" fill="#0D6EFD" stroke="#263238" stroke-miterlimit="10" stroke-linecap="round" stroke-linejoin="round"/>
<path d="M207.389 169.607C207.389 169.607 212.427 156.78 210.566 147.34" stroke="#263238" stroke-miterlimit="10" stroke-linecap="round" stroke-linejoin="round"/>
<path d="M209.584 140.496H151.878L119.593 89.1591H177.299L209.584 140.496Z" fill="#263238" stroke="#263238" stroke-miterlimit="10" stroke-linecap="round" stroke-linejoin="round"/>
<path d="M143.848 138.732H84.7021V190.977H143.848V138.732Z" fill="#C7C7C7" stroke="#263238" stroke-miterlimit="10" stroke-linecap="round" stroke-linejoin="round"/>
<path d="M202.993 190.977H143.848V138.732L173.913 90.9232L202.993 138.732V190.977Z" fill="white" stroke="#263238" stroke-miterlimit="10" stroke-linecap="round" stroke-linejoin="round"/>
<path d="M156.663 148.097H150.748V165.84H156.663V148.097Z" fill="#C7C7C7" stroke="#263238" stroke-miterlimit="10" stroke-linecap="round" stroke-linejoin="round"/>
<path d="M162.577 148.097H156.663V165.84H162.577V148.097Z" fill="#263238" stroke="#263238" stroke-miterlimit="10" stroke-linecap="round" stroke-linejoin="round"/>
<path d="M168.491 148.097H162.577V165.84H168.491V148.097Z" fill="#C7C7C7" stroke="#263238" stroke-miterlimit="10" stroke-linecap="round" stroke-linejoin="round"/>
<path d="M129.555 148.097H124.626V165.84H129.555V148.097Z" fill="#919191" stroke="#263238" stroke-miterlimit="10" stroke-linecap="round" stroke-linejoin="round"/>
<path d="M134.483 148.097H129.555V165.84H134.483V148.097Z" fill="#263238" stroke="#263238" stroke-miterlimit="10" stroke-linecap="round" stroke-linejoin="round"/>
<path d="M139.412 148.097H134.483V165.84H139.412V148.097Z" fill="#919191" stroke="#263238" stroke-miterlimit="10" stroke-linecap="round" stroke-linejoin="round"/>
<path d="M93.0815 148.097H88.1528V165.84H93.0815V148.097Z" fill="#919191" stroke="#263238" stroke-miterlimit="10" stroke-linecap="round" stroke-linejoin="round"/>
<path d="M98.0102 148.097H93.0815V165.84H98.0102V148.097Z" fill="#263238" stroke="#263238" stroke-miterlimit="10" stroke-linecap="round" stroke-linejoin="round"/>
<path d="M102.938 148.097H98.0098V165.84H102.938V148.097Z" fill="#919191" stroke="#263238" stroke-miterlimit="10" stroke-linecap="round" stroke-linejoin="round"/>
<path d="M186.729 148.097H180.814V165.84H186.729V148.097Z" fill="#C7C7C7" stroke="#263238" stroke-miterlimit="10" stroke-linecap="round" stroke-linejoin="round"/>
<path d="M192.643 148.097H186.729V165.84H192.643V148.097Z" fill="#263238" stroke="#263238" stroke-miterlimit="10" stroke-linecap="round" stroke-linejoin="round"/>
<path d="M198.557 148.097H192.643V165.84H198.557V148.097Z" fill="#C7C7C7" stroke="#263238" stroke-miterlimit="10" stroke-linecap="round" stroke-linejoin="round"/>
<path d="M172.928 119.017H168.985V129.86H172.928V119.017Z" fill="#C7C7C7" stroke="#263238" stroke-miterlimit="10" stroke-linecap="round" stroke-linejoin="round"/>
<path d="M176.87 119.017H172.927V129.86H176.87V119.017Z" fill="#263238" stroke="#263238" stroke-miterlimit="10" stroke-linecap="round" stroke-linejoin="round"/>
<path d="M180.814 119.017H176.871V129.86H180.814V119.017Z" fill="#C7C7C7" stroke="#263238" stroke-miterlimit="10" stroke-linecap="round" stroke-linejoin="round"/>
<path d="M81.4106 140.496H144.921L177.205 89.1591H113.695L81.4106 140.496Z" fill="#0D6EFD" stroke="#263238" stroke-miterlimit="10" stroke-linecap="round" stroke-linejoin="round"/>
<path d="M130.997 112.348H105.917V128.945H130.997V112.348Z" fill="#C7C7C7" stroke="#263238" stroke-miterlimit="10" stroke-linecap="round" stroke-linejoin="round"/>
<path d="M130.998 112.348L148.328 100.445L130.998 128.945V112.348Z" fill="white" stroke="#263238" stroke-miterlimit="10" stroke-linecap="round" stroke-linejoin="round"/>
<path d="M103.908 112.912H130.176L148.328 100.445H122.064L103.908 112.912Z" fill="#0D6EFD" stroke="#263238" stroke-miterlimit="10" stroke-linecap="round" stroke-linejoin="round"/>
<path d="M116.001 115.872H112.058V126.715H116.001V115.872Z" fill="#919191" stroke="#263238" stroke-miterlimit="10" stroke-linecap="round" stroke-linejoin="round"/>
<path d="M119.943 115.872H116V126.715H119.943V115.872Z" fill="#263238" stroke="#263238" stroke-miterlimit="10" stroke-linecap="round" stroke-linejoin="round"/>
<path d="M123.887 115.872H119.944V126.715H123.887V115.872Z" fill="#919191" stroke="#263238" stroke-miterlimit="10" stroke-linecap="round" stroke-linejoin="round"/>
<path d="M161.915 81.373H159.709V97.4812L161.915 93.9196V81.373Z" fill="white" stroke="#263238" stroke-miterlimit="10" stroke-linecap="round" stroke-linejoin="round"/>
<path d="M159.812 81.373H153.293V97.4812H159.812V81.373Z" fill="#C7C7C7" stroke="#263238" stroke-miterlimit="10" stroke-linecap="round" stroke-linejoin="round"/>
<path d="M121.865 151.08H106.685V190.977H121.865V151.08Z" fill="#263238" stroke="#263238" stroke-miterlimit="10" stroke-linecap="round" stroke-linejoin="round"/>
<path d="M121.064 170.977C121.064 170.236 120.463 169.634 119.721 169.634C118.979 169.634 118.377 170.236 118.377 170.977C118.377 171.719 118.979 172.321 119.721 172.321C120.463 172.321 121.064 171.72 121.064 170.977Z" fill="white" stroke="#263238" stroke-miterlimit="10" stroke-linecap="round" stroke-linejoin="round"/>
<path d="M81.5714 182.632C81.5714 182.632 68.8579 175.674 56.9857 174.382C45.1135 173.09 38.2447 178.621 38.3036 181.023C38.3625 183.425 46.602 183.605 48.1652 184.006C49.7284 184.407 59.2767 181.771 73.3677 185.119C87.4587 188.467 89.2634 189.155 89.2634 189.155L81.5714 182.632Z" fill="white" stroke="#263238" stroke-miterlimit="10" stroke-linecap="round" stroke-linejoin="round"/>
<path d="M76.254 182.472C76.254 182.472 62.9886 176.636 51.049 176.37C39.1101 176.105 32.7427 182.207 33.008 184.595C33.2732 186.982 41.4982 186.452 43.0899 186.717C44.6816 186.982 53.9678 183.533 68.2943 185.656C82.6214 187.778 84.4783 188.309 84.4783 188.309L76.254 182.472Z" fill="white" stroke="#263238" stroke-miterlimit="10" stroke-linecap="round" stroke-linejoin="round"/>
<path d="M245.828 177.562L227.407 172.573C227.407 172.573 214.359 162.211 198.624 163.363C182.89 164.515 168.69 170.655 164.085 174.108C159.48 177.563 153.723 181.016 152.572 181.784C151.421 182.551 135.686 178.33 127.243 181.784C118.8 185.238 112.276 192.146 112.276 192.146C112.276 192.146 76.5858 181.4 67.7592 179.865C58.9327 178.33 48.5708 179.098 41.2789 184.47C33.9869 189.843 35.5222 193.297 39.36 194.065C43.1978 194.832 43.9651 190.995 65.0724 196.751C86.1797 202.508 111.892 217.475 122.254 223.231C132.616 228.988 149.885 237.047 161.399 233.593C172.911 230.139 204.381 218.243 211.673 218.243C218.964 218.243 242.374 219.778 242.374 219.778L245.828 177.562Z" fill="white" stroke="#263238" stroke-miterlimit="10" stroke-linecap="round" stroke-linejoin="round"/>
<path d="M235.81 202.95L219.978 218.149L242.374 219.777L235.81 202.95Z" fill="#263238" stroke="#263238" stroke-miterlimit="10" stroke-linecap="round" stroke-linejoin="round"/>
<path d="M112.276 192.145C112.276 192.145 108.711 196.83 110.214 202.902C111.142 206.652 115.52 205.82 123.479 204.228C131.438 202.636 124.01 201.575 142.581 201.31C161.153 201.045 181.052 200.514 182.113 200.514" stroke="#263238" stroke-miterlimit="10" stroke-linecap="round" stroke-linejoin="round"/>
<path d="M112.142 205.162C112.142 205.162 112.496 202.738 115.082 201.241C115.082 201.241 119.493 198.953 122.27 198.953C125.048 198.953 127.334 201.894 126.518 202.874" stroke="#263238" stroke-miterlimit="10" stroke-linecap="round" stroke-linejoin="round"/>
<path d="M135.993 200.588V197.32" stroke="#263238" stroke-miterlimit="10" stroke-linecap="round" stroke-linejoin="round"/>
<path d="M137.626 194.216C137.626 194.216 138.116 196.013 137.79 198.79" stroke="#263238" stroke-miterlimit="10" stroke-linecap="round" stroke-linejoin="round"/>
<path d="M261.973 237.477H237.222C235.717 237.477 234.497 236.257 234.497 234.752V172.653C234.497 171.149 235.717 169.928 237.222 169.928H261.973V237.477Z" fill="#0D6EFD" stroke="#263238" stroke-miterlimit="10" stroke-linecap="round" stroke-linejoin="round"/>
<path d="M306 242.754H262.178C261.033 242.754 260.105 241.826 260.105 240.682V168.533C260.105 167.388 261.033 166.461 262.178 166.461H306V242.754Z" fill="#0D6EFD" stroke="#263238" stroke-miterlimit="10" stroke-linecap="round" stroke-linejoin="round"/>
<path d="M238.305 176.118H258.733" stroke="#263238" stroke-miterlimit="10" stroke-linecap="round" stroke-linejoin="round"/>
<path d="M258.455 184.133H237.688" stroke="#263238" stroke-miterlimit="10" stroke-linecap="round" stroke-linejoin="round"/>
<path d="M236.959 198.707H251.168" stroke="#263238" stroke-miterlimit="10" stroke-linecap="round" stroke-linejoin="round"/>
<path d="M253.718 198.707H258.455" stroke="#263238" stroke-miterlimit="10" stroke-linecap="round" stroke-linejoin="round"/>
</g>
</svg>
