<svg width="245" height="188" viewBox="0 0 245 188" fill="none" xmlns="http://www.w3.org/2000/svg" style="width: 100%; height: 100%;">
<g clip-path="url(#clip0_35_3460)">
<path d="M212.749 17.728C218.756 16.88 223.866 11.655 224.58 5.63104C224.071 10.819 227.287 16.156 232.112 18.129C229.642 18.269 227.455 19.971 226.188 22.097C224.922 24.223 224.45 26.726 224.217 29.189C224.085 23.083 218.63 17.576 212.749 17.728Z" stroke="#010101" stroke-width="1.5" stroke-linecap="round" stroke-linejoin="round"></path>
<path d="M0.75 88.245C10.032 86.935 17.927 78.862 19.03 69.553C18.243 77.569 23.212 85.814 30.667 88.864C26.85 89.08 23.471 91.711 21.514 94.995C19.557 98.28 18.828 102.147 18.469 105.953C18.264 96.518 9.837 88.011 0.75 88.245Z" stroke="#010101" stroke-width="1.5" stroke-linecap="round" stroke-linejoin="round"></path>
<path d="M109.701 183.327C103.507 172.588 104.024 171.351 97.83 160.611C93.494 153.093 88.686 145.13 80.092 140.821C75.456 138.496 69.103 137.593 65.092 140.426C55.733 147.035 63.844 164.511 73.276 183.304C87.607 183.76 92.721 183.327 109.701 183.327Z" fill="#55D087" stroke="#010101" stroke-width="1.5" stroke-linecap="round" stroke-linejoin="round"></path>
<path d="M71.5309 144.028C76.7849 160.366 81.0589 167.554 88.5499 183.327" stroke="#010101" stroke-width="1.5" stroke-linecap="round" stroke-linejoin="round"></path>
<path d="M76.7949 183.327C66.1779 167.225 59.4619 156.844 44.9919 152.341C42.1559 151.458 38.8939 151.056 36.2519 152.17C33.2639 153.43 30.9529 156.312 31.4239 159.125C33.2289 169.914 39.6469 175.867 43.6489 183.655C56.5619 183.722 67.0289 183.276 76.7949 183.327Z" fill="#55D087" stroke="#010101" stroke-width="1.5" stroke-linecap="round" stroke-linejoin="round"></path>
<path d="M39.7529 153.95C47.1199 166.75 48.8829 170.899 58.3049 182.764" stroke="#010101" stroke-width="1.5" stroke-linecap="round" stroke-linejoin="round"></path>
<path d="M129.279 187.192C148.3 187.341 151.118 168.043 151.402 158.498C133.994 158.975 116.327 159.247 99.097 159.358C100.163 170.077 105.213 187.192 129.278 187.192H129.279Z" fill="#010101" stroke="#010101" stroke-width="1.5" stroke-linecap="round" stroke-linejoin="round"></path>
<path d="M168.153 119.615C183.452 103.639 198.928 91.415 198.632 69.298C198.347 48.004 186.331 21.376 168.194 10.216C150.058 -0.944987 128.349 -0.829987 107.475 3.38801C58.141 13.355 35.452 85.245 73.511 117.71C84.751 127.298 98.084 137.182 98.869 156.104C98.91 157.091 98.981 158.188 99.097 159.359C116.327 159.249 133.994 158.976 151.402 158.499C151.422 157.843 151.43 157.231 151.43 156.677C151.43 144.598 160.955 127.134 168.154 119.616L168.153 119.615Z" fill="white" stroke="#010101" stroke-width="1.5" stroke-linecap="round" stroke-linejoin="round"></path>
<path d="M134.648 159.417C135.652 139.222 141.385 116.42 149.224 97.782C153.269 88.163 158.885 78.947 160.177 68.593C160.944 62.44 159.551 55.214 154.182 52.112C149.256 49.266 142.455 51.277 138.997 55.794C135.539 60.311 135.116 66.649 136.859 72.064C137.251 73.281 137.866 74.591 139.065 75.033C141.349 75.874 143.205 73.063 143.936 70.742C145.311 66.376 146.299 61.775 145.703 57.236C145.107 52.698 142.699 48.207 138.665 46.045C132.137 42.547 123.766 46.262 119.028 51.955C114.824 57.005 112.545 64.509 115.88 70.171C116.964 72.012 119.259 73.643 121.118 72.591C122.608 71.748 122.848 69.74 122.917 68.03C123.166 61.824 122.686 54.274 117.185 51.391C114.169 49.81 110.393 50.261 107.37 51.829C99.221 56.055 96.751 66.604 97.08 75.778C97.463 86.428 102.86 94.422 106.572 104.412C112.87 121.361 116.813 117.73 116.813 159.608C122.126 159.463 126.373 159.419 134.65 159.419L134.648 159.417Z" stroke="#010101" stroke-width="1.5" stroke-linecap="round" stroke-linejoin="round"></path>
<path d="M212.749 17.728C218.756 16.88 223.866 11.655 224.58 5.63104C224.071 10.819 227.287 16.156 232.112 18.129C229.642 18.269 227.455 19.971 226.188 22.097C224.922 24.223 224.45 26.726 224.217 29.189C224.085 23.083 218.63 17.576 212.749 17.728Z" stroke="#010101" stroke-width="1.5" stroke-linecap="round" stroke-linejoin="round"></path>
<path d="M0.75 88.245C10.032 86.935 17.927 78.862 19.03 69.553C18.243 77.569 23.212 85.814 30.667 88.864C26.85 89.08 23.471 91.711 21.514 94.995C19.557 98.28 18.828 102.147 18.469 105.953C18.264 96.518 9.837 88.011 0.75 88.245Z" stroke="#010101" stroke-width="1.5" stroke-linecap="round" stroke-linejoin="round"></path>
<path d="M109.701 183.327C103.507 172.588 104.024 171.351 97.83 160.611C93.494 153.093 88.686 145.13 80.092 140.821C75.456 138.496 69.103 137.593 65.092 140.426C55.733 147.035 63.844 164.511 73.276 183.304C87.607 183.76 92.721 183.327 109.701 183.327Z" fill="#55D087" stroke="#010101" stroke-width="1.5" stroke-linecap="round" stroke-linejoin="round"></path>
<path d="M71.5309 144.028C76.7849 160.366 81.0589 167.554 88.5499 183.327" stroke="#010101" stroke-width="1.5" stroke-linecap="round" stroke-linejoin="round"></path>
<path d="M76.7949 183.327C66.1779 167.225 59.4619 156.844 44.9919 152.341C42.1559 151.458 38.8939 151.056 36.2519 152.17C33.2639 153.43 30.9529 156.312 31.4239 159.125C33.2289 169.914 39.6469 175.867 43.6489 183.655C56.5619 183.722 67.0289 183.276 76.7949 183.327Z" fill="#55D087" stroke="#010101" stroke-width="1.5" stroke-linecap="round" stroke-linejoin="round"></path>
<path d="M39.7529 153.95C47.1199 166.75 48.8829 170.899 58.3049 182.764" stroke="#010101" stroke-width="1.5" stroke-linecap="round" stroke-linejoin="round"></path>
<path d="M129.279 187.192C148.3 187.341 151.118 168.043 151.402 158.498C133.994 158.975 116.327 159.247 99.097 159.358C100.163 170.077 105.213 187.192 129.278 187.192H129.279Z" fill="#010101" stroke="#010101" stroke-width="1.5" stroke-linecap="round" stroke-linejoin="round"></path>
<path d="M168.153 119.615C183.452 103.639 198.928 91.415 198.632 69.298C198.347 48.004 186.331 21.376 168.194 10.216C150.058 -0.944987 128.349 -0.829987 107.475 3.38801C58.141 13.355 35.452 85.245 73.511 117.71C84.751 127.298 98.084 137.182 98.869 156.104C98.91 157.091 98.981 158.188 99.097 159.359C116.327 159.249 133.994 158.976 151.402 158.499C151.422 157.843 151.43 157.231 151.43 156.677C151.43 144.598 160.955 127.134 168.154 119.616L168.153 119.615Z" fill="white" stroke="#010101" stroke-width="1.5" stroke-linecap="round" stroke-linejoin="round"></path>
<path d="M134.648 159.417C135.652 139.222 141.385 116.42 149.224 97.782C153.269 88.163 158.885 78.947 160.177 68.593C160.944 62.44 159.551 55.214 154.182 52.112C149.256 49.266 142.455 51.277 138.997 55.794C135.539 60.311 135.116 66.649 136.859 72.064C137.251 73.281 137.866 74.591 139.065 75.033C141.349 75.874 143.205 73.063 143.936 70.742C145.311 66.376 146.299 61.775 145.703 57.236C145.107 52.698 142.699 48.207 138.665 46.045C132.137 42.547 123.766 46.262 119.028 51.955C114.824 57.005 112.545 64.509 115.88 70.171C116.964 72.012 119.259 73.643 121.118 72.591C122.608 71.748 122.848 69.74 122.917 68.03C123.166 61.824 122.686 54.274 117.185 51.391C114.169 49.81 110.393 50.261 107.37 51.829C99.221 56.055 96.751 66.604 97.08 75.778C97.463 86.428 102.86 94.422 106.572 104.412C112.87 121.361 116.813 117.73 116.813 159.608C122.126 159.463 126.373 159.419 134.65 159.419L134.648 159.417Z" stroke="#010101" stroke-width="1.5" stroke-linecap="round" stroke-linejoin="round"></path>
<path d="M159.437 88.538C164.002 109.178 168.567 129.817 173.131 150.457C192.16 146.528 211.709 143.918 229.789 136.8C233.095 135.498 244.054 115.41 243.582 112.858C239.994 93.456 234.669 71.251 232.51 69.625C231.043 68.52 181 80.392 159.437 88.538Z" fill="#0D6EFD" stroke="#010101" stroke-width="1.5" stroke-linecap="round" stroke-linejoin="round"></path>
<path d="M175.47 103.191C190.87 98.418 206.392 94.04 222.017 90.063" stroke="#010101" stroke-width="1.5" stroke-linecap="round" stroke-linejoin="round"></path>
<path d="M179.365 118.478C193.054 114.079 207.021 110.543 221.155 107.898" stroke="#010101" stroke-width="1.5" stroke-linecap="round" stroke-linejoin="round"></path>
<path d="M184.598 132.195C192.208 131.239 199.721 129.507 206.982 127.034" stroke="#010101" stroke-width="1.5" stroke-linecap="round" stroke-linejoin="round"></path>
<path d="M243.582 112.858C237.624 113.823 226.178 116.153 226.1 116.576C225.66 118.963 228.034 130.937 229.649 136.13" stroke="#010101" stroke-width="1.5" stroke-linecap="round" stroke-linejoin="round"></path>
<path d="M198.168 86.487C199.253 86.487 200.132 85.6077 200.132 84.523C200.132 83.4383 199.253 82.559 198.168 82.559C197.083 82.559 196.204 83.4383 196.204 84.523C196.204 85.6077 197.083 86.487 198.168 86.487Z" fill="#010101" stroke="#010101" stroke-width="1.5" stroke-linecap="round" stroke-linejoin="round"></path>
</g>
<defs>
<clipPath id="clip0_35_3460">
<rect width="244.347" height="187.943" fill="white"></rect>
</clipPath>
</defs>
</svg>