<svg width="301" height="301" viewBox="0 0 301 301" fill="none" xmlns="http://www.w3.org/2000/svg">
<mask id="mask0_204_728" style="mask-type:alpha" maskUnits="userSpaceOnUse" x="0" y="0" width="301" height="301">
<circle cx="150.5" cy="150.5" r="150.5" fill="#D9D9D9"/>
</mask>
<g mask="url(#mask0_204_728)">
<circle cx="150.5" cy="150.5" r="150.5" fill="white"/>
<path d="M138.172 51.8945C138.172 51.8945 111.37 70.1055 111.027 76.2905C110.683 82.4755 109.996 99.6555 106.56 102.749C103.124 105.841 96.5946 110.996 96.5946 114.775C96.5946 118.554 97.9686 123.365 97.9686 125.083C97.9686 126.801 93.8456 129.894 93.5016 133.673C93.1576 137.453 95.5636 144.668 95.5636 146.73C95.5636 148.792 90.0656 152.228 89.3786 154.977C88.6916 157.726 90.4096 159.444 88.6916 162.193C86.9736 164.942 83.5376 169.409 83.5376 169.409C83.5376 169.409 89.7226 176.968 111.37 180.405C133.017 183.841 164.286 184.872 177.343 182.123C190.4 179.374 215.484 162.537 215.484 162.537C215.484 162.537 213.079 161.163 213.079 157.383C213.079 153.603 217.889 147.762 215.484 143.295C213.079 138.828 207.581 138.484 207.581 131.956C207.581 125.427 209.986 126.458 207.581 121.648C205.176 116.837 200.022 116.15 199.334 112.37C198.647 108.59 203.114 103.78 200.365 97.9375C197.616 92.0955 191.775 87.9725 190.744 85.2235C189.713 82.4745 192.806 74.9155 189.37 70.4485C185.934 65.9815 162.225 52.2375 154.322 50.5195C146.419 48.8015 138.172 51.8945 138.172 51.8945Z" fill="#263238" stroke="#263238" stroke-miterlimit="10" stroke-linecap="round" stroke-linejoin="round"/>
<path d="M182.577 120.902C180.021 137.282 166.723 148.528 166.723 148.528V157.228L156.806 156.063L131.932 153.135V131.137C131.932 131.137 129.881 131.137 126.819 130.622C123.747 130.117 120.16 124.489 123.232 113.747C126.304 102.995 131.932 115.788 131.932 115.788C131.932 115.788 133.973 116.303 141.137 102.49C148.301 88.6765 151.878 69.7405 151.878 69.7405L178.999 84.5845C178.999 84.5845 185.133 104.532 182.577 120.902Z" fill="white" stroke="#263238" stroke-miterlimit="10" stroke-linecap="round" stroke-linejoin="round"/>
<path d="M170.398 99.5745C170.398 99.5745 168.738 104.318 168.738 105.741C168.738 107.164 172.532 122.816 173.007 123.764C173.481 124.713 163.758 126.135 163.758 126.135" stroke="#263238" stroke-miterlimit="10" stroke-linecap="round" stroke-linejoin="round"/>
<path d="M172.769 129.93C172.769 129.93 163.046 133.724 157.354 128.033" stroke="#263238" stroke-miterlimit="10" stroke-linecap="round" stroke-linejoin="round"/>
<path d="M160.2 95.7795C160.2 95.7795 151.9 94.3565 147.631 99.5735" stroke="#263238" stroke-miterlimit="10" stroke-linecap="round" stroke-linejoin="round"/>
<path d="M172.532 96.2546C172.532 96.2546 178.461 94.5945 180.832 98.3885" stroke="#263238" stroke-miterlimit="10" stroke-linecap="round" stroke-linejoin="round"/>
<path d="M156.886 106.805C156.886 108.808 155.949 110.432 154.793 110.432C153.637 110.432 152.7 108.808 152.7 106.805C152.7 104.802 153.637 103.178 154.793 103.178C155.949 103.178 156.886 104.802 156.886 106.805Z" fill="#263238"/>
<path d="M178.788 106.805C178.788 108.808 177.851 110.432 176.695 110.432C175.539 110.432 174.602 108.808 174.602 106.805C174.602 104.802 175.539 103.178 176.695 103.178C177.851 103.178 178.788 104.802 178.788 106.805Z" fill="#263238"/>
<path d="M166.723 148.528V157.228L156.806 156.063C149.446 149.847 142.632 138.663 142.127 137.828C150.508 150.332 166.723 148.528 166.723 148.528Z" fill="#263238" stroke="#263238" stroke-miterlimit="10" stroke-linecap="round" stroke-linejoin="round"/>
<path d="M195.437 176.177C195.437 176.177 223.903 279.021 225.964 289.329C228.026 299.637 233.18 345.509 233.18 345.509L234.726 358.91H217.717L221.325 339.324L201.224 272.32C201.224 272.32 194.008 222.84 193.493 208.924C192.978 195.008 195.437 176.177 195.437 176.177Z" fill="white" stroke="#263238" stroke-miterlimit="10" stroke-linecap="round" stroke-linejoin="round"/>
<path d="M195.437 176.177C195.437 176.177 192.978 195.008 193.493 208.924C194.008 222.84 201.224 272.32 201.224 272.32L209.142 298.712L227.042 295.885C226.634 293.109 226.265 290.837 225.964 289.329C223.903 279.021 195.437 176.177 195.437 176.177Z" fill="#0D6EFD" stroke="#263238" stroke-miterlimit="10" stroke-linecap="round" stroke-linejoin="round"/>
<path d="M131.127 174.392L155.867 201.193L174.937 173.876L164.629 166.661L136.796 165.114L131.127 174.392Z" fill="white" stroke="#263238" stroke-miterlimit="10" stroke-linecap="round" stroke-linejoin="round"/>
<path d="M163.084 171.299L179.577 175.938L203.801 320.254L207.925 359.426H98.1406L110.511 182.123L133.361 168.722L163.084 171.299Z" fill="#C9C9C9" stroke="#263238" stroke-miterlimit="10" stroke-linecap="round" stroke-linejoin="round"/>
<path d="M140.405 236.242L179.062 237.788" stroke="#263238" stroke-miterlimit="10" stroke-linecap="round" stroke-linejoin="round"/>
<path d="M160.507 236.757L158.96 257.889" stroke="#263238" stroke-miterlimit="10" stroke-linecap="round" stroke-linejoin="round"/>
<path d="M164.63 238.303L164.114 276.959" stroke="#263238" stroke-miterlimit="10" stroke-linecap="round" stroke-linejoin="round"/>
<path d="M168.753 249.127L169.784 268.713" stroke="#263238" stroke-miterlimit="10" stroke-linecap="round" stroke-linejoin="round"/>
<path d="M124.084 167.348C124.084 167.348 98.9997 180.749 97.9697 185.216C96.9387 189.683 84.7407 246.035 84.7407 247.066C84.7407 248.097 96.9387 280.053 96.9387 280.053L94.4077 330.306C94.4077 330.306 106.778 333.055 114.337 332.711C121.896 332.367 133.235 331.68 133.235 331.68L135.078 167.348H124.084Z" fill="#0D6EFD" stroke="#263238" stroke-miterlimit="10" stroke-linecap="round" stroke-linejoin="round"/>
<path d="M108.45 263.559L113.088 222.841" stroke="#263238" stroke-miterlimit="10" stroke-linecap="round" stroke-linejoin="round"/>
<path d="M108.622 257.374L82.1636 191.745C82.1636 191.745 78.3836 181.437 75.2916 178.688C72.1996 175.939 68.7626 173.878 66.7016 171.816C64.6396 169.754 64.2966 164.944 62.9216 170.098C61.5476 175.252 67.0446 179.032 67.0446 179.032L70.4806 184.873L48.4896 180.75C48.4896 180.75 37.1506 175.252 36.1196 177.658C35.0886 180.063 40.9306 182.125 45.7406 185.905C50.5506 189.685 53.2996 193.121 61.2026 195.87C69.1056 198.619 75.2906 204.117 75.2906 204.117C75.2906 204.117 77.0086 273.87 81.1316 276.962C85.2546 280.054 99.3426 288.301 104.498 281.429C109.652 274.554 109.652 268.369 108.622 257.374Z" fill="white" stroke="#263238" stroke-miterlimit="10" stroke-linecap="round" stroke-linejoin="round"/>
<path d="M108.621 257.374L104.352 246.785L77.7114 255.753C78.5874 266.995 79.7184 275.899 81.1334 276.96C85.2564 280.052 99.3444 288.299 104.499 281.427C109.651 274.554 109.651 268.369 108.621 257.374Z" fill="#0D6EFD" stroke="#263238" stroke-miterlimit="10" stroke-linecap="round" stroke-linejoin="round"/>
<path d="M57.4588 192.73C57.4588 192.73 48.3798 187.228 46.7298 184.477C45.0788 181.726 39.3018 170.997 41.2278 170.722C43.1538 170.447 48.2708 178.302 48.3808 179.525C48.4898 180.748 54.1578 186.128 54.1578 186.128" fill="white"/>
<path d="M57.4588 192.73C57.4588 192.73 48.3798 187.228 46.7298 184.477C45.0788 181.726 39.3018 170.997 41.2278 170.722C43.1538 170.447 48.2708 178.302 48.3808 179.525C48.4898 180.748 54.1578 186.128 54.1578 186.128" stroke="#263238" stroke-miterlimit="10" stroke-linecap="round" stroke-linejoin="round"/>
<path d="M58.2836 194.931C58.2836 194.931 54.7076 192.73 52.5066 187.778C50.3056 182.826 47.8296 175.948 47.8296 172.097C47.8296 168.246 50.0306 169.621 50.8556 172.372C51.6806 175.123 54.4316 181.726 55.5326 183.101C56.6326 184.477 60.4846 189.979 60.4846 189.979" fill="white"/>
<path d="M58.2836 194.931C58.2836 194.931 54.7076 192.73 52.5066 187.778C50.3056 182.826 47.8296 175.948 47.8296 172.097C47.8296 168.246 50.0306 169.621 50.8556 172.372C51.6806 175.123 54.4316 181.726 55.5326 183.101C56.6326 184.477 60.4846 189.979 60.4846 189.979" stroke="#263238" stroke-miterlimit="10" stroke-linecap="round" stroke-linejoin="round"/>
<path d="M79.4678 197.682C79.1928 196.857 75.6158 191.079 74.5158 190.804C73.4158 190.529 65.9878 192.455 65.9878 192.455L61.0358 188.603C61.0358 188.603 60.7608 180.35 60.7608 177.324C60.7608 174.298 56.6338 181.726 56.3588 186.678C56.0838 191.63 59.9348 196.857 59.9348 196.857C59.9348 196.857 64.3368 197.682 65.1618 197.957C65.9868 198.232 75.2908 204.114 75.2908 204.114" fill="white"/>
<path d="M79.4678 197.682C79.1928 196.857 75.6158 191.079 74.5158 190.804C73.4158 190.529 65.9878 192.455 65.9878 192.455L61.0358 188.603C61.0358 188.603 60.7608 180.35 60.7608 177.324C60.7608 174.298 56.6338 181.726 56.3588 186.678C56.0838 191.63 59.9348 196.857 59.9348 196.857C59.9348 196.857 64.3368 197.682 65.1618 197.957C65.9868 198.232 75.2908 204.114 75.2908 204.114" stroke="#263238" stroke-miterlimit="10" stroke-linecap="round" stroke-linejoin="round"/>
<path d="M125.457 167.348L122.021 268.026L136.796 267.682L133.36 168.722L125.457 167.348Z" fill="white" stroke="#263238" stroke-miterlimit="10" stroke-linecap="round" stroke-linejoin="round"/>
<path d="M125.458 167.348L132.331 275.929L153.634 275.585L139.546 168.379L125.458 167.348Z" fill="white" stroke="#263238" stroke-miterlimit="10" stroke-linecap="round" stroke-linejoin="round"/>
<path d="M170.298 172.33L170.432 174.27L181.122 329.016L209.481 327.164L201.739 255.311C201.739 255.311 196.982 177.207 195.436 176.176C193.89 175.145 170.299 169.752 170.299 169.752V172.33H170.298Z" fill="#0D6EFD" stroke="#263238" stroke-miterlimit="10" stroke-linecap="round" stroke-linejoin="round"/>
<path d="M128.893 147.418C128.893 147.418 163.942 154.29 167.035 154.29C170.128 154.29 172.188 156.352 171.501 158.757C170.814 161.162 170.471 163.224 170.471 164.598C170.471 165.972 174.251 171.47 171.158 174.219C168.065 176.968 135.765 171.814 131.298 171.47C126.831 171.126 122.708 170.783 122.708 168.378C122.708 165.973 127.863 161.849 127.863 160.131C127.864 158.414 123.739 153.26 128.893 147.418Z" fill="white" stroke="#263238" stroke-miterlimit="10" stroke-linecap="round" stroke-linejoin="round"/>
</g>
</svg>
