<svg width="281" height="181" viewBox="0 0 281 181" fill="none" xmlns="http://www.w3.org/2000/svg" style="width: 100%; height: 100%;">
<g clip-path="url(#clip0_35_2983)">
<path d="M257.697 69.744C264.524 68.781 270.332 62.842 271.143 55.995C270.564 61.891 274.219 67.956 279.703 70.199C276.895 70.358 274.41 72.293 272.971 74.709C271.532 77.125 270.995 79.97 270.731 82.769C270.581 75.829 264.382 69.571 257.698 69.744H257.697Z" stroke="#010101" stroke-width="1.5" stroke-linecap="round" stroke-linejoin="round"></path>
<path d="M13.02 88.2C19.847 87.237 25.655 81.298 26.466 74.451C25.887 80.347 29.542 86.412 35.026 88.655C32.218 88.814 29.733 90.749 28.294 93.165C26.855 95.581 26.318 98.426 26.054 101.225C25.904 94.285 19.704 88.027 13.02 88.2Z" stroke="#010101" stroke-width="1.5" stroke-linecap="round" stroke-linejoin="round"></path>
<path d="M97.96 179.115C90.274 165.788 90.915 164.253 83.229 150.927C77.849 141.597 71.882 131.717 61.218 126.369C55.465 123.484 47.582 122.364 42.604 125.879C30.99 134.081 41.056 155.766 52.759 179.087C70.543 179.653 76.889 179.115 97.96 179.115Z" fill="#55D087" stroke="#010101" stroke-width="1.5" stroke-linecap="round" stroke-linejoin="round"></path>
<path d="M50.5941 130.349C57.1131 150.623 62.4181 159.542 71.7131 179.115" stroke="#010101" stroke-width="1.5" stroke-linecap="round" stroke-linejoin="round"></path>
<path d="M57.127 179.115C43.953 159.134 35.619 146.252 17.662 140.664C14.142 139.569 10.095 139.07 6.81703 140.452C3.10903 142.015 0.242028 145.592 0.826027 149.083C3.06603 162.472 11.03 169.858 15.996 179.522C32.02 179.605 45.008 179.052 57.127 179.115Z" fill="#55D087" stroke="#010101" stroke-width="1.5" stroke-linecap="round" stroke-linejoin="round"></path>
<path d="M11.161 142.662C20.302 158.545 22.49 163.694 34.182 178.418" stroke="#010101" stroke-width="1.5" stroke-linecap="round" stroke-linejoin="round"></path>
<path d="M208.817 149.875C160.031 150.413 114.817 150.582 82.796 150.582C74.914 150.582 71.025 145.712 71.025 136.777C71.025 113.793 70.954 79.449 71.271 51.112C71.309 47.691 71.763 42.881 73.806 40.138C76.341 36.735 81.656 33.877 86.524 33.877C135.972 34.263 168.188 33.987 212.695 33.987C218.541 34.328 222.186 35.183 224.457 40.138C226.127 43.783 225.463 48.88 225.463 51.509C225.463 67.31 225.758 113.61 225.758 132.336C225.758 145.383 219.736 149.308 208.817 149.875Z" fill="#0d6efd" stroke="#010101" stroke-width="1.5" stroke-linecap="round" stroke-linejoin="round"></path>
<path d="M171.846 172.458C171.846 164.438 171.873 158.677 171.873 150.582C156.326 150.582 145.851 150.468 131.593 150.468C131.131 158.296 131.397 164.314 131.397 172.095C148.856 172.687 161.121 172.998 171.846 172.458Z" fill="#0d6efd" stroke="#010101" stroke-width="1.5" stroke-linecap="round" stroke-linejoin="round"></path>
<path d="M177.053 171.804C159.211 172.264 143.739 171.67 127.121 172.098C126.372 172.235 125.622 172.412 124.941 172.751C124.26 173.09 123.646 173.606 123.304 174.286C123.075 174.743 122.976 175.255 122.935 175.765C122.908 176.098 122.905 176.438 122.996 176.76C123.221 177.559 123.997 178.104 124.805 178.295C125.755 178.519 156.001 179.202 176.741 178.236C177.589 178.196 178.518 178.067 179.095 177.444C179.441 177.07 179.601 176.562 179.694 176.061C180.032 174.226 179.325 172.003 177.055 171.804H177.053Z" fill="#0d6efd" stroke="#010101" stroke-width="1.5" stroke-linecap="round" stroke-linejoin="round"></path>
<path d="M208.693 134.793C165.587 135.268 114.757 135.571 86.4651 135.537C84.9951 135.535 77.3711 135.954 77.3711 128.059C77.3711 107.751 77.3081 80.426 77.5881 55.388C77.6221 52.366 77.6661 49.281 78.6621 46.427C79.6581 43.573 82.2591 40.16 86.5591 40.16C130.249 40.501 168.691 40.138 208.016 40.138C213.181 40.439 216.402 41.195 218.408 45.573C219.883 48.793 219.297 53.297 219.297 55.62C219.297 69.582 219.758 105.386 219.557 123.925C219.492 129.903 214.671 134.727 208.693 134.793Z" fill="white" stroke="#010101" stroke-width="1.5" stroke-linecap="round" stroke-linejoin="round"></path>
<path d="M153.171 119.646C153.171 104.101 154.202 79.244 154.202 56.022C132.209 56.661 111.551 56.19 89.177 56.48C89.176 56.48 89.175 56.48 89.175 56.482C88.788 77.286 89.599 101.105 89.599 119.483C89.599 119.487 89.602 119.49 89.606 119.49C112.825 119.16 131.336 119.086 153.171 119.646Z" fill="#E3E3FF" stroke="#010101" stroke-width="1.5" stroke-linecap="round" stroke-linejoin="round"></path>
<path d="M93.5391 78.319C98.2291 71.796 106.636 66.897 113.696 64.556C113.673 68.437 117.094 71.663 120.836 72.695C122.96 73.281 125.343 73.292 127.255 72.196C129.888 70.687 131.018 67.53 131.651 65.256C138.633 65.004 144.905 69.162 149.716 73.41C148.072 76.511 146.837 79.827 146.053 83.248C143.577 82.295 141.033 81.319 138.234 81.319C137.616 88.544 137.526 103.466 137.402 110.683C127.412 110.56 117.158 111.229 107.168 111.107C107.34 104.241 107.52 88.923 106.849 81.611C104.661 83.212 102.474 84.814 100.286 86.415C98.1591 84.439 96.6081 81.85 93.5401 78.318L93.5391 78.319Z" fill="white" stroke="#010101" stroke-width="1.5" stroke-linecap="round" stroke-linejoin="round"></path>
<path d="M161.93 69.871C176.752 69.708 191.574 69.546 206.397 69.383L161.93 69.871Z" fill="#010101"></path>
<path d="M161.93 69.871C176.752 69.708 191.574 69.546 206.397 69.383" stroke="#010101" stroke-width="1.5" stroke-linecap="round" stroke-linejoin="round"></path>
<path d="M159.57 24.34C160.967 22.742 162.934 21.78 164.851 20.87C180.421 13.482 196.347 6.84501 212.555 0.989006C212.975 0.837006 213.424 0.684006 213.86 0.781006C214.609 0.948006 215 1.75601 215.284 2.46901C218.525 10.603 221.687 18.767 224.77 26.962C225.007 27.592 225.245 28.294 224.998 28.921C224.737 29.585 224.025 29.936 223.374 30.227C209.657 36.344 200.187 41.391 185.166 48.089C181.823 49.58 179.047 50.457 175.428 51.008C171.299 51.637 160.266 49.933 153.384 48.731C150.454 48.219 148.849 45.035 150.174 42.372C153.444 35.798 158.718 25.314 159.568 24.341L159.57 24.34Z" fill="#ffffff" stroke="#010101" stroke-width="1.5" stroke-linecap="round" stroke-linejoin="round"></path>
<path d="M155.669 46.074C153.666 46.268 153.391 44.88 153.318 44.368C153.2 43.53 153.553 42.632 154.235 42.132C154.917 41.632 155.905 41.57 156.624 42.017C157.343 42.464 157.726 43.405 157.487 44.217C157.288 44.894 156.969 45.932 155.669 46.074Z" fill="#010101" stroke="#010101" stroke-width="1.5" stroke-linecap="round" stroke-linejoin="round"></path>
<path d="M154.635 44.04C151.995 45.827 149.341 47.668 147.263 50.085C145.185 52.502 143.713 55.595 143.865 58.779C144.012 61.85 145.613 64.636 147.171 67.286" stroke="#010101" stroke-width="1.5" stroke-linecap="round" stroke-linejoin="round"></path>
<path d="M184.062 40.493C183.151 33.673 182.843 26.774 183.141 19.9C187.117 25.077 191.024 31.117 195.081 36.399" stroke="#010101" stroke-width="1.5" stroke-linecap="round" stroke-linejoin="round"></path>
<path d="M183.62 32.564C185.841 31.612 187.577 31.017 190.249 29.77" stroke="#010101" stroke-width="1.5" stroke-linecap="round" stroke-linejoin="round"></path>
<path d="M192.364 16.536C194.775 22.203 197.062 27.923 199.223 33.69C201.849 32.679 204.414 31.509 206.899 30.188" stroke="#010101" stroke-width="1.5" stroke-linecap="round" stroke-linejoin="round"></path>
<path d="M216.151 26.235C214.344 27.172 212.496 28.031 210.615 28.808C208.252 23.112 205.888 17.416 203.499 11.367C205.717 10.303 207.984 9.34101 210.29 8.48401" stroke="#010101" stroke-width="1.5" stroke-linecap="round" stroke-linejoin="round"></path>
<path d="M207.355 19.352C208.991 18.731 210.589 18.009 212.137 17.193" stroke="#010101" stroke-width="1.5" stroke-linecap="round" stroke-linejoin="round"></path>
<path d="M172.538 25.055C170.304 25.003 168.105 25.672 166.797 27.731C165.489 29.79 165.775 32.956 167.873 34.2C170.356 35.672 173.625 33.866 176.388 34.7C177.886 35.152 179.108 36.422 179.503 37.936C179.898 39.45 179.451 41.155 178.365 42.281C177.487 43.191 176.272 43.7 175.055 44.041C173.718 44.416 170.593 43.965 169.793 42.83" stroke="#010101" stroke-width="1.5" stroke-linecap="round" stroke-linejoin="round"></path>
<path d="M204.707 145.367C204.177 141.532 205.365 137.603 207.173 134.179C210.313 128.232 216.19 123.572 222.869 122.782C225.78 122.438 228.754 122.815 231.553 123.687C238.166 125.747 243.834 130.663 246.814 136.916C250.263 144.154 247.57 148.713 246.585 150.795C243.976 156.311 239.231 161.879 232.816 163.502C224.759 165.54 207.423 165.01 204.707 145.366V145.367Z" fill="#E3E3FF" stroke="#010101" stroke-width="1.5" stroke-linecap="round" stroke-linejoin="round"></path>
<path d="M233.586 131.943C229.42 139.81 224.713 147.391 219.511 154.615L233.586 131.943Z" fill="white"></path>
<path d="M233.586 131.943C229.42 139.81 224.713 147.391 219.511 154.615" stroke="#010101" stroke-width="1.5" stroke-linecap="round" stroke-linejoin="round"></path>
<path d="M219.136 132.052C217.538 131.663 215.735 132.335 214.781 133.674C213.993 134.781 213.796 136.255 214.141 137.569C214.586 139.263 215.936 140.701 217.612 141.206C219.288 141.711 221.233 141.243 222.462 139.996C223.691 138.749 224.128 136.768 223.493 135.136C222.858 133.504 221.127 132.537 219.135 132.052H219.136Z" stroke="#010101" stroke-width="1.5" stroke-linecap="round" stroke-linejoin="round"></path>
<path d="M234.201 144.969C232.603 144.58 230.8 145.252 229.846 146.591C229.058 147.698 228.861 149.172 229.206 150.486C229.651 152.18 231.001 153.618 232.677 154.123C234.353 154.628 236.298 154.16 237.527 152.913C238.756 151.666 239.193 149.685 238.558 148.053C237.923 146.421 236.192 145.454 234.2 144.969H234.201Z" stroke="#010101" stroke-width="1.5" stroke-linecap="round" stroke-linejoin="round"></path>
<path d="M173.455 95.498C171.908 95.759 170.33 96.057 168.972 96.842C167.614 97.627 166.496 99.002 166.439 100.57C166.37 102.471 167.885 104.14 169.643 104.865C171.401 105.59 173.365 105.574 175.267 105.548C181.183 105.465 187.1 105.381 193.016 105.298C194.992 105.27 197.019 105.232 198.854 104.5C200.689 103.768 202.318 102.178 202.506 100.211C202.724 97.926 200.755 95.495 197.745 95.224C195.459 95.018 181.045 94.216 173.455 95.498Z" fill="#0d6efd" stroke="#010101" stroke-width="1.5" stroke-linecap="round" stroke-linejoin="round"></path>
<path d="M147.874 104.972L142.763 108.935C144.159 110.827 145.692 112.552 147.127 114.355C146.068 115.219 145.008 116.083 143.949 116.947C142.41 114.881 139.918 111.652 139.918 111.652L134.244 115.699L127.078 94.169C127.078 94.169 140.751 101.325 147.875 104.973L147.874 104.972Z" fill="#010101" stroke="#010101" stroke-width="1.5" stroke-linecap="round" stroke-linejoin="round"></path>
<path d="M168.834 81.188C180.186 80.887 191.538 80.587 202.89 80.286" stroke="#010101" stroke-width="1.5" stroke-linecap="round" stroke-linejoin="round"></path>
<path d="M96.577 179.116C111.314 178.424 142.317 178.646 162.735 178.646C192.204 178.646 192.749 178.396 206.396 178.396" stroke="#010101" stroke-width="1.5" stroke-linecap="round" stroke-linejoin="round"></path>
<path d="M216.701 178.297C219.706 178.176 222.711 178.055 225.716 177.934" stroke="#010101" stroke-width="1.5" stroke-linecap="round" stroke-linejoin="round"></path>
</g>
<defs>
<clipPath id="clip0_35_2983">
<rect width="280.452" height="180.281" fill="white"></rect>
</clipPath>
</defs>
</svg>