<svg width="500" height="500" viewBox="0 0 500 500" fill="none" xmlns="http://www.w3.org/2000/svg">
<path opacity="0.7" d="M67.9308 167.086C67.9308 167.086 40.0538 239.074 79.2278 311.589C118.402 384.105 199.107 422.391 263.697 455.137C328.287 487.883 395.358 471.936 427.231 418.299C459.104 364.662 415.386 326.371 415.334 249.881C415.283 173.391 426.781 153.139 385.371 88.5169C343.961 23.8939 242.312 9.59194 165.471 57.5209C88.6308 105.45 67.9308 167.086 67.9308 167.086Z" fill="white"/>
<path d="M110.014 112.469C123.463 96.3909 141.649 83.9469 163.326 84.2139C200.316 84.6689 220.311 117.416 241.548 142.682C252.561 155.784 265.035 168.424 281.376 174.577C305.893 183.809 333.19 178.418 357.073 169.849C367.771 166.011 380.445 160.613 392.493 163.369C429.124 171.749 425.307 216.455 419.256 244.758C411.086 282.973 397.81 323.662 370.897 353.026C306.472 423.318 190.518 380.228 132.403 324.138C128.131 320.015 124.038 315.707 120.19 311.185C110.237 299.488 101.694 286.585 95.029 272.74C76.282 233.795 73.704 186.448 89.947 146.199C94.668 134.501 101.502 122.645 110.014 112.469Z" fill="#0D6EFD"/>
<path opacity="0.7" d="M110.014 112.469C123.463 96.3909 141.649 83.9469 163.326 84.2139C200.316 84.6689 220.311 117.416 241.548 142.682C252.561 155.784 265.035 168.424 281.376 174.577C305.893 183.809 333.19 178.418 357.073 169.849C367.771 166.011 380.445 160.613 392.493 163.369C429.124 171.749 425.307 216.455 419.256 244.758C411.086 282.973 397.81 323.662 370.897 353.026C306.472 423.318 190.518 380.228 132.403 324.138C128.131 320.015 124.038 315.707 120.19 311.185C110.237 299.488 101.694 286.585 95.029 272.74C76.282 233.795 73.704 186.448 89.947 146.199C94.668 134.501 101.502 122.645 110.014 112.469Z" fill="white"/>
<path d="M54.0449 443.428H445.955" stroke="black" stroke-miterlimit="10" stroke-linecap="round" stroke-linejoin="round"/>
<path d="M291.973 240.798V93.66H301.081" stroke="black" stroke-miterlimit="10" stroke-linecap="round" stroke-linejoin="round"/>
<path d="M291.973 258.314V254.406" stroke="black" stroke-miterlimit="10" stroke-linecap="round" stroke-linejoin="round"/>
<path d="M324.513 93.66H418.518V272.027H291.973" stroke="black" stroke-miterlimit="10" stroke-linecap="round" stroke-linejoin="round"/>
<path d="M312.987 93.66H321.247" stroke="black" stroke-miterlimit="10" stroke-linecap="round" stroke-linejoin="round"/>
<path d="M413.76 98.4091H296.732V267.279H413.76V98.4091Z" stroke="black" stroke-miterlimit="10" stroke-linecap="round" stroke-linejoin="round"/>
<path d="M408.317 107.454V177.577H302.174V173.003" stroke="black" stroke-miterlimit="10" stroke-linecap="round" stroke-linejoin="round"/>
<path d="M302.174 162.281V103.388H408.317" stroke="black" stroke-miterlimit="10" stroke-linecap="round" stroke-linejoin="round"/>
<path d="M302.174 169.487V165.041" stroke="black" stroke-miterlimit="10" stroke-linecap="round" stroke-linejoin="round"/>
<path d="M390.394 182.844H413.76" stroke="black" stroke-miterlimit="10" stroke-linecap="round" stroke-linejoin="round"/>
<path d="M382.084 182.844H385.39" stroke="black" stroke-miterlimit="10" stroke-linecap="round" stroke-linejoin="round"/>
<path d="M296.732 182.844H378.136" stroke="black" stroke-miterlimit="10" stroke-linecap="round" stroke-linejoin="round"/>
<path d="M349.364 177.577V175.163H359.15V176.536H355.246V177.577" stroke="black" stroke-miterlimit="10" stroke-linecap="round" stroke-linejoin="round"/>
<path d="M296.934 246.035C296.934 246.035 298.556 247.263 299.697 254.698C299.697 254.698 301.662 242.825 304.044 242.639C306.426 242.453 305.94 250.365 305.94 250.365C305.94 250.365 306.337 246.467 308.204 246.647C310.071 246.827 308.204 254.698 308.204 254.698C308.204 254.698 310.441 248.563 312.564 248.667C314.687 248.771 311.155 259.786 311.155 259.786C311.155 259.786 316.596 255.847 318.8 257.776C321.004 259.705 317.575 264.564 317.575 264.564C317.575 264.564 325.377 262.873 326.592 267.45" stroke="black" stroke-miterlimit="10" stroke-linecap="round" stroke-linejoin="round"/>
<path d="M326.593 263.013C326.593 263.013 329.995 260.785 332.667 261.824C332.667 261.824 330.966 259.231 332.667 257.645C334.368 256.06 336.554 261.824 336.554 261.824C336.554 261.824 336.797 252.173 340.199 252.659C343.6 253.145 340.199 261.824 340.199 261.824C340.199 261.824 346.273 256.439 347.731 258.315C349.189 260.191 346.759 263.013 346.759 263.013C346.759 263.013 350.402 261.849 353.075 264.564C353.075 264.564 357.148 260.41 361.672 259.814C361.672 259.814 358.664 251.079 360.122 249.317C361.58 247.556 364.229 256.94 364.229 256.94C364.229 256.94 365.385 250.836 369.186 250.364C369.186 250.364 366.023 248.643 366.96 246.034C367.897 243.425 372.271 246.646 372.271 246.646C372.271 246.646 370.475 242.057 373.317 240.797C376.158 239.537 377.346 244.638 377.346 244.638C377.346 244.638 378.138 239.294 381.48 239.588C384.795 239.88 383.738 246.033 383.738 246.033C383.738 246.033 386.89 241.144 388.578 241.642C391.951 242.637 390.927 250.363 390.927 250.363C390.927 250.363 395.635 247.091 396.847 248.598C398.155 250.223 391.951 254.404 391.951 254.404C391.951 254.404 396.621 254.923 399.528 257.643" stroke="black" stroke-miterlimit="10" stroke-linecap="round" stroke-linejoin="round"/>
<path d="M413.76 247.799C413.76 247.799 413.222 242.897 408.317 242.639C403.412 242.381 409.665 253.389 409.665 253.389C409.665 253.389 405.623 250.044 404.17 251.073C402.717 252.102 408.317 257.775 408.317 257.775C408.317 257.775 405.63 255.29 402.795 256.059C399.96 256.829 404.413 264.719 404.413 264.719C404.413 264.719 398.51 263.174 391.95 266.176" stroke="black" stroke-miterlimit="10" stroke-linecap="round" stroke-linejoin="round"/>
<path d="M246.69 399.647V443.173" stroke="black" stroke-miterlimit="10" stroke-linecap="round" stroke-linejoin="round"/>
<path d="M246.69 385.405V394.732" stroke="black" stroke-miterlimit="10" stroke-linecap="round" stroke-linejoin="round"/>
<path d="M63.4902 443.428V362.328H246.69V380.131" stroke="black" stroke-miterlimit="10" stroke-linecap="round" stroke-linejoin="round"/>
<path d="M90.1802 371.196H74.2842V435.994" stroke="black" stroke-miterlimit="10" stroke-linecap="round" stroke-linejoin="round"/>
<path d="M235.896 443.173V371.196H99.4111" stroke="black" stroke-miterlimit="10" stroke-linecap="round" stroke-linejoin="round"/>
<path d="M228.28 353.931H223.229" stroke="black" stroke-miterlimit="10" stroke-linecap="round" stroke-linejoin="round"/>
<path d="M215.982 353.931H58.936V362.269H251.244V353.931H231.5" stroke="black" stroke-miterlimit="10" stroke-linecap="round" stroke-linejoin="round"/>
<path d="M69.7651 300.49C69.7651 300.49 84.8181 301.678 85.4461 312.784C85.4461 312.784 70.2031 319.802 69.7651 300.49Z" stroke="black" stroke-miterlimit="10" stroke-linecap="round" stroke-linejoin="round"/>
<path d="M99.543 303.247C99.543 303.247 107.953 291.878 121.54 297.708C121.54 297.708 113.243 311.454 99.543 303.247Z" stroke="black" stroke-miterlimit="10" stroke-linecap="round" stroke-linejoin="round"/>
<path d="M120.389 267.351C120.389 267.351 122.807 289.225 102.897 283.201C102.897 283.201 109.219 267.121 120.389 267.351Z" stroke="black" stroke-miterlimit="10" stroke-linecap="round" stroke-linejoin="round"/>
<path d="M95.9432 255.175C95.9432 255.175 111.689 263.666 100.111 276.551C100.111 276.551 89.0682 267.348 95.9432 255.175Z" stroke="black" stroke-miterlimit="10" stroke-linecap="round" stroke-linejoin="round"/>
<path d="M76.5693 274.72C76.5693 274.72 93.6893 272.993 93.6893 288.841C93.6893 288.841 76.5693 289.516 76.5693 274.72Z" stroke="black" stroke-miterlimit="10" stroke-linecap="round" stroke-linejoin="round"/>
<path d="M89.3993 321.731C89.1503 316.415 89.1523 309.574 92.4003 302.343C99.8923 285.66 102.426 271.612 98.5103 261.709" stroke="black" stroke-miterlimit="10" stroke-linecap="round" stroke-linejoin="round"/>
<path d="M82.1934 278.981C82.1934 278.981 92.4554 283.058 95.9434 293.629" stroke="black" stroke-miterlimit="10" stroke-linecap="round" stroke-linejoin="round"/>
<path d="M114.977 276.102C114.977 276.102 109.047 284.18 99 283.308" stroke="black" stroke-miterlimit="10" stroke-linecap="round" stroke-linejoin="round"/>
<path d="M114.977 300.032C114.977 300.032 98.5534 304.764 92.0264 303.215" stroke="black" stroke-miterlimit="10" stroke-linecap="round" stroke-linejoin="round"/>
<path d="M74.6743 305.491C74.6743 305.491 82.0153 313.549 89.3993 313.423" stroke="black" stroke-miterlimit="10" stroke-linecap="round" stroke-linejoin="round"/>
<path d="M108.926 321.731H73.2352C72.7552 321.731 72.3662 322.12 72.3662 322.6V325.306C72.3662 325.786 72.7552 326.175 73.2352 326.175H74.2772L77.4582 353.931H104.704L107.884 326.175H108.926C109.406 326.175 109.795 325.786 109.795 325.306V322.6C109.795 322.12 109.406 321.731 108.926 321.731Z" stroke="black" stroke-miterlimit="10"/>
<path d="M76.5693 326.175H97.3273" stroke="black" stroke-miterlimit="10" stroke-linecap="round" stroke-linejoin="round"/>
<path d="M101.242 326.175H104.362" stroke="black" stroke-miterlimit="10" stroke-linecap="round" stroke-linejoin="round"/>
<path d="M133.406 443.428C133.406 443.428 131.697 436.902 133.695 434.484C137.284 430.142 133.257 426.501 136.859 424.992L138.368 426.744C138.661 424.965 137.821 419.563 144.502 418.858C152.578 418.006 152.731 423.884 153.167 425.819L153.034 423.114C156.477 423.114 154.693 426.552 159.914 432.175C163.899 436.466 163.907 441.969 163.687 443.428H133.406Z" fill="black"/>
<path d="M195.017 443.428C191.768 441.975 194.753 429.724 194.753 429.724C194.753 429.724 190.38 426.788 194.75 423.746C194.75 423.746 199.639 428.497 207.16 425.762C207.16 425.762 208.015 417.558 213.142 418.613C213.142 418.613 214.458 423.811 217.465 426.777C225.62 434.821 236.152 435.741 237.914 439.619C238.441 440.779 237.802 443.428 237.802 443.428H195.017Z" fill="black"/>
<path d="M181.112 247.912L185.121 256.386C185.121 256.386 201.656 290.572 211.791 329.712C212.031 330.638 217.273 349.182 213.07 395.348L215.466 403.449L212.85 416.829C212.85 416.829 216.785 422.521 216.645 424.378C216.645 424.378 206.928 426.193 203.69 427.933C201.165 429.29 193.597 436.764 193.597 436.764C191.451 436.321 191.263 427.637 191.263 427.637C191.263 427.637 186.766 350.572 185.483 347.248C184.2 343.924 176.305 329.61 164.009 296.843C164.009 296.843 163.731 342.615 160.446 354.19C157.523 364.49 160.984 393.321 160.984 393.321L159.011 425.413C159.011 425.413 165.927 432.601 160.316 434.528C160.316 434.528 156.569 427.316 145.889 425.677C140.461 424.844 133.693 434.484 133.693 434.484C131.322 433.724 134.704 421.614 134.704 421.614C127.134 364.49 132.723 374.83 131.21 346.91C130.239 328.994 125.153 252.329 131.119 246.1L181.112 247.912Z" fill="#BFBFBF"/>
<mask id="mask0_205_1032" style="mask-type:luminance" maskUnits="userSpaceOnUse" x="128" y="246" width="89" height="191">
<path d="M181.112 247.912L185.121 256.386C185.121 256.386 201.656 290.572 211.791 329.712C212.031 330.638 217.273 349.182 213.07 395.348L215.466 403.449L212.85 416.829C212.85 416.829 216.785 422.521 216.645 424.378C216.645 424.378 206.928 426.193 203.69 427.933C201.165 429.29 193.597 436.764 193.597 436.764C191.451 436.321 191.263 427.637 191.263 427.637C191.263 427.637 186.766 350.572 185.483 347.248C184.2 343.924 176.305 329.61 164.009 296.843C164.009 296.843 163.731 342.615 160.446 354.19C157.523 364.49 160.984 393.321 160.984 393.321L159.011 425.413C159.011 425.413 165.927 432.601 160.316 434.528C160.316 434.528 156.569 427.316 145.889 425.677C140.461 424.844 133.693 434.484 133.693 434.484C131.322 433.724 134.704 421.614 134.704 421.614C127.134 364.49 132.723 374.83 131.21 346.91C130.239 328.994 125.153 252.329 131.119 246.1L181.112 247.912Z" fill="white"/>
</mask>
<g mask="url(#mask0_205_1032)">
<path opacity="0.2" d="M128.263 274.306C154.996 276.412 178.154 267.664 188.195 263.092C186.292 258.806 185.119 256.386 185.119 256.386L181.11 247.915L131.117 246.104C128.965 248.349 128.253 259.776 128.263 274.306Z" fill="black"/>
</g>
<mask id="mask1_205_1032" style="mask-type:luminance" maskUnits="userSpaceOnUse" x="128" y="246" width="89" height="191">
<path d="M181.112 247.912L185.121 256.386C185.121 256.386 201.656 290.572 211.791 329.712C212.031 330.638 217.273 349.182 213.07 395.348L215.466 403.449L212.85 416.829C212.85 416.829 216.785 422.521 216.645 424.378C216.645 424.378 206.928 426.193 203.69 427.933C201.165 429.29 193.597 436.764 193.597 436.764C191.451 436.321 191.263 427.637 191.263 427.637C191.263 427.637 186.766 350.572 185.483 347.248C184.2 343.924 176.305 329.61 164.009 296.843C164.009 296.843 163.731 342.615 160.446 354.19C157.523 364.49 160.984 393.321 160.984 393.321L159.011 425.413C159.011 425.413 165.927 432.601 160.316 434.528C160.316 434.528 156.569 427.316 145.889 425.677C140.461 424.844 133.693 434.484 133.693 434.484C131.322 433.724 134.704 421.614 134.704 421.614C127.134 364.49 132.723 374.83 131.21 346.91C130.239 328.994 125.153 252.329 131.119 246.1L181.112 247.912Z" fill="white"/>
</mask>
<g mask="url(#mask1_205_1032)">
<path opacity="0.2" d="M164.233 297.428C176.399 329.777 184.213 343.938 185.488 347.245C186.218 349.157 188.01 375.327 189.405 397.293C191.012 377.313 192.656 356.223 192.804 352.085C193.1 343.855 187.151 332.557 186.255 329.638C185.359 326.728 187.382 323.56 187.382 323.56L176.676 310.064C177.036 305.482 171.374 285.492 171.374 285.492C168.002 288.68 165.037 295.469 164.233 297.428Z" fill="black"/>
</g>
<path d="M181.112 247.912L185.121 256.386C185.121 256.386 201.656 290.572 211.791 329.712C212.031 330.638 217.273 349.182 213.07 395.348L215.466 403.449L212.85 416.829C212.85 416.829 216.785 422.521 216.645 424.378C216.645 424.378 206.928 426.193 203.69 427.933C201.165 429.29 193.597 436.764 193.597 436.764C191.451 436.321 191.263 427.637 191.263 427.637C191.263 427.637 186.766 350.572 185.483 347.248C184.2 343.924 176.305 329.61 164.009 296.843C164.009 296.843 163.731 342.615 160.446 354.19C157.523 364.49 160.984 393.321 160.984 393.321L159.011 425.413C159.011 425.413 165.927 432.601 160.316 434.528C160.316 434.528 156.569 427.316 145.889 425.677C140.461 424.844 133.693 434.484 133.693 434.484C131.322 433.724 134.704 421.614 134.704 421.614C127.134 364.49 132.723 374.83 131.21 346.91C130.239 328.994 125.153 252.329 131.119 246.1L181.112 247.912Z" stroke="black" stroke-miterlimit="10" stroke-linecap="round" stroke-linejoin="round"/>
<path d="M164.01 296.842C164.01 296.842 170.121 285.047 175.333 281.758" stroke="black" stroke-miterlimit="10" stroke-linecap="round" stroke-linejoin="round"/>
<path d="M177.623 277.94C177.623 277.94 159.061 283.585 152.628 284.682" stroke="black" stroke-miterlimit="10" stroke-linecap="round" stroke-linejoin="round"/>
<path d="M168.122 258.996C168.922 274.449 174.374 277.081 169.103 280.452C169.103 280.452 169.248 287.68 166.629 292.261" stroke="black" stroke-miterlimit="10" stroke-linecap="round" stroke-linejoin="round"/>
<path d="M135.598 253.094C135.598 253.094 137.791 276.844 130.482 281.311" stroke="black" stroke-miterlimit="10" stroke-linecap="round" stroke-linejoin="round"/>
<path d="M130.482 260.746C130.482 260.746 129.934 276.561 130.482 289.301C130.482 289.301 132.309 343.152 134.136 349.913C135.963 356.674 131.321 366.878 131.724 396.127" stroke="black" stroke-miterlimit="10" stroke-linecap="round" stroke-linejoin="round"/>
<path d="M148.022 419.026C146.291 418.699 144.466 418.847 142.906 419.71" stroke="black" stroke-miterlimit="10" stroke-linecap="round" stroke-linejoin="round"/>
<path d="M159.013 425.413C156.721 423.227 154.049 421.303 151.148 420.018" stroke="black" stroke-miterlimit="10" stroke-linecap="round" stroke-linejoin="round"/>
<path d="M155.955 300.573C151.855 305.165 145.363 313.837 138.704 314.569" stroke="black" stroke-miterlimit="10" stroke-linecap="round" stroke-linejoin="round"/>
<path d="M162.275 293.087C161.014 294.68 159.713 296.242 158.392 297.785" stroke="black" stroke-miterlimit="10" stroke-linecap="round" stroke-linejoin="round"/>
<path d="M156.428 346.91C156.428 346.91 147.109 359.596 141.993 360.327" stroke="black" stroke-miterlimit="10" stroke-linecap="round" stroke-linejoin="round"/>
<path d="M167.391 294.549C167.391 294.549 183.987 340.777 189.758 345.345C189.758 345.345 190.413 379.331 190.596 391.207C190.779 403.084 193.52 418.864 193.52 418.864" stroke="black" stroke-miterlimit="10" stroke-linecap="round" stroke-linejoin="round"/>
<path d="M211.243 418.52C211.243 418.52 204.848 420.729 201.742 422.139C198.636 423.548 197.539 426.655 197.539 426.655" stroke="black" stroke-miterlimit="10" stroke-linecap="round" stroke-linejoin="round"/>
<path d="M195.072 328.674C186.157 323.078 174.408 316.092 169.673 306.242" stroke="black" stroke-miterlimit="10" stroke-linecap="round" stroke-linejoin="round"/>
<path d="M202.838 333.285C201.153 332.353 199.492 331.377 197.844 330.382" stroke="black" stroke-miterlimit="10" stroke-linecap="round" stroke-linejoin="round"/>
<path d="M174.761 265.246C169.967 265.176 164.72 264.546 160.63 261.842" stroke="black" stroke-miterlimit="10" stroke-linecap="round" stroke-linejoin="round"/>
<path d="M182.374 264.799C181.003 264.993 179.62 265.109 178.237 265.18" stroke="black" stroke-miterlimit="10" stroke-linecap="round" stroke-linejoin="round"/>
<path d="M191.26 158.638C187.599 153.102 168.947 151.686 156.98 151.686C145.013 151.686 130.482 149.667 123.916 163.187C118.908 173.499 130.441 228.02 130.441 228.02L127.616 251.558C149.3 258.361 186.442 256.856 186.442 256.856L181.442 235.577C181.442 235.577 194.92 164.175 191.26 158.638Z" fill="black"/>
<path d="M149.874 137.998C149.874 137.998 151.48 150.829 146.599 153.597C146.599 153.597 149.04 163.008 157.581 163.591C166.123 164.174 169.94 154.967 169.94 154.967L149.874 137.998Z" fill="white" stroke="black" stroke-miterlimit="10" stroke-linecap="round" stroke-linejoin="round"/>
<path d="M220.632 120.345L195.027 122.708L193.584 107.074C193.488 106.039 194.25 105.123 195.285 105.027L217.143 103.01C218.178 102.914 219.094 103.676 219.19 104.711L220.632 120.345Z" fill="#0D6EFD"/>
<mask id="mask2_205_1032" style="mask-type:luminance" maskUnits="userSpaceOnUse" x="193" y="103" width="28" height="20">
<path d="M220.632 120.345L195.027 122.708L193.584 107.074C193.488 106.039 194.25 105.123 195.285 105.027L217.143 103.01C218.178 102.914 219.094 103.676 219.19 104.711L220.632 120.345Z" fill="white"/>
</mask>
<g mask="url(#mask2_205_1032)">
<path opacity="0.3" d="M220.632 120.345L195.027 122.708L193.584 107.074C193.488 106.039 194.25 105.123 195.285 105.027L217.143 103.01C218.178 102.914 219.094 103.676 219.19 104.711L220.632 120.345Z" fill="black" fill-opacity="0.7"/>
</g>
<mask id="mask3_205_1032" style="mask-type:luminance" maskUnits="userSpaceOnUse" x="193" y="102" width="29" height="23">
<path d="M221.458 119.809L196.177 124.515L193.304 109.08C193.113 108.058 193.788 107.076 194.809 106.885L216.39 102.868C217.412 102.677 218.394 103.352 218.585 104.373L221.458 119.809Z" fill="white"/>
</mask>
<g mask="url(#mask3_205_1032)">
<path opacity="0.3" d="M217.798 104.611L211.494 105.193L212.658 117.798L218.961 117.217L217.798 104.611Z" fill="white" fill-opacity="0.7"/>
</g>
<path d="M220.632 120.345L195.027 122.708L193.584 107.074C193.488 106.039 194.25 105.123 195.285 105.027L217.143 103.01C218.178 102.914 219.094 103.676 219.19 104.711L220.632 120.345Z" stroke="black" stroke-miterlimit="10" stroke-linecap="round" stroke-linejoin="round"/>
<path d="M258.471 116.853L232.865 119.216L231.422 103.582C231.327 102.547 232.088 101.631 233.123 101.536L254.981 99.5189C256.016 99.4229 256.932 100.185 257.027 101.22L258.471 116.853Z" fill="#0D6EFD"/>
<mask id="mask4_205_1032" style="mask-type:luminance" maskUnits="userSpaceOnUse" x="231" y="99" width="28" height="21">
<path d="M258.471 116.853L232.865 119.216L231.422 103.582C231.327 102.547 232.088 101.631 233.123 101.536L254.981 99.5189C256.016 99.4229 256.932 100.185 257.027 101.22L258.471 116.853Z" fill="white"/>
</mask>
<g mask="url(#mask4_205_1032)">
<path opacity="0.3" d="M258.471 116.853L232.865 119.216L231.422 103.582C231.327 102.547 232.088 101.631 233.123 101.536L254.981 99.5189C256.016 99.4229 256.932 100.185 257.027 101.22L258.471 116.853Z" fill="black" fill-opacity="0.7"/>
</g>
<mask id="mask5_205_1032" style="mask-type:luminance" maskUnits="userSpaceOnUse" x="231" y="99" width="29" height="23">
<path d="M259.308 116.394L234.027 121.1L231.153 105.664C230.963 104.642 231.637 103.66 232.659 103.471L254.24 99.4533C255.262 99.2626 256.244 99.9372 256.434 100.959L259.308 116.394Z" fill="white"/>
</mask>
<g mask="url(#mask5_205_1032)">
<path opacity="0.3" d="M255.222 101.157L251.414 101.509L252.577 114.115L256.385 113.763L255.222 101.157Z" fill="white" fill-opacity="0.7"/>
</g>
<path d="M258.471 116.853L232.865 119.216L231.422 103.582C231.327 102.547 232.088 101.631 233.123 101.536L254.981 99.5189C256.016 99.4229 256.932 100.185 257.027 101.22L258.471 116.853Z" stroke="black" stroke-miterlimit="10" stroke-linecap="round" stroke-linejoin="round"/>
<path d="M250.505 117.588L224.9 119.951L223.457 104.317C223.362 103.282 224.123 102.366 225.158 102.271L247.016 100.254C248.051 100.158 248.967 100.92 249.062 101.955L250.505 117.588Z" fill="#0D6EFD" stroke="black" stroke-miterlimit="10" stroke-linecap="round" stroke-linejoin="round"/>
<path d="M288.344 114.096L262.739 116.459L261.296 100.825C261.201 99.7899 261.962 98.8739 262.997 98.7779L284.855 96.7609C285.89 96.6659 286.806 97.4269 286.902 98.4619L288.344 114.096Z" fill="#0D6EFD" stroke="black" stroke-miterlimit="10" stroke-linecap="round" stroke-linejoin="round"/>
<path opacity="0.3" d="M247.671 101.857L241.368 102.439L242.531 115.045L248.834 114.463L247.671 101.857Z" fill="white" fill-opacity="0.7"/>
<path opacity="0.3" d="M285.096 98.3995L278.793 98.9812L279.956 111.587L286.26 111.005L285.096 98.3995Z" fill="white" fill-opacity="0.7"/>
<path d="M299.215 109.415L305.849 181.3L190.03 191.988L183.397 120.103C183.165 117.594 185.01 115.385 187.51 115.154L294.267 105.303C296.765 105.072 298.983 106.906 299.215 109.415Z" fill="#0D6EFD"/>
<mask id="mask6_205_1032" style="mask-type:luminance" maskUnits="userSpaceOnUse" x="183" y="105" width="123" height="87">
<path d="M299.215 109.415L305.849 181.3L190.03 191.988L183.397 120.103C183.165 117.594 185.01 115.385 187.51 115.154L294.267 105.303C296.765 105.072 298.983 106.906 299.215 109.415Z" fill="white"/>
</mask>
<g mask="url(#mask6_205_1032)">
<path opacity="0.3" d="M299.215 109.415L305.849 181.3L190.03 191.988L183.397 120.103C183.165 117.594 185.01 115.385 187.51 115.154L294.267 105.303C296.765 105.072 298.983 106.906 299.215 109.415Z" fill="black" fill-opacity="0.7"/>
</g>
<path d="M299.215 109.415L305.849 181.3L190.03 191.988L183.397 120.103C183.165 117.594 185.01 115.385 187.51 115.154L294.267 105.303C296.765 105.072 298.983 106.906 299.215 109.415Z" stroke="black" stroke-miterlimit="10" stroke-linecap="round" stroke-linejoin="round"/>
<path d="M299.215 109.415L305.849 181.3L219.904 189.231L213.271 117.346C213.039 114.837 214.884 112.628 217.384 112.397L294.267 105.302C296.765 105.072 298.983 106.906 299.215 109.415Z" fill="#0D6EFD" stroke="black" stroke-miterlimit="10" stroke-linecap="round" stroke-linejoin="round"/>
<path opacity="0.3" d="M293.638 112.509L220.17 119.289C219.137 119.384 218.221 118.624 218.126 117.59C218.031 116.557 218.791 115.641 219.825 115.546L293.293 108.766C294.326 108.671 295.241 109.431 295.337 110.465C295.432 111.499 294.671 112.414 293.638 112.509Z" fill="white" fill-opacity="0.7"/>
<path d="M164.536 112.558C164.536 112.558 147.59 109.161 145.691 120.072C143.792 130.983 150.015 135.618 150.015 135.618L164.536 112.558Z" fill="black"/>
<path d="M150.041 141.61C148.305 136.746 147.671 131.03 149.17 124.716C150.834 117.71 159.178 108.088 171.817 116.84C178.334 121.352 178.732 131.135 176.702 140.102C176.218 142.241 176.581 144.333 175.871 146.296C173.373 153.2 168.802 158.51 166.304 158.631C162.127 158.835 153.787 153.787 154.132 149.388" fill="white"/>
<path d="M150.041 141.61C148.305 136.746 147.671 131.03 149.17 124.716C150.834 117.71 159.178 108.088 171.817 116.84C178.334 121.352 178.732 131.135 176.702 140.102C176.218 142.241 176.581 144.333 175.871 146.296C173.373 153.2 168.802 158.51 166.304 158.631C162.127 158.835 153.787 153.787 154.132 149.388" stroke="black" stroke-miterlimit="10" stroke-linecap="round" stroke-linejoin="round"/>
<path d="M166.888 138.441C166.888 138.441 163.519 136.001 160.275 137.997" stroke="black" stroke-miterlimit="10" stroke-linecap="round" stroke-linejoin="round"/>
<path d="M173.251 137.998C173.251 137.998 175.798 135.662 177.457 135.991" stroke="black" stroke-miterlimit="10" stroke-linecap="round" stroke-linejoin="round"/>
<path d="M162.128 142.184C162.128 142.804 162.444 143.307 162.833 143.307C163.222 143.307 163.538 142.804 163.538 142.184C163.538 141.564 163.222 141.061 162.833 141.061C162.443 141.061 162.128 141.564 162.128 142.184Z" fill="black"/>
<path d="M173.251 142.684C173.64 142.684 173.956 142.181 173.956 141.561C173.956 140.941 173.64 140.438 173.251 140.438C172.862 140.438 172.546 140.941 172.546 141.561C172.546 142.181 172.862 142.684 173.251 142.684Z" fill="black"/>
<path d="M171.824 140.356C170.576 141.978 172.323 148.154 171.824 148.591C171.325 149.028 168.143 147.78 168.143 147.78C168.143 147.78 167.394 146.844 168.954 146.345" stroke="black" stroke-miterlimit="10" stroke-linecap="round" stroke-linejoin="round"/>
<path d="M168.947 151.687C168.947 151.687 164.681 151.687 163.539 150.135" stroke="black" stroke-miterlimit="10" stroke-linecap="round" stroke-linejoin="round"/>
<path d="M158.778 128.584L158.445 133.741C158.445 133.741 154.785 135.626 153.87 137.553C152.955 139.48 153.288 141.56 153.288 141.56C153.288 141.56 151.066 137.679 149.874 137.997C149.441 138.112 149.442 139.735 149.442 139.735C149.442 139.735 144.47 128.583 148.962 122.678C153.454 116.773 158.778 128.584 158.778 128.584Z" fill="white" stroke="black" stroke-miterlimit="10" stroke-linecap="round" stroke-linejoin="round"/>
<path d="M151.728 140.438C151.728 140.438 150.73 136.695 147.361 135.697C143.992 134.699 146.3 143.674 149.17 144.868C152.04 146.062 152.76 146.864 152.93 145.804" fill="white"/>
<path d="M151.728 140.438C151.728 140.438 150.73 136.695 147.361 135.697C143.992 134.699 146.3 143.674 149.17 144.868C152.04 146.062 152.76 146.864 152.93 145.804" stroke="black" stroke-miterlimit="10" stroke-linecap="round" stroke-linejoin="round"/>
<path d="M147.136 127.928C146.861 127.551 145.622 117.95 151.967 113.607C158.312 109.263 169.05 109.752 175.884 115.731C182.717 121.71 180.765 132.078 175.884 135.619V131.293C175.884 131.293 173.632 135.635 166.887 135.994L168.946 132.815C168.946 132.815 165.634 134.767 159.777 134.645C159.777 134.645 162.525 132.449 162.127 130.496C162.127 130.496 152.84 135.729 147.136 127.928Z" fill="black"/>
<path d="M148.329 162.611C143.649 163.173 136.995 169.282 141.363 180.13C144.132 187.007 166.888 182.919 166.888 182.919C175.329 179.445 187.659 166.916 196.707 161.109C196.707 161.109 194.798 149.122 192.597 150.808C182.374 158.639 173.957 159.183 159.693 166.04C159.693 166.04 151.275 162.257 148.329 162.611Z" fill="white" stroke="black" stroke-miterlimit="10" stroke-linecap="round" stroke-linejoin="round"/>
<path d="M158.778 175.93C158.638 180.413 160.482 181.205 163.582 182.26Z" fill="white"/>
<path d="M158.778 175.93C158.638 180.413 160.482 181.205 163.582 182.26" stroke="black" stroke-miterlimit="10" stroke-linecap="round" stroke-linejoin="round"/>
<path d="M191.89 151.687C192.096 151.04 195.853 144.383 196.959 142.684C198.065 140.985 202.813 139.459 204.659 138.442C206.505 137.425 206.637 135.874 207.692 136.979C208.747 138.084 207.692 140.62 202.154 143.308C202.154 143.308 206.576 143.521 208.057 143.308C209.538 143.095 210.857 141.746 211.516 142.684C212.175 143.622 212.307 145.28 209.011 146.298C205.714 147.315 204.132 147.258 204.132 147.258C204.132 147.258 208.352 148.243 208.879 148.636C209.407 149.029 210.198 149.941 210.989 150.078C211.78 150.216 212.637 151.094 211.187 152.128C209.736 153.162 207.824 152.194 207.824 152.194C207.824 152.194 211.648 154.04 210.461 155.227C209.274 156.414 205.45 156.15 205.45 156.15C205.45 156.15 199.78 163.007 195.033 161.556" fill="white"/>
<path d="M191.89 151.687C192.096 151.04 195.853 144.383 196.959 142.684C198.065 140.985 202.813 139.459 204.659 138.442C206.505 137.425 206.637 135.874 207.692 136.979C208.747 138.084 207.692 140.62 202.154 143.308C202.154 143.308 206.576 143.521 208.057 143.308C209.538 143.095 210.857 141.746 211.516 142.684C212.175 143.622 212.307 145.28 209.011 146.298C205.714 147.315 204.132 147.258 204.132 147.258C204.132 147.258 208.352 148.243 208.879 148.636C209.407 149.029 210.198 149.941 210.989 150.078C211.78 150.216 212.637 151.094 211.187 152.128C209.736 153.162 207.824 152.194 207.824 152.194C207.824 152.194 211.648 154.04 210.461 155.227C209.274 156.414 205.45 156.15 205.45 156.15C205.45 156.15 199.78 163.007 195.033 161.556" stroke="black" stroke-miterlimit="10" stroke-linecap="round" stroke-linejoin="round"/>
<path d="M198.659 142.683C198.659 142.683 199.714 142.83 200.044 144.017C200.374 145.204 201.337 145.27 201.931 146.588C202.524 147.907 202.352 149.953 202.945 150.644C203.538 151.335 202.945 154.302 202.945 154.302" stroke="black" stroke-miterlimit="10" stroke-linecap="round" stroke-linejoin="round"/>
<path d="M149.311 161.757C146.856 158.638 141.363 160.048 141.363 160.048" stroke="white" stroke-miterlimit="10" stroke-linecap="round" stroke-linejoin="round"/>
<path d="M138.363 154.303C138.363 154.303 144.02 155.129 145.691 159.842" stroke="white" stroke-miterlimit="10" stroke-linecap="round" stroke-linejoin="round"/>
<path d="M148.329 184.124C148.329 184.124 142.814 188.391 134.407 182.259" stroke="white" stroke-miterlimit="10" stroke-linecap="round" stroke-linejoin="round"/>
<path d="M141.363 185.409C141.363 185.409 138.561 189.279 131.737 189.231" stroke="white" stroke-miterlimit="10" stroke-linecap="round" stroke-linejoin="round"/>
<path d="M176.44 234.103C176.44 234.103 162 245.606 147.33 244.131" stroke="white" stroke-miterlimit="10" stroke-linecap="round" stroke-linejoin="round"/>
<path d="M137.407 208.81C137.407 208.81 159.825 225.248 176.44 226.303" stroke="white" stroke-miterlimit="10" stroke-linecap="round" stroke-linejoin="round"/>
<path d="M328.714 211.088L324.67 232.834L292.055 252.651L296.56 260.934C296.56 260.934 334.275 249.428 335.187 246.742C336.099 244.055 344.802 215.565 344.802 215.565L328.714 211.088Z" fill="black"/>
<path d="M342.96 174.33L340.78 200.69L339.63 214.52C333.34 217.58 327.19 212.98 326.81 212.68C326.8 212.67 326.79 212.67 326.79 212.67C328.56 207.66 330.55 179.33 342.96 174.33Z" fill="#EEEEEE" stroke="black" stroke-miterlimit="10" stroke-linecap="round" stroke-linejoin="round"/>
<path d="M340.78 200.69L339.63 214.52C333.34 217.58 327.19 212.98 326.81 212.68C327.08 212.8 330.39 214.2 332.54 212.67C332.54 212.67 330.69 210.56 330.56 210.03C330.43 209.51 332.54 209.37 332.54 209.37C332.54 209.37 331.14 198.16 334.87 193.42C336.33 191.56 338.61 195.36 340.78 200.69Z" fill="black"/>
<path d="M365.592 418.443L366.633 421.375C366.633 421.375 364.223 425.421 361.554 428.523C361.554 428.523 360.526 428.196 358.91 429.647C357.294 431.098 357.147 433.407 357.147 433.407C357.147 433.407 349.513 442.57 339.816 442.702C330.118 442.834 333.05 437.955 333.05 437.955L365.592 418.443Z" fill="#0D6EFD" stroke="black" stroke-miterlimit="10" stroke-linecap="round" stroke-linejoin="round"/>
<path d="M356.485 395.13C356.485 395.13 343.491 390.339 340.939 399.921C340.939 399.921 343.259 410.473 341.867 416.237C340.475 422 333.483 433.025 333.05 435.124C332.205 439.218 332.842 439.496 332.842 439.496C332.842 439.496 337.934 442.438 344.767 439.288C351.6 436.137 363.445 422.582 365.302 419.792C367.158 417.001 359.501 405.962 359.501 405.962L356.485 395.13Z" fill="white"/>
<mask id="mask7_205_1032" style="mask-type:luminance" maskUnits="userSpaceOnUse" x="332" y="393" width="34" height="48">
<path d="M356.485 395.13C356.485 395.13 343.491 390.339 340.939 399.921C340.939 399.921 343.259 410.473 341.867 416.237C340.475 422 333.483 433.025 333.05 435.124C332.205 439.218 332.842 439.496 332.842 439.496C332.842 439.496 337.934 442.438 344.767 439.288C351.6 436.137 363.445 422.582 365.302 419.792C367.158 417.001 359.501 405.962 359.501 405.962L356.485 395.13Z" fill="white"/>
</mask>
<g mask="url(#mask7_205_1032)">
<path opacity="0.4" d="M356.485 395.13C356.485 395.13 343.491 390.339 340.939 399.921C340.939 399.921 343.259 410.473 341.867 416.237C340.475 422 333.483 433.025 333.05 435.124C332.205 439.218 332.842 439.496 332.842 439.496C332.842 439.496 337.934 442.438 344.767 439.288C351.6 436.137 363.445 422.582 365.302 419.792C367.158 417.001 359.501 405.962 359.501 405.962L356.485 395.13Z" fill="#0D6EFD"/>
</g>
<path d="M356.485 395.13C356.485 395.13 343.491 390.339 340.939 399.921C340.939 399.921 343.259 410.473 341.867 416.237C340.475 422 333.483 433.025 333.05 435.124C332.205 439.218 332.842 439.496 332.842 439.496C332.842 439.496 337.934 442.438 344.767 439.288C351.6 436.137 363.445 422.582 365.302 419.792C367.158 417.001 359.501 405.962 359.501 405.962L356.485 395.13Z" stroke="black" stroke-miterlimit="10" stroke-linecap="round" stroke-linejoin="round"/>
<path d="M349.833 408.678C349.833 408.678 351.992 418.249 346.581 427.484" stroke="black" stroke-miterlimit="10" stroke-linecap="round" stroke-linejoin="round"/>
<path d="M346.581 429.981C346.581 429.981 345.192 433.946 341.016 435.124C336.839 436.302 333.05 435.124 333.05 435.124L336.171 428.797C336.171 428.797 340.7 430.88 346.581 429.981Z" fill="#0D6EFD" stroke="black" stroke-miterlimit="10" stroke-linecap="round" stroke-linejoin="round"/>
<path d="M348.42 426.171C348.42 426.171 341.621 426.577 338.07 425.191" stroke="black" stroke-miterlimit="10" stroke-linecap="round" stroke-linejoin="round"/>
<path d="M349.678 422.417C349.678 422.417 343.323 423.389 339.772 421.375" stroke="black" stroke-miterlimit="10" stroke-linecap="round" stroke-linejoin="round"/>
<path d="M350.761 418.251C350.761 418.251 345.187 419.065 341.554 417.339" stroke="black" stroke-miterlimit="10" stroke-linecap="round" stroke-linejoin="round"/>
<path d="M351.38 413.529C351.38 413.529 345.183 415.473 342.249 413.529" stroke="black" stroke-miterlimit="10" stroke-linecap="round" stroke-linejoin="round"/>
<path d="M352.308 401.865L353.391 408.678C353.391 408.678 345.193 414.085 339.772 407.334L339.797 400.225C339.797 400.225 341.808 405.018 352.308 401.865Z" fill="#0D6EFD" stroke="black" stroke-miterlimit="10" stroke-linecap="round" stroke-linejoin="round"/>
<path d="M345.187 248.992C336.879 275.319 311.088 317.555 313.703 328.357C315.132 334.259 323.643 367.693 330.297 382.393C332.835 388 338.296 391.754 338.296 391.754L342.249 400.226C351.875 404.412 355.327 395.891 355.327 395.891L353.391 386.292C358.555 376.914 356.35 376.914 349.679 328.292C348.893 322.563 362.176 304.852 362.176 304.852L369.006 349.395L370.116 385.895L373.664 397.171C373.664 397.171 374.536 407.764 374.462 408.401H390.286L392.033 396.756C392.033 396.756 399.385 389.827 399.385 381.826C399.385 373.825 397.803 333.078 399.385 321.21C400.967 309.342 395.679 254.004 395.679 254.004L345.187 248.992Z" fill="black"/>
<path d="M259.912 243.253L234.292 241.05L235.637 225.407C235.726 224.372 236.638 223.605 237.673 223.693L259.543 225.574C260.578 225.663 261.345 226.575 261.256 227.61L259.912 243.253Z" fill="#0D6EFD"/>
<mask id="mask8_205_1032" style="mask-type:luminance" maskUnits="userSpaceOnUse" x="234" y="223" width="28" height="21">
<path d="M259.912 243.253L234.292 241.05L235.637 225.407C235.726 224.372 236.638 223.605 237.673 223.693L259.543 225.574C260.578 225.663 261.345 226.575 261.256 227.61L259.912 243.253Z" fill="white"/>
</mask>
<g mask="url(#mask8_205_1032)">
<path opacity="0.3" d="M259.912 243.253L234.292 241.05L235.637 225.407C235.726 224.372 236.638 223.605 237.673 223.693L259.543 225.574C260.578 225.663 261.345 226.575 261.256 227.61L259.912 243.253Z" fill="black" fill-opacity="0.7"/>
</g>
<mask id="mask9_205_1032" style="mask-type:luminance" maskUnits="userSpaceOnUse" x="233" y="222" width="29" height="22">
<path d="M259.034 243.535L233.697 239.144L236.378 223.675C236.555 222.651 237.53 221.965 238.553 222.141L260.181 225.89C261.205 226.067 261.891 227.041 261.714 228.065L259.034 243.535Z" fill="white"/>
</mask>
<g mask="url(#mask9_205_1032)">
<path opacity="0.3" d="M259.886 227.266L253.58 226.723L252.495 239.335L258.801 239.878L259.886 227.266Z" fill="white" fill-opacity="0.7"/>
</g>
<path d="M259.912 243.253L234.292 241.05L235.637 225.407C235.726 224.372 236.638 223.605 237.673 223.693L259.543 225.574C260.578 225.663 261.345 226.575 261.256 227.61L259.912 243.253Z" stroke="black" stroke-miterlimit="10" stroke-linecap="round" stroke-linejoin="round"/>
<path d="M297.772 246.508L272.152 244.305L273.497 228.662C273.586 227.627 274.497 226.86 275.533 226.949L297.403 228.829C298.438 228.918 299.206 229.83 299.116 230.865L297.772 246.508Z" fill="#0D6EFD"/>
<mask id="mask10_205_1032" style="mask-type:luminance" maskUnits="userSpaceOnUse" x="272" y="226" width="28" height="21">
<path d="M297.772 246.508L272.152 244.305L273.497 228.662C273.586 227.627 274.497 226.86 275.533 226.949L297.403 228.829C298.438 228.918 299.206 229.83 299.116 230.865L297.772 246.508Z" fill="white"/>
</mask>
<g mask="url(#mask10_205_1032)">
<path opacity="0.3" d="M297.772 246.508L272.152 244.305L273.497 228.662C273.586 227.627 274.497 226.86 275.533 226.949L297.403 228.829C298.438 228.918 299.206 229.83 299.116 230.865L297.772 246.508Z" fill="black" fill-opacity="0.7"/>
</g>
<mask id="mask11_205_1032" style="mask-type:luminance" maskUnits="userSpaceOnUse" x="271" y="225" width="29" height="22">
<path d="M296.899 246.723L271.563 242.332L274.243 226.862C274.421 225.839 275.394 225.153 276.419 225.33L298.047 229.077C299.07 229.255 299.757 230.229 299.579 231.253L296.899 246.723Z" fill="white"/>
</mask>
<g mask="url(#mask11_205_1032)">
<path opacity="0.3" d="M297.326 230.489L293.516 230.161L292.431 242.773L296.241 243.101L297.326 230.489Z" fill="white" fill-opacity="0.7"/>
</g>
<path d="M297.772 246.508L272.152 244.305L273.497 228.662C273.586 227.627 274.497 226.86 275.533 226.949L297.403 228.829C298.438 228.918 299.206 229.83 299.116 230.865L297.772 246.508Z" stroke="black" stroke-miterlimit="10" stroke-linecap="round" stroke-linejoin="round"/>
<path d="M289.802 245.823L264.182 243.62L265.527 227.977C265.616 226.942 266.527 226.175 267.563 226.264L289.434 228.144C290.469 228.233 291.236 229.145 291.148 230.18L289.802 245.823Z" fill="#0D6EFD" stroke="black" stroke-miterlimit="10" stroke-linecap="round" stroke-linejoin="round"/>
<path d="M327.662 249.079L302.042 246.876L303.387 231.233C303.476 230.198 304.388 229.431 305.423 229.519L327.294 231.4C328.329 231.489 329.096 232.4 329.008 233.436L327.662 249.079Z" fill="#0D6EFD" stroke="black" stroke-miterlimit="10" stroke-linecap="round" stroke-linejoin="round"/>
<path opacity="0.3" d="M289.771 229.84L283.465 229.298L282.38 241.91L288.687 242.453L289.771 229.84Z" fill="white" fill-opacity="0.7"/>
<path opacity="0.3" d="M327.219 233.056L320.912 232.514L319.827 245.126L326.134 245.668L327.219 233.056Z" fill="white" fill-opacity="0.7"/>
<path d="M339.19 246.394L333.006 318.319L217.124 308.355L223.308 236.43C223.524 233.919 225.73 232.072 228.231 232.287L335.047 241.471C337.547 241.686 339.406 243.883 339.19 246.394Z" fill="#0D6EFD"/>
<mask id="mask12_205_1032" style="mask-type:luminance" maskUnits="userSpaceOnUse" x="217" y="232" width="123" height="87">
<path d="M339.19 246.394L333.006 318.319L217.124 308.355L223.308 236.43C223.524 233.919 225.73 232.072 228.231 232.287L335.047 241.471C337.547 241.686 339.406 243.883 339.19 246.394Z" fill="white"/>
</mask>
<g mask="url(#mask12_205_1032)">
<path opacity="0.3" d="M339.19 246.394L333.006 318.319L217.124 308.355L223.308 236.43C223.524 233.919 225.73 232.072 228.231 232.287L335.047 241.471C337.547 241.686 339.406 243.883 339.19 246.394Z" fill="black" fill-opacity="0.7"/>
</g>
<path d="M339.19 246.394L333.006 318.319L217.124 308.355L223.308 236.43C223.524 233.919 225.73 232.072 228.231 232.287L335.047 241.471C337.547 241.686 339.406 243.883 339.19 246.394Z" stroke="black" stroke-miterlimit="10" stroke-linecap="round" stroke-linejoin="round"/>
<path d="M339.19 246.394L333.006 318.319L247.013 310.925L253.197 239C253.413 236.489 255.619 234.642 258.12 234.857L335.046 241.472C337.547 241.686 339.406 243.883 339.19 246.394Z" fill="#0D6EFD" stroke="black" stroke-miterlimit="10" stroke-linecap="round" stroke-linejoin="round"/>
<path opacity="0.3" d="M333.154 248.453L259.645 242.132C258.611 242.043 257.845 241.133 257.934 240.099C258.023 239.065 258.933 238.299 259.967 238.388L333.476 244.709C334.51 244.798 335.276 245.708 335.187 246.742C335.098 247.776 334.188 248.542 333.154 248.453Z" fill="white" fill-opacity="0.7"/>
<path d="M390.796 408.813C390.796 408.813 385.258 404.857 373.785 405.648C373.785 405.648 372.954 419.4 371.392 423.403C369.829 427.406 361.608 434.329 360.081 435.516C358.554 436.703 358.554 440.857 358.554 440.857H393.367C393.367 440.857 392.774 431.653 390.598 423.2L390.796 408.813Z" fill="white"/>
<mask id="mask13_205_1032" style="mask-type:luminance" maskUnits="userSpaceOnUse" x="358" y="405" width="36" height="36">
<path d="M390.796 408.813C390.796 408.813 385.258 404.857 373.785 405.648C373.785 405.648 372.954 419.4 371.392 423.403C369.829 427.406 361.608 434.329 360.081 435.516C358.554 436.703 358.554 440.857 358.554 440.857H393.367C393.367 440.857 392.774 431.653 390.598 423.2L390.796 408.813Z" fill="white"/>
</mask>
<g mask="url(#mask13_205_1032)">
<path opacity="0.4" d="M390.796 408.813C390.796 408.813 385.258 404.857 373.785 405.648C373.785 405.648 372.954 419.4 371.392 423.403C369.829 427.406 361.608 434.329 360.081 435.516C358.554 436.703 358.554 440.857 358.554 440.857H393.367C393.367 440.857 392.774 431.653 390.598 423.2L390.796 408.813Z" fill="#0D6EFD"/>
</g>
<path d="M390.796 408.813C390.796 408.813 385.258 404.857 373.785 405.648C373.785 405.648 372.954 419.4 371.392 423.403C369.829 427.406 361.608 434.329 360.081 435.516C358.554 436.703 358.554 440.857 358.554 440.857H393.367C393.367 440.857 392.774 431.653 390.598 423.2L390.796 408.813Z" stroke="black" stroke-miterlimit="10" stroke-linecap="round" stroke-linejoin="round"/>
<path d="M383.609 410.593C383.609 410.593 382.786 423.252 380.824 426.549C378.862 429.846 376.965 431.56 376.965 431.56" stroke="black" stroke-miterlimit="10" stroke-linecap="round" stroke-linejoin="round"/>
<path d="M375.961 433.34C375.961 433.34 374.214 435.516 372.269 435.813C370.324 436.11 360.081 435.516 360.081 435.516L364.258 431.905C364.258 431.905 372.796 430.472 375.961 433.34Z" fill="#0D6EFD" stroke="black" stroke-miterlimit="10" stroke-linecap="round" stroke-linejoin="round"/>
<path d="M379.62 430.373C379.62 430.373 372.197 426.107 366.909 429.328" stroke="black" stroke-miterlimit="10" stroke-linecap="round" stroke-linejoin="round"/>
<path d="M381.411 427.477C381.411 427.477 376.229 423.427 370.117 425.65" stroke="black" stroke-miterlimit="10" stroke-linecap="round" stroke-linejoin="round"/>
<path d="M383.609 423.065C383.609 423.065 378.033 418.732 372.151 421.492" stroke="black" stroke-miterlimit="10" stroke-linecap="round" stroke-linejoin="round"/>
<path d="M384.368 417.556C384.368 417.556 377.604 413.918 372.678 416.677" stroke="black" stroke-miterlimit="10" stroke-linecap="round" stroke-linejoin="round"/>
<path d="M393.368 440.857V443.428H389.38C389.38 443.428 385.951 441.45 382.687 443.428C382.687 443.428 367.16 443.428 363.896 443.428C360.632 443.428 358.16 442.142 358.16 442.142L358.556 440.856H393.368V440.857Z" fill="#0D6EFD" stroke="black" stroke-miterlimit="10" stroke-linecap="round" stroke-linejoin="round"/>
<path d="M388.38 408.023L387.489 413.626C387.489 413.626 377.04 410.238 371.269 412.439V405.543C371.269 405.543 382.018 401.761 388.38 408.023Z" fill="#0D6EFD" stroke="black" stroke-miterlimit="10" stroke-linecap="round" stroke-linejoin="round"/>
<path d="M399.68 268.23C399.68 268.23 377.47 272.58 355.69 265.52C350.88 263.96 346.08 261.84 341.55 258.99C341.55 258.99 341.61 257.59 341.65 255.3C341.83 246.36 341.78 223.87 337.07 218.26C334.11 214.75 331.72 193.05 337.51 182.08L355.22 167.84C379.74 172.63 384.92 179.12 388.97 193.12C389.72 195.68 390.42 198.49 391.2 201.59C392.05 204.97 392.85 209.1 393.61 213.64C397.29 236.02 399.68 268.23 399.68 268.23Z" fill="#EEEEEE"/>
<mask id="mask14_205_1032" style="mask-type:luminance" maskUnits="userSpaceOnUse" x="333" y="167" width="67" height="103">
<path d="M399.68 268.23C399.68 268.23 377.47 272.58 355.69 265.52C350.88 263.96 346.08 261.84 341.55 258.99C341.55 258.99 341.61 257.59 341.65 255.3C341.83 246.36 341.78 223.87 337.07 218.26C334.11 214.75 331.72 193.05 337.51 182.08L355.22 167.84C379.74 172.63 384.92 179.12 388.97 193.12C389.72 195.68 390.42 198.49 391.2 201.59C392.05 204.97 392.85 209.1 393.61 213.64C397.29 236.02 399.68 268.23 399.68 268.23Z" fill="white"/>
</mask>
<g mask="url(#mask14_205_1032)">
<path opacity="0.2" d="M393.61 213.64L383.61 258.31C383.61 258.31 369.16 262.35 355.69 265.52C350.88 263.96 346.08 261.84 341.55 258.99C341.55 258.99 341.61 257.59 341.65 255.3C353.75 249.11 371.41 240.01 371.27 239.58C371.04 238.91 371.27 215.57 371.27 215.57C371.27 215.57 387.22 211.86 388.97 193.12C389.72 195.68 390.42 198.49 391.2 201.59C392.05 204.97 392.85 209.1 393.61 213.64Z" fill="black"/>
</g>
<path d="M399.68 268.23C399.68 268.23 377.47 272.58 355.69 265.52C350.88 263.96 346.08 261.84 341.55 258.99C341.55 258.99 341.61 257.59 341.65 255.3C341.83 246.36 341.78 223.87 337.07 218.26C334.11 214.75 331.72 193.05 337.51 182.08L355.22 167.84C379.74 172.63 384.92 179.12 388.97 193.12C389.72 195.68 390.42 198.49 391.2 201.59C392.05 204.97 392.85 209.1 393.61 213.64C397.29 236.02 399.68 268.23 399.68 268.23Z" stroke="black" stroke-miterlimit="10" stroke-linecap="round" stroke-linejoin="round"/>
<path d="M356.011 149.201C356.011 149.201 348.192 160.403 358.592 169.136C358.592 169.136 345.969 183.304 341.818 181.351C340.07 180.529 341.818 175.417 341.818 175.417L334.501 161.883L356.011 149.201Z" fill="white" stroke="black" stroke-miterlimit="10" stroke-linecap="round" stroke-linejoin="round"/>
<path d="M353.446 154.949C355.894 144.277 354.717 128.386 339.77 129.804C329.294 130.798 321.817 136.596 324.73 150.656C325.96 156.594 326.971 164.993 332.408 172.566C333.918 174.669 349.716 167.239 348.764 161.23" fill="white"/>
<path d="M353.446 154.949C355.894 144.277 354.717 128.386 339.77 129.804C329.294 130.798 321.817 136.596 324.73 150.656C325.96 156.594 326.971 164.993 332.408 172.566C333.918 174.669 349.716 167.239 348.764 161.23" stroke="black" stroke-miterlimit="10" stroke-linecap="round" stroke-linejoin="round"/>
<path d="M332.057 148.33C332.057 148.33 335.198 146.892 338.544 148.958" stroke="black" stroke-miterlimit="10" stroke-linecap="round" stroke-linejoin="round"/>
<path d="M324.539 149.645C324.539 149.645 325.039 148.287 326.788 148.615" stroke="black" stroke-miterlimit="10" stroke-linecap="round" stroke-linejoin="round"/>
<path d="M328.276 151.862C328.276 151.862 325.199 157.471 325.191 158.274C325.182 159.078 328.98 159.338 328.98 159.338" fill="white"/>
<path d="M328.276 151.862C328.276 151.862 325.199 157.471 325.191 158.274C325.182 159.078 328.98 159.338 328.98 159.338" stroke="black" stroke-miterlimit="10" stroke-linecap="round" stroke-linejoin="round"/>
<path d="M334.9 153.02C334.919 153.63 334.628 154.135 334.25 154.146C333.872 154.158 333.55 153.673 333.531 153.062C333.512 152.452 333.803 151.947 334.181 151.935C334.559 151.924 334.881 152.409 334.9 153.02Z" fill="black"/>
<path d="M330.545 163.421C330.545 163.421 336.461 162.311 337.508 160.232" stroke="black" stroke-miterlimit="10" stroke-linecap="round" stroke-linejoin="round"/>
<path d="M324.5 141.026L329.098 139.687C329.098 139.687 335.545 136.734 336.915 137.107C338.285 137.479 341.066 141.805 340.983 144.243C340.983 144.243 345.317 148.057 345.865 153.606L347.193 152.998C347.193 152.998 347.119 148.033 349.963 148.13C352.807 148.227 354.083 151.663 353.887 152.732C353.692 153.801 350.594 158.24 350.594 158.24C350.594 158.24 357.708 157.181 357.939 143.278C358.17 129.374 342.89 126.974 335.459 127.577C328.028 128.181 324.143 127.994 324.143 127.994L324.563 131.968L321.526 132.759L323.794 135.528L321.315 136.664L324.5 141.026Z" fill="black"/>
<path d="M350.258 293.008C350.258 293.008 368.364 297.801 373.264 311.279" stroke="white" stroke-miterlimit="10" stroke-linecap="round" stroke-linejoin="round"/>
<path d="M358.555 300.254C358.555 300.254 348.766 316.544 333.795 325.003" stroke="white" stroke-miterlimit="10" stroke-linecap="round" stroke-linejoin="round"/>
<path d="M344.802 391.858C344.802 391.858 350.359 390.611 351.875 388.451" stroke="white" stroke-miterlimit="10" stroke-linecap="round" stroke-linejoin="round"/>
<path d="M375.763 393.933C375.763 393.933 381.202 391.11 386.617 393.933" stroke="white" stroke-miterlimit="10" stroke-linecap="round" stroke-linejoin="round"/>
<path d="M393.368 318.091C393.368 318.091 384.241 341.738 379.621 343.93" stroke="white" stroke-miterlimit="10" stroke-linecap="round" stroke-linejoin="round"/>
<path d="M353.391 281.049C353.637 283.616 364.409 295.53 373.265 300.254" stroke="white" stroke-miterlimit="10" stroke-linecap="round" stroke-linejoin="round"/>
<path d="M362.564 271.003C362.564 271.003 364.71 275.713 363.327 281.049C361.944 286.385 363.327 289.911 363.327 289.911" stroke="white" stroke-miterlimit="10" stroke-linecap="round" stroke-linejoin="round"/>
<path d="M342.96 221.816C342.96 221.816 359.794 243.602 377.88 250.752" stroke="black" stroke-miterlimit="10" stroke-linecap="round" stroke-linejoin="round"/>
<path d="M360.42 186.611C360.42 186.611 360.362 201.422 371.044 208.101" stroke="black" stroke-miterlimit="10" stroke-linecap="round" stroke-linejoin="round"/>
<path d="M366.426 208.217C364.169 210.445 366.634 238.297 366.634 238.297C366.634 238.297 353.497 243.442 349.392 246.754C345.287 250.066 325.806 257.662 325.806 257.662C325.806 257.662 322.81 267.885 326.554 268.234C330.298 268.583 369.025 255.383 377.881 250.752C377.881 250.752 383.648 216.718 383.61 208.101" fill="white"/>
<path d="M366.426 208.217C364.169 210.445 366.634 238.297 366.634 238.297C366.634 238.297 353.497 243.442 349.392 246.754C345.287 250.066 325.806 257.662 325.806 257.662C325.806 257.662 322.81 267.885 326.554 268.234C330.298 268.583 369.025 255.383 377.881 250.752C377.881 250.752 383.648 216.718 383.61 208.101" stroke="black" stroke-miterlimit="10" stroke-linecap="round" stroke-linejoin="round"/>
<path d="M327.346 257.052C325.549 256.714 322.385 255.527 320.67 255.923C318.955 256.319 315.923 258.165 312.758 258.956C309.593 259.747 310.912 260.934 312.758 261.33C314.604 261.726 316.846 261.33 316.846 261.33L314.282 263.835C314.282 263.835 310.223 265.945 309.725 265.945C308.802 265.945 305.505 266.843 305.769 268.24C306.033 269.637 307.879 269.477 309.989 269.557C309.989 269.557 306.626 270.23 306.956 272.143C307.181 273.449 310.912 272.275 312.89 272.275C312.89 272.275 311.308 273.989 312.494 274.517C313.681 275.044 316.287 273.726 316.287 273.726C316.287 273.726 316.186 275.149 317.373 275.295C318.56 275.441 321.521 274.254 323.535 273.067C325.549 271.88 327.342 270.339 329.241 268.847C331.14 267.355 331.828 267.172 331.828 267.172" fill="white"/>
<path d="M327.346 257.052C325.549 256.714 322.385 255.527 320.67 255.923C318.955 256.319 315.923 258.165 312.758 258.956C309.593 259.747 310.912 260.934 312.758 261.33C314.604 261.726 316.846 261.33 316.846 261.33L314.282 263.835C314.282 263.835 310.223 265.945 309.725 265.945C308.802 265.945 305.505 266.843 305.769 268.24C306.033 269.637 307.879 269.477 309.989 269.557C309.989 269.557 306.626 270.23 306.956 272.143C307.181 273.449 310.912 272.275 312.89 272.275C312.89 272.275 311.308 273.989 312.494 274.517C313.681 275.044 316.287 273.726 316.287 273.726C316.287 273.726 316.186 275.149 317.373 275.295C318.56 275.441 321.521 274.254 323.535 273.067C325.549 271.88 327.342 270.339 329.241 268.847C331.14 267.355 331.828 267.172 331.828 267.172" stroke="black" stroke-miterlimit="10" stroke-linecap="round" stroke-linejoin="round"/>
<path d="M309.989 269.557C309.989 269.557 311.967 269.439 312.758 269.241C313.549 269.043 314.341 268.779 314.341 268.779" stroke="black" stroke-miterlimit="10" stroke-linecap="round" stroke-linejoin="round"/>
<path d="M312.89 272.275C312.89 272.275 315.132 271.945 316.319 271.088" stroke="black" stroke-miterlimit="10" stroke-linecap="round" stroke-linejoin="round"/>
<path d="M316.287 273.725C316.287 273.725 317.901 273.527 318.791 272.802" stroke="black" stroke-miterlimit="10" stroke-linecap="round" stroke-linejoin="round"/>
<path d="M314.604 264.56C314.604 264.56 313.879 266.208 314.604 267.132C315.329 268.055 316.186 268.107 316.318 269.169C316.45 270.231 318.164 270.165 318.791 270.824C319.417 271.483 319.883 272.718 321.857 272.802" stroke="black" stroke-miterlimit="10" stroke-linecap="round" stroke-linejoin="round"/>
<path d="M365.592 179.329C358.78 194.736 365.592 216.12 365.592 216.12C365.592 216.12 382.065 221.724 383.61 219.307C385.154 216.89 387.914 205.082 388.38 199.62" fill="#EEEEEE"/>
<path d="M365.592 179.329C358.78 194.736 365.592 216.12 365.592 216.12C365.592 216.12 382.065 221.724 383.61 219.307C385.154 216.89 387.914 205.082 388.38 199.62" stroke="black" stroke-miterlimit="10" stroke-linecap="round" stroke-linejoin="round"/>
<path d="M383.61 201.33C383.61 201.33 376.583 210.956 371.044 211.088" stroke="black" stroke-miterlimit="10" stroke-linecap="round" stroke-linejoin="round"/>
<path d="M138.023 330.511C138.023 330.511 143.353 327.083 150.669 328.929C157.985 330.775 176.974 357.94 179.611 360.577C182.248 363.214 187.193 364.622 191.743 369.37C198.943 376.883 209.413 383.522 210.468 383.522C211.523 383.522 212.38 382.863 213.699 382.599C215.018 382.335 225.238 381.412 225.238 381.412C225.238 381.412 228.667 382.174 225.238 383.639C221.809 385.104 222.073 386.423 222.073 386.423C222.073 386.423 221.384 387.533 222.762 388.588C224.139 389.643 224.953 389.07 226.92 391.862C228.887 394.654 224.14 393.071 224.14 393.071C224.14 393.071 225.195 396.088 223.085 395.766C220.975 395.444 222.821 398.698 219.393 398.258C215.965 397.818 208.624 393.191 206.778 388.334C206.778 388.334 176.844 374.026 172.361 370.334C167.877 366.642 149.043 346.861 147.713 346.598" fill="black"/>
<path d="M240.165 374.895H214.451V359.194C214.451 358.155 215.293 357.312 216.333 357.312H238.284C239.323 357.312 240.166 358.154 240.166 359.194V374.895H240.165Z" fill="#0D6EFD"/>
<mask id="mask15_205_1032" style="mask-type:luminance" maskUnits="userSpaceOnUse" x="214" y="357" width="27" height="18">
<path d="M240.165 374.895H214.451V359.194C214.451 358.155 215.293 357.312 216.333 357.312H238.284C239.323 357.312 240.166 358.154 240.166 359.194V374.895H240.165Z" fill="white"/>
</mask>
<g mask="url(#mask15_205_1032)">
<path opacity="0.3" d="M240.165 374.895H214.451V359.194C214.451 358.155 215.293 357.312 216.333 357.312H238.284C239.323 357.312 240.166 358.154 240.166 359.194V374.895H240.165Z" fill="black" fill-opacity="0.7"/>
</g>
<mask id="mask16_205_1032" style="mask-type:luminance" maskUnits="userSpaceOnUse" x="214" y="357" width="27" height="18">
<path d="M240.165 374.895H214.451V359.194C214.451 358.155 215.293 357.312 216.333 357.312H238.284C239.323 357.312 240.166 358.154 240.166 359.194V374.895H240.165Z" fill="white"/>
</mask>
<g mask="url(#mask16_205_1032)">
<path opacity="0.3" d="M238.781 358.966H232.451V371.625H238.781V358.966Z" fill="white" fill-opacity="0.7"/>
</g>
<path d="M240.165 374.895H214.451V359.194C214.451 358.155 215.293 357.312 216.333 357.312H238.284C239.323 357.312 240.166 358.154 240.166 359.194V374.895H240.165Z" stroke="black" stroke-miterlimit="10" stroke-linecap="round" stroke-linejoin="round"/>
<path d="M278.165 374.895H252.451V359.194C252.451 358.155 253.293 357.312 254.333 357.312H276.284C277.323 357.312 278.166 358.154 278.166 359.194V374.895H278.165Z" fill="#0D6EFD"/>
<mask id="mask17_205_1032" style="mask-type:luminance" maskUnits="userSpaceOnUse" x="252" y="357" width="27" height="18">
<path d="M278.165 374.895H252.451V359.194C252.451 358.155 253.293 357.312 254.333 357.312H276.284C277.323 357.312 278.166 358.154 278.166 359.194V374.895H278.165Z" fill="white"/>
</mask>
<g mask="url(#mask17_205_1032)">
<path opacity="0.3" d="M278.165 374.895H252.451V359.194C252.451 358.155 253.293 357.312 254.333 357.312H276.284C277.323 357.312 278.166 358.154 278.166 359.194L278.165 374.895Z" fill="black" fill-opacity="0.7"/>
</g>
<mask id="mask18_205_1032" style="mask-type:luminance" maskUnits="userSpaceOnUse" x="252" y="357" width="27" height="18">
<path d="M278.165 374.895H252.451V359.194C252.451 358.155 253.293 357.312 254.333 357.312H276.284C277.323 357.312 278.166 358.154 278.166 359.194V374.895H278.165Z" fill="white"/>
</mask>
<g mask="url(#mask18_205_1032)">
<path opacity="0.3" d="M276.362 358.966H272.538V371.625H276.362V358.966Z" fill="white" fill-opacity="0.7"/>
</g>
<path d="M278.165 374.895H252.451V359.194C252.451 358.155 253.293 357.312 254.333 357.312H276.284C277.323 357.312 278.166 358.154 278.166 359.194V374.895H278.165Z" stroke="black" stroke-miterlimit="10" stroke-linecap="round" stroke-linejoin="round"/>
<path d="M270.165 374.895H244.451V359.194C244.451 358.155 245.293 357.312 246.333 357.312H268.284C269.323 357.312 270.166 358.154 270.166 359.194L270.165 374.895Z" fill="#0D6EFD" stroke="black" stroke-miterlimit="10" stroke-linecap="round" stroke-linejoin="round"/>
<path d="M308.165 374.895H282.451V359.194C282.451 358.155 283.293 357.312 284.333 357.312H306.284C307.323 357.312 308.166 358.154 308.166 359.194L308.165 374.895Z" fill="#0D6EFD" stroke="black" stroke-miterlimit="10" stroke-linecap="round" stroke-linejoin="round"/>
<path opacity="0.3" d="M268.781 358.966H262.451V371.625H268.781V358.966Z" fill="white" fill-opacity="0.7"/>
<path opacity="0.3" d="M306.363 358.966H300.033V371.625H306.363V358.966Z" fill="white" fill-opacity="0.7"/>
<path d="M319.42 371.233V443.423H203.11V371.233C203.11 368.713 205.15 366.683 207.66 366.683H314.87C317.38 366.683 319.42 368.713 319.42 371.233Z" fill="#0D6EFD"/>
<mask id="mask19_205_1032" style="mask-type:luminance" maskUnits="userSpaceOnUse" x="203" y="366" width="117" height="78">
<path d="M319.42 371.233V443.423H203.11V371.233C203.11 368.713 205.15 366.683 207.66 366.683H314.87C317.38 366.683 319.42 368.713 319.42 371.233Z" fill="white"/>
</mask>
<g mask="url(#mask19_205_1032)">
<path opacity="0.3" d="M319.42 371.233V443.423H203.11V371.233C203.11 368.713 205.15 366.683 207.66 366.683H314.87C317.38 366.683 319.42 368.713 319.42 371.233Z" fill="black" fill-opacity="0.7"/>
</g>
<path d="M319.42 371.233V443.423H203.11V371.233C203.11 368.713 205.15 366.683 207.66 366.683H314.87C317.38 366.683 319.42 368.713 319.42 371.233Z" stroke="black" stroke-miterlimit="10" stroke-linecap="round" stroke-linejoin="round"/>
<path d="M319.42 371.233V443.423H233.11V371.233C233.11 368.713 235.15 366.683 237.66 366.683H314.87C317.38 366.683 319.42 368.713 319.42 371.233Z" fill="#0D6EFD" stroke="black" stroke-miterlimit="10" stroke-linecap="round" stroke-linejoin="round"/>
<path opacity="0.3" d="M313.582 373.802H239.802C238.764 373.802 237.923 372.961 237.923 371.923C237.923 370.885 238.764 370.044 239.802 370.044H313.582C314.62 370.044 315.461 370.885 315.461 371.923C315.461 372.96 314.62 373.802 313.582 373.802Z" fill="white" fill-opacity="0.7"/>
<path d="M176.98 443.423C170.97 443.423 162.55 439.563 152.84 435.483C142.77 431.243 131.3 426.763 119.66 426.093C115.32 425.843 117.95 443.423 117.95 443.423H108.45C108.45 443.423 99.0898 430.903 98.0298 419.693C98.0298 419.693 105.69 414.963 107.53 414.683C107.91 414.623 108.62 414.603 109.44 414.593C111.5 414.573 114.25 414.683 114.25 414.683C114.25 414.683 114.24 414.683 114.23 414.673C113.79 414.413 106.78 410.193 102.91 405.903C99.7198 402.363 98.2548 396.768 98.1498 393.433C98.0978 391.774 98.8838 386.834 98.8838 386.834L148.8 387.663C148.8 387.663 149.34 388.043 150.3 388.753C156.09 392.973 177.25 408.693 187.83 420.543C191.25 424.373 193.56 427.793 193.9 430.293C195.48 441.843 186.05 443.423 176.98 443.423Z" fill="white" stroke="black" stroke-miterlimit="10" stroke-linecap="round" stroke-linejoin="round"/>
<path d="M187.83 420.543L163.55 426.093C163.55 426.093 157.22 429.473 152.84 435.483C142.77 431.243 131.3 426.763 119.66 426.093C115.32 425.843 117.95 443.423 117.95 443.423H108.45C108.45 443.423 99.0898 430.903 98.0298 419.693C98.0298 419.693 106.87 432.293 108.98 438.653C108.98 438.653 112.41 426.813 117.95 422.063C117.95 422.063 114.22 417.713 109.44 414.593C111.5 414.573 114.25 414.683 114.25 414.683C114.25 414.683 114.24 414.683 114.23 414.673C113.79 414.413 106.78 410.193 102.91 405.903C99.7198 402.363 98.4258 396.758 98.1498 393.433C98.0138 391.789 98.2068 386.834 98.2068 386.834C98.2068 386.834 135.44 392.143 150.3 388.753C156.09 392.973 177.25 408.693 187.83 420.543Z" fill="black"/>
<path d="M148.802 419.692C148.802 419.692 168.582 429.603 173.857 433.483C179.132 437.363 180.708 436.308 180.708 436.308" stroke="black" stroke-miterlimit="10" stroke-linecap="round" stroke-linejoin="round"/>
<path d="M102.912 418.637C102.912 418.637 107.659 425.889 107.923 428.065" stroke="black" stroke-miterlimit="10" stroke-linecap="round" stroke-linejoin="round"/>
<path d="M182.466 279.481C182.466 279.481 193.022 274.895 192.033 294.382C191.044 313.868 194.604 314.857 194.604 314.857C194.604 314.857 168.098 325.736 161.373 316.439C154.648 307.142 161.031 281.688 182.466 279.481Z" fill="black"/>
<path d="M180.977 314.857C180.977 314.857 170.077 320 169.088 324.747C168.099 329.494 154.451 322.355 154.451 322.355L164.341 308.13L180.977 314.857Z" fill="white" stroke="black" stroke-miterlimit="10" stroke-linecap="round" stroke-linejoin="round"/>
<path d="M109.531 367.022C84.4938 398.856 104.821 414.221 133.163 411.682L127.483 420.648L141.735 423.121C141.735 423.121 152.673 415.983 167.57 408.352C192.932 395.36 203.174 396.131 200.537 383.121C197.9 370.111 166.846 361.671 135.692 375.385C135.692 375.385 118.765 355.281 109.531 367.022Z" fill="white" stroke="black" stroke-miterlimit="10" stroke-linecap="round" stroke-linejoin="round"/>
<path d="M118.253 436.307C118.253 436.307 124.758 418.291 127.484 417.318C130.21 416.345 140.429 420.219 141.736 423.12C141.736 423.12 145.21 417.796 146.633 420.063C148.055 422.329 146.002 426.022 146.633 428.923C147.264 431.824 154.287 435.78 157.105 436.308C159.923 436.835 161.506 438.418 161.506 440C161.506 441.582 161.506 443.429 161.506 443.429H118.253C118.253 443.429 116.67 440.491 118.253 436.307Z" fill="white" stroke="black" stroke-miterlimit="10" stroke-linecap="round" stroke-linejoin="round"/>
<path d="M146.633 426.094C146.633 426.094 140.9 428.922 138.807 428.131C136.714 427.34 139.879 432.878 140.67 433.406C141.461 433.933 146.632 431.56 146.632 431.56" stroke="black" stroke-miterlimit="10" stroke-linecap="round" stroke-linejoin="round"/>
<path d="M123.665 423.12C123.665 423.12 131.44 423.266 133.813 426.094" stroke="black" stroke-miterlimit="10" stroke-linecap="round" stroke-linejoin="round"/>
<path d="M118.253 436.307C118.253 436.307 130.649 439.208 131.704 439.208C132.759 439.208 136.715 437.757 136.715 437.757C136.715 437.757 140.11 439.471 142.369 440.526C144.628 441.581 159.397 440.526 159.397 440.526" stroke="black" stroke-miterlimit="10" stroke-linecap="round" stroke-linejoin="round"/>
<path d="M133.164 411.682C145.012 410.395 167.996 395.807 175.96 390.739C183.924 385.67 186.034 386.989 186.034 386.989" stroke="black" stroke-miterlimit="10" stroke-linecap="round" stroke-linejoin="round"/>
<path d="M98.207 386.834L100.1 372.483L104.662 369.04C112.047 351.106 145.528 317.623 154.648 317.729C168.362 317.889 170.781 332.276 172.473 348.028C174.165 363.779 152.802 361.406 152.802 361.406V365.362L140.654 371.652L148.011 371.42C148.011 371.42 126.846 391.99 98.207 386.834Z" fill="#0D6EFD" stroke="black" stroke-miterlimit="10" stroke-linecap="round" stroke-linejoin="round"/>
<path d="M157.55 289.946C160.416 280.955 173.562 278.547 178.266 280.024C181.224 280.953 185.342 284.212 187.177 288.154C188.379 290.736 185.869 295.319 187.657 297.991C190.218 301.819 190.001 309.897 189.077 314.949C188.582 317.653 177.35 319.255 168.167 312.968C158.308 306.216 154.771 298.664 157.55 289.946Z" fill="white" stroke="black" stroke-miterlimit="10" stroke-linecap="round" stroke-linejoin="round"/>
<path d="M170.815 277.385C170.815 277.385 182.379 275.498 182.456 278.472C182.971 298.199 171.143 302.341 171.143 302.341C171.143 302.341 166.313 298.496 165.227 301.134C164.141 303.773 166.934 311.068 170.349 311.223C170.349 311.223 167.713 314.659 170.208 319.464C170.208 319.464 150.632 322.73 149.01 313.659C149.01 313.659 150.104 309.358 150.631 304.083C151.904 291.373 148.929 282.818 170.815 277.385Z" fill="black"/>
<path d="M186.26 297.486C188.671 299.664 190.402 299.664 190.373 300.435C190.283 302.87 187.346 304.083 187.346 304.083" fill="white"/>
<path d="M186.26 297.486C188.671 299.664 190.402 299.664 190.373 300.435C190.283 302.87 187.346 304.083 187.346 304.083" stroke="black" stroke-miterlimit="10" stroke-linecap="round" stroke-linejoin="round"/>
<path d="M187.309 308.13C187.309 308.13 184.877 309.089 182.042 308.262" stroke="black" stroke-miterlimit="10" stroke-linecap="round" stroke-linejoin="round"/>
<path d="M180.905 285.379C180.905 285.379 188.588 283.148 187.177 295.629C187.177 295.629 190.385 291.285 190.374 286.388C190.354 277.925 179.043 279.62 179.043 279.62L180.518 285.612" fill="black"/>
<path d="M187.89 291.491C187.89 291.491 187.251 290.918 185.853 291.122" stroke="black" stroke-miterlimit="10" stroke-linecap="round" stroke-linejoin="round"/>
<path d="M182.709 291.355C182.709 291.355 178.576 291.588 176.791 294.382" stroke="black" stroke-miterlimit="10" stroke-linecap="round" stroke-linejoin="round"/>
<path d="M181.719 297.92C181.782 298.581 181.5 299.149 181.09 299.188C180.68 299.227 180.297 298.722 180.235 298.06C180.172 297.399 180.454 296.831 180.864 296.792C181.274 296.754 181.656 297.259 181.719 297.92Z" fill="black"/>
<path d="M133.813 414.681C133.813 414.681 143.012 415.653 145.011 419.692" stroke="black" stroke-miterlimit="10" stroke-linecap="round" stroke-linejoin="round"/>
<path d="M157.105 324.483C157.105 324.483 162.435 321.055 169.751 322.901C177.067 324.747 196.056 351.912 198.693 354.549C201.33 357.186 206.275 358.594 210.825 363.342C218.025 370.855 228.495 377.494 229.55 377.494C230.605 377.494 231.462 376.835 232.781 376.571C234.1 376.307 244.319 375.384 244.319 375.384C244.319 375.384 247.748 376.146 244.319 377.611C240.89 379.076 241.154 380.395 241.154 380.395C241.154 380.395 240.465 381.505 241.843 382.56C243.22 383.615 244.034 383.042 246.001 385.834C247.968 388.626 243.221 387.043 243.221 387.043C243.221 387.043 244.276 390.06 242.166 389.738C240.056 389.416 241.902 392.67 238.474 392.23C235.046 391.79 227.705 387.163 225.859 382.306C225.859 382.306 195.925 367.998 191.441 364.306C186.957 360.614 168.123 340.833 166.793 340.57" fill="white"/>
<path d="M157.105 324.483C157.105 324.483 162.435 321.055 169.751 322.901C177.067 324.747 196.056 351.912 198.693 354.549C201.33 357.186 206.275 358.594 210.825 363.342C218.025 370.855 228.495 377.494 229.55 377.494C230.605 377.494 231.462 376.835 232.781 376.571C234.1 376.307 244.319 375.384 244.319 375.384C244.319 375.384 247.748 376.146 244.319 377.611C240.89 379.076 241.154 380.395 241.154 380.395C241.154 380.395 240.465 381.505 241.843 382.56C243.22 383.615 244.034 383.042 246.001 385.834C247.968 388.626 243.221 387.043 243.221 387.043C243.221 387.043 244.276 390.06 242.166 389.738C240.056 389.416 241.902 392.67 238.474 392.23C235.046 391.79 227.705 387.163 225.859 382.306C225.859 382.306 195.925 367.998 191.441 364.306C186.957 360.614 168.123 340.833 166.793 340.57" stroke="black" stroke-miterlimit="10" stroke-linecap="round" stroke-linejoin="round"/>
<path d="M152.802 321.582C152.802 321.582 167.561 317.626 172.709 320.527C177.857 323.428 187.615 336.879 187.615 336.879C187.615 336.879 175.721 347.532 172.041 346.557C168.362 345.582 157.104 344 157.104 344" fill="#0D6EFD"/>
<path d="M152.802 321.582C152.802 321.582 167.561 317.626 172.709 320.527C177.857 323.428 187.615 336.879 187.615 336.879C187.615 336.879 175.721 347.532 172.041 346.557C168.362 345.582 157.104 344 157.104 344" stroke="black" stroke-miterlimit="10" stroke-linecap="round" stroke-linejoin="round"/>
<path d="M165.597 345.302C165.597 345.302 160.249 348.244 158.276 348.244" stroke="black" stroke-miterlimit="10" stroke-linecap="round" stroke-linejoin="round"/>
<path d="M157.105 330.549C157.55 331.34 157.399 339.992 166.792 342.681" stroke="black" stroke-miterlimit="10" stroke-linecap="round" stroke-linejoin="round"/>
<path d="M106.912 369.318C106.912 369.318 126.956 372.747 133.813 366.681" stroke="black" stroke-miterlimit="10" stroke-linecap="round" stroke-linejoin="round"/>
<path d="M140.655 371.652C140.655 371.652 135.66 370.77 133.814 373.341C131.968 375.912 121.946 378.286 121.946 378.286" stroke="black" stroke-miterlimit="10" stroke-linecap="round" stroke-linejoin="round"/>
<path d="M100.451 390.739C100.451 390.739 97.5649 403.196 109.887 408.774" stroke="black" stroke-miterlimit="10" stroke-linecap="round" stroke-linejoin="round"/>
<path d="M106.912 391.604C106.912 391.604 106.978 397.736 108.956 401.099L115.088 403.077L121.945 399.259C121.945 399.259 120.494 391.407 120.362 389.825" stroke="black" stroke-miterlimit="10" stroke-linecap="round" stroke-linejoin="round"/>
</svg>
