<svg width="750" height="500" viewBox="0 0 750 500" fill="none" xmlns="http://www.w3.org/2000/svg">
<path d="M345.178 55.621C345.178 55.621 144.966 65.387 69.7642 152.309C-5.43785 239.231 11.1662 340.801 173.289 420.886C335.412 500.971 519.998 444.325 616.685 398.423C713.373 352.521 743.037 216.139 685.05 154.262C627.063 92.385 527.811 46.831 345.178 55.621Z" fill="#0D6EFD"/>
<path opacity="0.8" d="M345.178 55.621C345.178 55.621 144.966 65.387 69.7642 152.309C-5.43785 239.231 11.1662 340.801 173.289 420.886C335.412 500.971 519.998 444.325 616.685 398.423C713.373 352.521 743.037 216.139 685.05 154.262C627.063 92.385 527.811 46.831 345.178 55.621Z" fill="white"/>
<path d="M211.388 286.396C211.388 286.396 261.498 291.354 286.896 322.418C286.896 322.418 313.729 286.432 361.923 287.169C375.908 270.313 384.321 248.666 384.329 225.052C384.347 171.26 340.755 127.637 286.963 127.619C233.171 127.6 189.548 171.193 189.53 224.985C189.522 248.304 197.713 269.708 211.374 286.481L211.388 286.396Z" fill="#0D6EFD"/>
<path opacity="0.4" d="M211.388 286.396C211.388 286.396 261.498 291.354 286.896 322.418C286.896 322.418 313.729 286.432 361.923 287.169C375.908 270.313 384.321 248.666 384.329 225.052C384.347 171.26 340.755 127.637 286.963 127.619C233.171 127.6 189.548 171.193 189.53 224.985C189.522 248.304 197.713 269.708 211.374 286.481L211.388 286.396Z" fill="white"/>
<path d="M239.564 251.206C264.596 259.133 280.141 282.396 284.196 289.112L283.831 454.672H291.034L289.949 309.449C295.406 301.185 311.022 280.565 335.138 273.197C335.138 273.197 306.496 279.991 289.77 302.815L288.834 268.047C292.955 261.442 309.088 238.021 335.139 230.061C335.139 230.061 305.182 237.162 288.651 261.25L287.707 226.211L287.774 226.678C287.774 226.678 304.69 196.229 335.139 186.926C335.139 186.926 303.79 194.366 287.535 219.818L285.237 172.657L284.525 240.257C268.596 216.045 239.564 208.917 239.564 208.917C265.206 217.037 280.898 241.258 284.477 247.292L284.243 282.137C268.257 258.259 239.564 251.206 239.564 251.206Z" fill="black"/>
<path d="M239.564 251.206C264.596 259.133 280.141 282.396 284.196 289.112L283.831 454.672H291.034L289.949 309.449C295.406 301.185 311.022 280.565 335.138 273.197C335.138 273.197 306.496 279.991 289.77 302.815L288.834 268.047C292.955 261.442 309.088 238.021 335.139 230.061C335.139 230.061 305.182 237.162 288.651 261.25L287.707 226.211L287.774 226.678C287.774 226.678 304.69 196.229 335.139 186.926C335.139 186.926 303.79 194.366 287.535 219.818L285.237 172.657L284.525 240.257C268.596 216.045 239.564 208.917 239.564 208.917C265.206 217.037 280.898 241.258 284.477 247.292L284.243 282.137C268.257 258.259 239.564 251.206 239.564 251.206Z" fill="black"/>
<path d="M411.781 314.207C411.781 314.207 453.609 318.346 474.81 344.275C474.81 344.275 497.208 314.236 537.438 314.852C549.112 300.781 556.134 282.712 556.141 263.001C556.156 218.099 519.769 181.686 474.867 181.67C429.965 181.655 393.552 218.042 393.536 262.944C393.529 282.409 400.367 300.275 411.769 314.276L411.781 314.207Z" fill="#0D6EFD"/>
<path opacity="0.4" d="M411.781 314.207C411.781 314.207 453.609 318.346 474.81 344.275C474.81 344.275 497.208 314.236 537.438 314.852C549.112 300.781 556.134 282.712 556.141 263.001C556.156 218.099 519.769 181.686 474.867 181.67C429.965 181.655 393.552 218.042 393.536 262.944C393.529 282.409 400.367 300.275 411.769 314.276L411.781 314.207Z" fill="white"/>
<path d="M435.301 284.832C456.196 291.449 469.171 310.867 472.556 316.473L472.252 454.671H478.265L477.36 333.45C481.915 326.552 494.951 309.34 515.081 303.189C515.081 303.189 491.172 308.86 477.211 327.912L476.429 298.89C479.869 293.376 493.336 273.826 515.081 267.182C515.081 267.182 490.075 273.109 476.276 293.216L475.488 263.968L475.544 264.358C475.544 264.358 489.664 238.942 515.081 231.176C515.081 231.176 488.913 237.386 475.345 258.632L473.426 219.265L472.831 275.693C459.534 255.482 435.301 249.532 435.301 249.532C456.705 256.31 469.804 276.528 472.791 281.565L472.595 310.651C459.252 290.72 435.301 284.832 435.301 284.832Z" fill="black"/>
<path d="M435.301 284.832C456.196 291.449 469.171 310.867 472.556 316.473L472.252 454.671H478.265L477.36 333.45C481.915 326.552 494.951 309.34 515.081 303.189C515.081 303.189 491.172 308.86 477.211 327.912L476.429 298.89C479.869 293.376 493.336 273.826 515.081 267.182C515.081 267.182 490.075 273.109 476.276 293.216L475.488 263.968L475.544 264.358C475.544 264.358 489.664 238.942 515.081 231.176C515.081 231.176 488.913 237.386 475.345 258.632L473.426 219.265L472.831 275.693C459.534 255.482 435.301 249.532 435.301 249.532C456.705 256.31 469.804 276.528 472.791 281.565L472.595 310.651C459.252 290.72 435.301 284.832 435.301 284.832Z" fill="black"/>
<path d="M43.2538 314.207C43.2538 314.207 85.0818 318.346 106.283 344.275C106.283 344.275 128.681 314.236 168.91 314.852C180.584 300.781 187.606 282.712 187.613 263.001C187.628 218.099 151.241 181.686 106.338 181.67C61.4358 181.655 25.0228 218.042 25.0068 262.944C24.9998 282.409 31.8378 300.275 43.2398 314.276L43.2538 314.207Z" fill="#0D6EFD"/>
<path opacity="0.4" d="M43.2538 314.207C43.2538 314.207 85.0818 318.346 106.283 344.275C106.283 344.275 128.681 314.236 168.91 314.852C180.584 300.781 187.606 282.712 187.613 263.001C187.628 218.099 151.241 181.686 106.338 181.67C61.4358 181.655 25.0228 218.042 25.0068 262.944C24.9998 282.409 31.8378 300.275 43.2398 314.276L43.2538 314.207Z" fill="white"/>
<path d="M66.7739 284.832C87.6689 291.449 100.644 310.867 104.03 316.473L103.726 454.671H109.739L108.834 333.449C113.389 326.551 126.425 309.339 146.555 303.188C146.555 303.188 122.646 308.859 108.685 327.911L107.903 298.889C111.343 293.375 124.81 273.825 146.555 267.181C146.555 267.181 121.549 273.108 107.75 293.215L106.962 263.967L107.018 264.357C107.018 264.357 121.138 238.941 146.555 231.175C146.555 231.175 120.387 237.385 106.819 258.631L104.9 219.264L104.305 275.692C91.0079 255.481 66.7749 249.531 66.7749 249.531C88.1789 256.309 101.278 276.527 104.266 281.564L104.07 310.65C90.7239 290.72 66.7739 284.832 66.7739 284.832Z" fill="black"/>
<path d="M66.7739 284.832C87.6689 291.449 100.644 310.867 104.03 316.473L103.726 454.671H109.739L108.834 333.449C113.389 326.551 126.425 309.339 146.555 303.188C146.555 303.188 122.646 308.859 108.685 327.911L107.903 298.889C111.343 293.375 124.81 273.825 146.555 267.181C146.555 267.181 121.549 273.108 107.75 293.215L106.962 263.967L107.018 264.357C107.018 264.357 121.138 238.941 146.555 231.175C146.555 231.175 120.387 237.385 106.819 258.631L104.9 219.264L104.305 275.692C91.0079 255.481 66.7749 249.531 66.7749 249.531C88.1789 256.309 101.278 276.527 104.266 281.564L104.07 310.65C90.7239 290.72 66.7739 284.832 66.7739 284.832Z" fill="black"/>
<path d="M556.427 286.635C556.427 286.635 606.466 291.586 631.828 322.605C631.828 322.605 658.622 286.67 706.748 287.406C720.713 270.574 729.114 248.957 729.122 225.377C729.14 171.661 685.61 128.101 631.894 128.082C578.178 128.064 534.618 171.594 534.599 225.309C534.591 248.595 542.77 269.968 556.411 286.717L556.427 286.635Z" fill="#0D6EFD"/>
<path opacity="0.4" d="M556.427 286.635C556.427 286.635 606.466 291.586 631.828 322.605C631.828 322.605 658.622 286.67 706.748 287.406C720.713 270.574 729.114 248.957 729.122 225.377C729.14 171.661 685.61 128.101 631.894 128.082C578.178 128.064 534.618 171.594 534.599 225.309C534.591 248.595 542.77 269.968 556.411 286.717L556.427 286.635Z" fill="white"/>
<path d="M584.563 251.495C609.559 259.411 625.082 282.641 629.131 289.347L628.767 454.672H635.96L634.877 309.656C640.326 301.404 655.92 280.813 680.002 273.455C680.002 273.455 651.4 280.239 634.698 303.031L633.763 268.312C637.878 261.716 653.989 238.329 680.002 230.38C680.002 230.38 650.088 237.471 633.58 261.524L632.638 226.535L632.705 227.001C632.705 227.001 649.597 196.596 680.002 187.305C680.002 187.305 648.697 194.735 632.466 220.15L630.171 173.055L629.46 240.56C613.553 216.382 584.563 209.264 584.563 209.264C610.168 217.372 625.838 241.559 629.412 247.585L629.178 282.381C613.215 258.539 584.563 251.495 584.563 251.495Z" fill="black"/>
<path d="M584.563 251.495C609.559 259.411 625.082 282.641 629.131 289.347L628.767 454.672H635.96L634.877 309.656C640.326 301.404 655.92 280.813 680.002 273.455C680.002 273.455 651.4 280.239 634.698 303.031L633.763 268.312C637.878 261.716 653.989 238.329 680.002 230.38C680.002 230.38 650.088 237.471 633.58 261.524L632.638 226.535L632.705 227.001C632.705 227.001 649.597 196.596 680.002 187.305C680.002 187.305 648.697 194.735 632.466 220.15L630.171 173.055L629.46 240.56C613.553 216.382 584.563 209.264 584.563 209.264C610.168 217.372 625.838 241.559 629.412 247.585L629.178 282.381C613.215 258.539 584.563 251.495 584.563 251.495Z" fill="black"/>
<path d="M404.159 55.997C403.94 55.323 403.714 54.645 403.469 53.966C394.458 28.909 352.538 27.181 352.537 57.976C352.537 63.907 338.302 57.9759 332.964 65.6859C327.626 73.3959 333.557 78.141 326.44 80.514C319.323 82.886 318.73 76.955 309.833 77.549C300.936 78.142 302.122 86.446 299.157 88.818C296.192 91.19 296.191 90.004 289.667 90.597C283.143 91.19 281.957 95.9349 281.957 95.9349H437.947C437.947 95.9349 443.878 78.1419 433.202 71.6169C422.526 65.0929 422.526 73.989 414.222 70.431C407.362 67.492 406.077 61.911 404.159 55.997Z" stroke="black" stroke-miterlimit="10" stroke-linecap="round" stroke-linejoin="round"/>
<path d="M409.553 89.4459C409.553 89.4459 412.784 79.4579 404.853 72.1149C396.922 64.7709 388.697 68.8829 386.346 72.1149C383.996 75.3459 383.996 81.5149 380.177 82.1029C376.358 82.6909 377.239 75.6399 369.014 77.4029C360.789 79.1649 364.02 87.3909 360.201 89.1529C356.382 90.9149 356.382 84.4529 351.095 86.5089C345.807 88.5649 346.101 92.3839 346.101 92.3839" stroke="black" stroke-miterlimit="10" stroke-linecap="round" stroke-linejoin="round"/>
<path d="M367.361 69.4899C367.361 69.4899 360.82 64.2569 352.316 68.1819C343.812 72.1069 347.737 80.2839 343.812 82.2459C339.887 84.2079 337.925 81.9189 333.019 84.2079C328.113 86.4979 328.44 89.7679 328.44 89.7679" stroke="black" stroke-miterlimit="10" stroke-linecap="round" stroke-linejoin="round"/>
<path d="M225.959 100.18C225.864 99.8869 225.765 99.5919 225.659 99.2959C221.739 88.3949 203.501 87.6429 203.501 101.041C203.501 103.621 197.308 101.041 194.986 104.396C192.664 107.75 195.244 109.815 192.148 110.847C189.051 111.879 188.793 109.299 184.923 109.557C181.052 109.815 181.568 113.428 180.278 114.46C178.988 115.492 178.988 114.976 176.149 115.234C173.311 115.492 172.794 117.556 172.794 117.556H240.659C240.659 117.556 243.239 109.815 238.595 106.976C233.951 104.137 233.95 108.008 230.337 106.46C227.353 105.181 226.794 102.754 225.959 100.18Z" stroke="black" stroke-miterlimit="10" stroke-linecap="round" stroke-linejoin="round"/>
<path d="M228.306 114.733C228.306 114.733 229.712 110.388 226.261 107.193C222.81 103.998 219.232 105.787 218.21 107.193C217.188 108.599 217.188 111.283 215.526 111.538C213.865 111.794 214.248 108.726 210.669 109.493C207.091 110.26 208.496 113.838 206.835 114.605C205.174 115.372 205.174 112.56 202.873 113.455C200.573 114.35 200.7 116.011 200.7 116.011" stroke="black" stroke-miterlimit="10" stroke-linecap="round" stroke-linejoin="round"/>
<path d="M209.95 106.051C209.95 106.051 207.104 103.774 203.405 105.482C199.705 107.189 201.413 110.747 199.705 111.601C197.998 112.455 197.144 111.459 195.009 112.455C192.875 113.451 193.017 114.874 193.017 114.874" stroke="black" stroke-miterlimit="10" stroke-linecap="round" stroke-linejoin="round"/>
<path d="M574.513 98.8629C574.418 98.5699 574.319 98.2749 574.213 97.9789C570.293 87.0779 552.055 86.3259 552.054 99.7239C552.054 102.304 545.861 99.7239 543.539 103.079C541.217 106.433 543.797 108.498 540.701 109.53C537.604 110.562 537.346 107.982 533.476 108.24C529.605 108.498 530.121 112.111 528.831 113.143C527.541 114.175 527.541 113.659 524.702 113.917C521.864 114.175 521.348 116.239 521.348 116.239H589.213C589.213 116.239 591.793 108.498 587.149 105.659C582.504 102.821 582.504 106.691 578.891 105.143C575.906 103.864 575.348 101.437 574.513 98.8629Z" stroke="black" stroke-miterlimit="10" stroke-linecap="round" stroke-linejoin="round"/>
<path d="M576.86 113.416C576.86 113.416 578.266 109.071 574.815 105.876C571.364 102.681 567.786 104.47 566.764 105.876C565.742 107.282 565.742 109.966 564.08 110.221C562.419 110.477 562.802 107.409 559.223 108.176C555.644 108.943 557.051 112.521 555.389 113.288C553.728 114.055 553.728 111.243 551.427 112.138C549.127 113.033 549.254 114.694 549.254 114.694" stroke="black" stroke-miterlimit="10" stroke-linecap="round" stroke-linejoin="round"/>
<path d="M558.504 104.733C558.504 104.733 555.658 102.456 551.959 104.164C548.259 105.871 549.967 109.429 548.259 110.283C546.552 111.137 545.698 110.141 543.563 111.137C541.428 112.133 541.571 113.556 541.571 113.556" stroke="black" stroke-miterlimit="10" stroke-linecap="round" stroke-linejoin="round"/>
<path d="M495.285 422.498C495.285 422.498 491.497 442.386 491.26 443.57C491.023 444.754 489.839 454.461 489.839 454.461L508.07 454.224L506.176 439.071L510.911 425.338L495.285 422.498Z" fill="white" stroke="black" stroke-miterlimit="10" stroke-linecap="round" stroke-linejoin="round"/>
<path d="M517.778 332.526C517.778 332.526 493.628 410.186 492.681 415.632C491.734 421.078 491.971 423.209 491.971 423.209L513.043 428.418L520.856 408.766L521.093 326.607L517.778 332.526Z" fill="#0D6EFD" stroke="black" stroke-miterlimit="10" stroke-linecap="round" stroke-linejoin="round"/>
<path d="M512.128 454.672L516.752 417.87L614.526 419.233L617.137 454.479L512.128 454.672Z" fill="black" stroke="black" stroke-miterlimit="10" stroke-linecap="round" stroke-linejoin="round"/>
<path d="M516.024 415.856L515.494 425.929C515.494 425.929 526.754 435.476 560.682 435.212C594.61 434.947 605.88 430.701 609.326 429.64C612.772 428.58 615.157 427.254 615.157 424.869C615.157 422.484 613.832 416.122 613.832 416.122C613.832 416.122 583.085 420.098 559.759 420.893C536.434 421.688 516.024 415.856 516.024 415.856Z" fill="#0D6EFD" stroke="black" stroke-miterlimit="10" stroke-linecap="round" stroke-linejoin="round"/>
<path d="M550.855 256.782C550.855 256.782 531.469 269.933 530.215 274.198C528.96 278.464 515.661 319.114 516.414 324.885C517.167 330.656 517.669 347.719 517.669 347.719C517.669 347.719 511.647 413.712 513.654 417.476C515.661 421.24 537.241 427.262 568.607 426.258C599.973 425.254 613.272 420.487 614.526 419.232C615.781 417.977 617.286 415.719 616.784 411.704C616.282 407.689 616.282 381.593 616.282 381.593L635.352 374.567C635.352 374.567 626.821 270.433 623.559 264.913C620.297 259.393 592.695 251.112 588.429 251.363C584.164 251.615 550.855 256.782 550.855 256.782Z" fill="#0D6EFD" stroke="black" stroke-miterlimit="10" stroke-linecap="round" stroke-linejoin="round"/>
<path d="M538.136 338.325L561.555 352.767" stroke="black" stroke-miterlimit="10" stroke-linecap="round" stroke-linejoin="round"/>
<path d="M530.171 333.413L535.605 336.764" stroke="black" stroke-miterlimit="10" stroke-linecap="round" stroke-linejoin="round"/>
<path d="M568.155 353.203L570.97 354.859" stroke="black" stroke-miterlimit="10" stroke-linecap="round" stroke-linejoin="round"/>
<path d="M553.186 344.398L564.714 351.179" stroke="black" stroke-miterlimit="10" stroke-linecap="round" stroke-linejoin="round"/>
<path d="M536.456 175.188C536.456 175.188 532.616 191.123 532.616 192.851C532.616 194.579 533.96 198.419 533.768 199.378C533.576 200.338 523.017 210.897 524.361 212.433C525.705 213.969 528.969 218.769 528.969 218.769C528.969 218.769 533.577 238.928 535.305 238.928C537.033 238.928 551.624 235.472 551.624 235.472L550.856 256.783L546.824 260.815C546.824 260.815 544.328 283.661 547.4 283.278C550.472 282.894 589.637 254.096 590.213 252.56C590.789 251.024 589.829 250.064 588.677 249.488C587.525 248.912 584.645 244.112 584.645 244.112C584.645 244.112 582.725 220.306 582.725 219.73C582.725 219.154 587.525 198.612 587.909 198.035C588.293 197.459 590.597 187.284 574.662 179.988C558.727 172.692 540.104 170.773 538.568 171.348C537.032 171.924 536.456 175.188 536.456 175.188Z" fill="white" stroke="black" stroke-miterlimit="10" stroke-linecap="round" stroke-linejoin="round"/>
<path d="M551.623 235.471L561.766 233.896L552.012 244.695L551.623 235.471Z" fill="black" stroke="black" stroke-miterlimit="10" stroke-linecap="round" stroke-linejoin="round"/>
<path d="M533.961 219.345C533.961 219.345 539.913 219.921 543.944 215.697C543.944 215.697 543.752 222.993 541.064 223.953C538.376 224.912 533.961 219.345 533.961 219.345Z" fill="black" stroke="black" stroke-miterlimit="10" stroke-linecap="round" stroke-linejoin="round"/>
<path d="M539.72 198.802C539.72 200.074 539.247 201.106 538.664 201.106C538.081 201.106 537.608 200.074 537.608 198.802C537.608 197.53 538.081 196.498 538.664 196.498C539.247 196.498 539.72 197.53 539.72 198.802Z" fill="black"/>
<path d="M536.073 190.942C536.073 190.942 538.818 188.947 543.56 190.942" stroke="black" stroke-miterlimit="10" stroke-linecap="round" stroke-linejoin="round"/>
<path d="M558.409 152.2C558.409 152.2 548.897 145.449 541.839 145.449C534.781 145.449 529.258 150.666 529.258 154.655C529.258 158.644 530.792 161.712 528.951 163.247C527.11 164.781 522.814 160.179 520.359 166.622C517.904 173.066 528.337 179.51 530.485 180.124C532.633 180.738 536.008 176.135 537.85 177.669C539.691 179.203 540.612 182.579 545.214 182.579C549.817 182.579 554.113 178.897 555.34 180.738C556.567 182.579 553.499 188.102 555.647 189.637C557.795 191.171 562.091 194.853 562.091 194.853C562.091 194.853 559.943 200.683 561.477 201.297C563.011 201.911 563.011 201.911 563.011 201.911C563.011 201.911 565.773 195.467 569.762 196.081C573.751 196.695 574.978 198.229 574.978 204.98C574.978 211.731 567.614 214.186 567.614 214.186C567.614 214.186 574.671 222.471 576.82 223.085C578.968 223.699 582.343 225.847 583.571 223.699C584.798 221.551 591.549 208.356 592.777 206.822C594.004 205.288 602.903 204.981 604.744 197.923C606.585 190.865 601.369 187.49 603.517 185.342C605.665 183.194 614.564 182.273 611.802 172.761C609.04 163.249 601.676 162.635 598.914 161.714C596.152 160.793 592.777 153.736 588.481 151.895C584.185 150.054 581.73 151.281 580.81 151.588C579.889 151.895 579.276 147.292 570.377 148.213C561.477 149.132 558.409 152.2 558.409 152.2Z" fill="black" stroke="black" stroke-miterlimit="10" stroke-linecap="round" stroke-linejoin="round"/>
<path d="M537.078 206.527C534.653 206.527 531.702 205.607 530.706 204.445C529.393 202.913 528.512 194.954 529.376 192.45C529.709 191.488 530.276 191.186 530.693 191.103C530.947 191.052 531.625 190.917 541.933 191.534C542.744 191.582 543.503 191.969 544.018 192.594C544.534 193.22 544.768 194.041 544.661 194.847V194.848C544.421 196.644 544.091 199.088 543.974 199.904C543.748 201.489 541.712 204.856 539.629 206.012C538.984 206.371 538.075 206.527 537.078 206.527ZM531.276 193.053C530.706 194.42 531.187 201.808 532.226 203.146C533.069 204.129 537.315 205.007 538.659 204.263C540.07 203.479 541.843 200.68 541.994 199.62C542.11 198.807 542.438 196.371 542.679 194.581C542.714 194.32 542.642 194.065 542.476 193.864C542.311 193.663 542.076 193.544 541.815 193.529C535.287 193.139 532.152 193.028 531.276 193.053Z" fill="black"/>
<path d="M543.669 194.714L566.022 197.65L564.103 199.378L549.896 198.226L547.4 199.378L542.984 199.762L543.669 194.714Z" fill="black" stroke="black" stroke-miterlimit="10" stroke-linecap="round" stroke-linejoin="round"/>
<path d="M515.484 358.503C515.484 358.503 508.032 350.893 509.301 349.941C510.569 348.99 512.789 348.99 514.216 350.575C515.643 352.161 523.253 361.356 523.253 361.356L515.484 358.503Z" fill="white" stroke="black" stroke-miterlimit="10" stroke-linecap="round" stroke-linejoin="round"/>
<path d="M525.156 365.479C525.156 365.479 517.387 361.674 515.802 360.723C514.217 359.772 506.13 354.698 507.082 353.588C508.033 352.478 510.729 352.003 512.631 353.905C514.534 355.808 522.144 359.296 522.62 359.454C523.096 359.613 526.901 364.845 526.901 364.845L525.156 365.479Z" fill="white" stroke="black" stroke-miterlimit="10" stroke-linecap="round" stroke-linejoin="round"/>
<path d="M565.11 365.32C565.11 365.32 554.17 360.881 553.377 360.405C552.584 359.929 550.84 356.283 548.303 354.38C545.766 352.477 542.754 352.002 540.217 351.05C537.68 350.099 532.765 347.562 531.972 347.086C531.179 346.61 528.008 348.989 532.289 352.318C536.57 355.647 539.741 358.026 539.741 358.026C539.741 358.026 533.399 358.343 531.338 358.66C529.277 358.977 524.838 358.501 524.203 357.709C523.569 356.916 518.971 350.574 517.544 349.306C516.117 348.038 512.946 347.562 512.312 349.623C511.678 351.684 514.056 351.526 517.703 356.599C521.35 361.673 526.265 368.49 528.801 368.332C531.338 368.174 550.047 370.235 550.047 370.235L566.695 377.845L565.11 365.32Z" fill="white" stroke="black" stroke-miterlimit="10" stroke-linecap="round" stroke-linejoin="round"/>
<path d="M602.732 290.258C602.732 290.258 596.208 313.092 597.964 319.867C599.721 326.642 610.259 362.022 610.259 362.022C610.259 362.022 574.628 362.775 570.362 362.775C566.096 362.775 563.838 363.277 563.838 363.277L563.587 385.358C563.587 385.358 594.451 393.388 614.776 391.38C635.101 389.373 647.647 386.361 648.4 382.848C649.153 379.335 648.902 375.32 648.902 375.32C648.902 375.32 636.607 301.799 633.345 289.755C630.083 277.711 626.57 263.91 623.81 261.902C621.05 259.895 605.492 257.134 605.492 257.134" fill="#0D6EFD"/>
<path d="M602.732 290.258C602.732 290.258 596.208 313.092 597.964 319.867C599.721 326.642 610.259 362.022 610.259 362.022C610.259 362.022 574.628 362.775 570.362 362.775C566.096 362.775 563.838 363.277 563.838 363.277L563.587 385.358C563.587 385.358 594.451 393.388 614.776 391.38C635.101 389.373 647.647 386.361 648.4 382.848C649.153 379.335 648.902 375.32 648.902 375.32C648.902 375.32 636.607 301.799 633.345 289.755C630.083 277.711 626.57 263.91 623.81 261.902C621.05 259.895 605.492 257.134 605.492 257.134" stroke="black" stroke-miterlimit="10" stroke-linecap="round" stroke-linejoin="round"/>
<path d="M673.486 60.749H589.921C584.575 60.749 580.242 65.082 580.242 70.428V117.082C580.242 122.428 584.575 126.761 589.921 126.761H621.211L613.654 146.787L632.274 126.761H673.485C678.831 126.761 683.164 122.427 683.164 117.082V70.428C683.165 65.082 678.832 60.749 673.486 60.749Z" fill="white" stroke="black" stroke-miterlimit="10" stroke-linecap="round" stroke-linejoin="round"/>
<path d="M613.914 92.385C613.914 89.822 611.836 87.744 609.273 87.744C606.71 87.744 604.632 89.822 604.632 92.385C604.632 94.948 606.71 97.026 609.273 97.026C611.836 97.026 613.914 94.948 613.914 92.385Z" fill="black"/>
<path d="M636.345 92.385C636.345 89.822 634.267 87.744 631.704 87.744C629.141 87.744 627.063 89.822 627.063 92.385C627.063 94.948 629.141 97.026 631.704 97.026C634.267 97.026 636.345 94.948 636.345 92.385Z" fill="black"/>
<path d="M658.776 92.385C658.776 89.822 656.698 87.744 654.135 87.744C651.572 87.744 649.494 89.822 649.494 92.385C649.494 94.948 651.572 97.026 654.135 97.026C656.698 97.026 658.776 94.948 658.776 92.385Z" fill="black"/>
<path d="M444.678 454.672C444.937 449.919 445.268 442.346 444.935 439.522C444.436 435.28 434.106 404.947 434.106 404.947L314.415 404.834L311.224 454.673H444.678V454.672Z" fill="black" stroke="black" stroke-miterlimit="10" stroke-linecap="round" stroke-linejoin="round"/>
<path d="M442.69 408.078L438.947 411.572L431.71 417.562L444.937 439.523C444.937 439.523 450.178 434.033 450.927 431.787C451.676 429.541 453.423 422.803 453.423 422.803L454.92 419.309L442.69 408.078Z" fill="white" stroke="black" stroke-miterlimit="10" stroke-linecap="round" stroke-linejoin="round"/>
<path d="M349.24 246.339C349.24 246.339 306.966 259.371 305.377 265.728C303.788 272.085 279.631 337.563 279.631 337.563L318.091 341.695C318.091 341.695 309.509 406.219 311.098 408.126C312.687 410.033 364.497 411.94 374.033 412.258C383.569 412.576 432.836 407.172 434.107 404.947C435.378 402.722 435.061 397.636 435.061 397.636L433.472 350.594L433.79 331.205L451.272 365.533C451.272 365.533 456.358 369.665 465.575 368.394C474.793 367.123 481.468 362.99 479.561 350.277C477.654 337.563 452.544 279.396 449.683 270.814C446.822 262.232 443.962 258.1 439.512 255.875C435.062 253.65 391.834 242.843 391.834 242.843L349.24 246.339Z" fill="#0D6EFD" stroke="black" stroke-miterlimit="10" stroke-linecap="round" stroke-linejoin="round"/>
<path d="M433.79 331.205L435.061 288.931" stroke="black" stroke-miterlimit="10" stroke-linecap="round" stroke-linejoin="round"/>
<path d="M435.061 314.359L439.193 290.838" stroke="black" stroke-miterlimit="10" stroke-linecap="round" stroke-linejoin="round"/>
<path d="M318.09 341.694L322.858 284.481" stroke="black" stroke-miterlimit="10" stroke-linecap="round" stroke-linejoin="round"/>
<path d="M319.998 308.002L316.501 285.117" stroke="black" stroke-miterlimit="10" stroke-linecap="round" stroke-linejoin="round"/>
<path d="M349.558 236.803C349.558 236.803 340.022 244.431 340.34 246.021C340.658 247.61 340.658 254.603 344.154 256.192C347.65 257.781 369.9 275.263 369.9 275.263L349.558 236.803Z" fill="#0D6EFD" stroke="black" stroke-miterlimit="10" stroke-linecap="round" stroke-linejoin="round"/>
<path d="M345.421 210.563L350.194 249.835L369.901 275.263L393.422 240.299L393.74 215.824C393.74 215.824 391.515 223.135 377.847 222.499C364.179 221.864 345.421 210.563 345.421 210.563Z" fill="white" stroke="black" stroke-miterlimit="10" stroke-linecap="round" stroke-linejoin="round"/>
<path d="M369.844 231.503L349.558 236.803L344.657 206.635L369.844 231.503Z" fill="black" stroke="black" stroke-miterlimit="10" stroke-linecap="round" stroke-linejoin="round"/>
<path d="M369.9 275.263C369.9 275.263 376.893 252.695 377.529 249.517C378.165 246.339 394.375 233.624 394.375 233.624C394.375 233.624 397.553 233.624 397.553 236.802C397.553 239.98 397.871 243.795 397.871 243.795L369.9 275.263Z" fill="#0D6EFD" stroke="black" stroke-miterlimit="10" stroke-linecap="round" stroke-linejoin="round"/>
<path d="M398.189 187.377C398.189 187.377 402.639 183.881 404.864 189.284C407.089 194.688 400.096 203.27 398.507 204.859C396.918 206.448 396.918 206.448 396.918 206.448C396.918 206.448 395.965 197.548 395.965 194.37C395.964 191.191 395.329 186.741 398.189 187.377Z" fill="white" stroke="black" stroke-miterlimit="10" stroke-linecap="round" stroke-linejoin="round"/>
<path d="M338.125 192.122C338.125 192.122 333.357 192.754 333.353 196.886C333.35 201.018 335.888 206.742 339.065 208.651C342.242 210.561 345.42 210.563 345.42 210.563C345.42 210.563 346.367 218.192 350.813 223.281C355.259 228.37 360.977 232.189 363.836 234.099C366.695 236.009 373.05 238.874 376.865 237.288C380.68 235.702 386.407 229.985 386.407 229.985C386.407 229.985 391.812 227.764 394.043 220.774C396.274 213.783 398.826 201.707 398.831 195.668C398.836 189.629 397.253 182.317 396.937 180.41C396.621 178.503 391.541 171.188 376.602 171.176C361.663 171.164 349.581 175.921 347.353 179.416C345.126 182.91 338.125 192.122 338.125 192.122Z" fill="white" stroke="black" stroke-miterlimit="10" stroke-linecap="round" stroke-linejoin="round"/>
<path d="M342.02 190.008L343.861 197.833C343.861 197.833 345.702 198.063 345.702 196.682C345.702 195.301 343.837 187.377 343.837 187.377L342.02 190.008Z" fill="black" stroke="black" stroke-miterlimit="10" stroke-linecap="round" stroke-linejoin="round"/>
<path d="M368.945 206.133C368.945 206.133 368.625 208.676 372.121 209.632C375.617 210.588 380.703 209.639 381.34 207.733C381.977 205.827 381.025 203.601 381.025 203.601" stroke="black" stroke-miterlimit="10" stroke-linecap="round" stroke-linejoin="round"/>
<path d="M364.807 214.393C364.807 214.393 374.021 219.168 384.197 212.82" stroke="black" stroke-miterlimit="10" stroke-linecap="round" stroke-linejoin="round"/>
<path d="M364.338 197.549C365.479 197.549 366.404 196.197 366.404 194.529C366.404 192.861 365.479 191.509 364.338 191.509C363.197 191.509 362.272 192.861 362.272 194.529C362.272 196.197 363.197 197.549 364.338 197.549Z" fill="black"/>
<path d="M387.859 194.529C387.859 196.197 386.934 197.549 385.793 197.549C384.652 197.549 383.727 196.197 383.727 194.529C383.727 192.861 384.652 191.509 385.793 191.509C386.934 191.509 387.859 192.861 387.859 194.529Z" fill="black"/>
<path d="M357.186 189.92C357.186 189.92 361.636 185.47 368.947 187.059" stroke="black" stroke-width="2" stroke-miterlimit="10" stroke-linecap="round" stroke-linejoin="round"/>
<path d="M381.025 186.424C381.025 186.424 386.746 184.517 392.15 188.649" stroke="black" stroke-width="2" stroke-miterlimit="10" stroke-linecap="round" stroke-linejoin="round"/>
<path d="M343.837 187.377C343.837 187.377 340.658 192.145 338.116 192.145C335.573 192.145 326.991 185.47 326.356 179.749C325.72 174.028 338.752 169.578 343.52 162.585C348.288 155.592 361.002 143.832 371.173 145.739C381.344 147.646 388.019 158.771 394.376 160.678C400.733 162.585 410.904 168.942 409.951 175.299C408.997 181.656 406.455 184.517 403.912 184.835C401.369 185.153 398.191 183.246 398.191 183.246C398.191 183.246 389.291 172.757 376.577 171.168C363.863 169.579 359.413 172.757 354.963 177.525C350.511 182.292 343.837 187.377 343.837 187.377Z" fill="black" stroke="black" stroke-miterlimit="10" stroke-linecap="round" stroke-linejoin="round"/>
<path d="M343.837 187.377C343.837 187.377 348.287 189.602 353.69 186.423C359.093 183.244 362.272 174.98 375.622 177.205C388.972 179.43 390.561 183.88 393.739 184.516C396.917 185.152 398.189 184.834 396.917 180.384C395.646 175.934 384.521 167.988 373.396 167.352C362.272 166.717 344.472 177.842 343.837 187.377Z" fill="#DCDCDC" stroke="black" stroke-miterlimit="10" stroke-linecap="round" stroke-linejoin="round"/>
<path d="M340.77 314.386C340.77 314.386 344.627 302.914 345.792 301.544C346.957 300.174 354.382 297.343 354.382 297.343L359.26 295.181C359.937 294.881 360.722 295.274 360.897 295.993C361.427 298.17 361.252 298.579 359.999 299.759C358.517 301.154 352.677 303.858 352.677 303.858L363.478 301.506L381.427 297.806C382.228 297.641 382.994 298.211 383.065 299.026L383.067 299.048C383.127 299.795 367.946 305.654 367.946 305.654L368.191 307.137L380.25 306.038L385.339 305.253C386.307 305.104 387.228 305.723 387.454 306.676C387.662 307.552 387.223 308.451 386.402 308.822C384.585 309.643 381.619 310.977 381.284 311.09C380.796 311.255 369.325 313.433 369.325 313.433L375.862 315.285L386.953 315.182C387.602 315.176 388.133 315.696 388.142 316.344C388.148 316.779 387.919 317.18 387.537 317.39C386.441 317.994 384.152 319.22 382.972 319.594C381.385 320.098 375.95 321.037 374.591 321.272C373.232 321.507 368.619 321.754 368.245 321.784C367.872 321.814 376.235 323.018 376.618 323.112C377.001 323.206 381.655 323.457 381.571 323.965C381.487 324.473 381.671 325.209 380.821 325.528C379.97 325.847 376.611 326.118 373.221 326.016C369.831 325.914 365.322 325.902 365.322 325.902C365.322 325.902 356.165 327.267 352.432 327.569C348.699 327.87 343.648 328.904 343.648 328.904L336.737 331.716L333.77 316.677L340.77 314.386Z" fill="white" stroke="black" stroke-miterlimit="10" stroke-linecap="round" stroke-linejoin="round"/>
<path d="M338.374 314.991L342.117 331.961C342.117 331.961 294.95 367.399 294.201 367.399C293.452 367.399 288.461 368.148 282.222 362.657C275.983 357.167 274.486 349.43 275.484 344.439C276.482 339.448 281.473 333.209 283.969 330.963C286.465 328.717 338.374 314.991 338.374 314.991Z" fill="#0D6EFD" stroke="black" stroke-miterlimit="10" stroke-linecap="round" stroke-linejoin="round"/>
<path d="M464.152 352.176C464.152 352.176 455.168 359.663 453.171 363.157C451.175 366.651 440.943 409.076 440.943 409.076L456.665 422.802L464.901 411.572C464.901 411.572 484.117 368.398 484.866 365.403C485.615 362.408 481.871 351.178 477.878 345.688" fill="#0D6EFD"/>
<path d="M464.152 352.176C464.152 352.176 455.168 359.663 453.171 363.157C451.175 366.651 440.943 409.076 440.943 409.076L456.665 422.802L464.901 411.572C464.901 411.572 484.117 368.398 484.866 365.403C485.615 362.408 481.871 351.178 477.878 345.688" stroke="black" stroke-miterlimit="10" stroke-linecap="round" stroke-linejoin="round"/>
<path d="M482.694 87.887H399.129C393.783 87.887 389.45 92.221 389.45 97.566V144.22C389.45 149.566 393.783 153.899 399.129 153.899H430.419L422.862 173.925L441.482 153.899H482.693C488.039 153.899 492.372 149.565 492.372 144.22V97.566C492.373 92.22 488.04 87.887 482.694 87.887Z" fill="white" stroke="black" stroke-miterlimit="10" stroke-linecap="round" stroke-linejoin="round"/>
<path d="M423.757 120.95C423.757 118.387 421.679 116.309 419.116 116.309C416.553 116.309 414.475 118.387 414.475 120.95C414.475 123.513 416.553 125.591 419.116 125.591C421.679 125.591 423.757 123.513 423.757 120.95Z" fill="black"/>
<path d="M446.188 120.95C446.188 118.387 444.11 116.309 441.547 116.309C438.984 116.309 436.906 118.387 436.906 120.95C436.906 123.513 438.984 125.591 441.547 125.591C444.11 125.591 446.188 123.513 446.188 120.95Z" fill="black"/>
<path d="M468.619 120.95C468.619 118.387 466.541 116.309 463.978 116.309C461.415 116.309 459.337 118.387 459.337 120.95C459.337 123.513 461.415 125.591 463.978 125.591C466.542 125.591 468.619 123.513 468.619 120.95Z" fill="black"/>
<path d="M163.663 147.141C163.663 147.141 136.861 165.352 136.518 171.537C136.174 177.722 135.487 194.902 132.051 197.995C128.615 201.087 122.086 206.242 122.086 210.021C122.086 213.8 123.46 218.611 123.46 220.329C123.46 222.047 119.337 225.14 118.993 228.919C118.649 232.699 121.055 239.914 121.055 241.976C121.055 244.038 115.557 247.474 114.87 250.223C114.183 252.972 115.901 254.69 114.183 257.439C112.465 260.188 109.029 264.655 109.029 264.655C109.029 264.655 115.214 272.214 136.861 275.651C158.508 279.087 189.777 280.118 202.834 277.369C215.891 274.62 240.975 257.783 240.975 257.783C240.975 257.783 238.57 256.409 238.57 252.629C238.57 248.849 243.38 243.008 240.975 238.541C238.57 234.074 233.072 233.73 233.072 227.202C233.072 220.673 235.477 221.704 233.072 216.894C230.667 212.083 225.513 211.396 224.825 207.616C224.138 203.836 228.605 199.026 225.856 193.184C223.107 187.342 217.266 183.219 216.235 180.47C215.204 177.721 218.297 170.162 214.861 165.695C211.425 161.228 187.716 147.484 179.813 145.766C171.91 144.048 163.663 147.141 163.663 147.141Z" fill="black" stroke="black" stroke-miterlimit="10" stroke-linecap="round" stroke-linejoin="round"/>
<path d="M208.068 216.148C205.512 232.528 192.214 243.774 192.214 243.774V252.474L182.297 251.309L157.423 248.381V226.383C157.423 226.383 155.372 226.383 152.31 225.868C149.238 225.363 145.651 219.735 148.723 208.993C151.795 198.241 157.423 211.034 157.423 211.034C157.423 211.034 159.464 211.549 166.628 197.736C173.792 183.923 177.369 164.987 177.369 164.987L204.49 179.831C204.49 179.831 210.624 199.778 208.068 216.148Z" fill="white" stroke="black" stroke-miterlimit="10" stroke-linecap="round" stroke-linejoin="round"/>
<path d="M195.889 194.821C195.889 194.821 194.229 199.564 194.229 200.987C194.229 202.41 198.023 218.062 198.498 219.01C198.972 219.959 189.249 221.381 189.249 221.381" stroke="black" stroke-miterlimit="10" stroke-linecap="round" stroke-linejoin="round"/>
<path d="M198.26 225.176C198.26 225.176 188.537 228.97 182.845 223.279" stroke="black" stroke-miterlimit="10" stroke-linecap="round" stroke-linejoin="round"/>
<path d="M185.691 191.026C185.691 191.026 177.391 189.603 173.122 194.82" stroke="black" stroke-miterlimit="10" stroke-linecap="round" stroke-linejoin="round"/>
<path d="M198.023 191.501C198.023 191.501 203.952 189.841 206.323 193.635" stroke="black" stroke-miterlimit="10" stroke-linecap="round" stroke-linejoin="round"/>
<path d="M182.377 202.051C182.377 204.054 181.44 205.678 180.284 205.678C179.128 205.678 178.191 204.054 178.191 202.051C178.191 200.048 179.128 198.424 180.284 198.424C181.44 198.424 182.377 200.048 182.377 202.051Z" fill="black"/>
<path d="M204.279 202.051C204.279 204.054 203.342 205.678 202.186 205.678C201.03 205.678 200.093 204.054 200.093 202.051C200.093 200.048 201.03 198.424 202.186 198.424C203.342 198.424 204.279 200.048 204.279 202.051Z" fill="black"/>
<path d="M192.214 243.774V252.474L182.297 251.309C174.937 245.093 168.123 233.909 167.618 233.074C175.999 245.578 192.214 243.774 192.214 243.774Z" fill="black" stroke="black" stroke-miterlimit="10" stroke-linecap="round" stroke-linejoin="round"/>
<path d="M220.928 271.423C220.928 271.423 249.394 374.267 251.455 384.575C253.517 394.883 258.671 440.755 258.671 440.755L260.217 454.156H243.208L246.816 434.57L226.715 367.566C226.715 367.566 219.499 318.086 218.984 304.17C218.469 290.254 220.928 271.423 220.928 271.423Z" fill="white" stroke="black" stroke-miterlimit="10" stroke-linecap="round" stroke-linejoin="round"/>
<path d="M220.928 271.423C220.928 271.423 218.469 290.254 218.984 304.17C219.499 318.086 226.715 367.566 226.715 367.566L234.633 393.958L252.533 391.132C252.125 388.356 251.756 386.083 251.455 384.575C249.394 374.267 220.928 271.423 220.928 271.423Z" fill="#0D6EFD" stroke="black" stroke-miterlimit="10" stroke-linecap="round" stroke-linejoin="round"/>
<path d="M156.619 269.638L181.359 296.439L200.429 269.122L190.121 261.907L162.288 260.36L156.619 269.638Z" fill="white" stroke="black" stroke-miterlimit="10" stroke-linecap="round" stroke-linejoin="round"/>
<path d="M188.575 266.545L205.068 271.184L229.292 415.5L233.416 454.672H123.632L136.002 277.369L158.852 263.968L188.575 266.545Z" fill="#C9C9C9" stroke="black" stroke-miterlimit="10" stroke-linecap="round" stroke-linejoin="round"/>
<path d="M165.896 331.488L204.553 333.034" stroke="black" stroke-miterlimit="10" stroke-linecap="round" stroke-linejoin="round"/>
<path d="M185.998 332.003L184.451 353.135" stroke="black" stroke-miterlimit="10" stroke-linecap="round" stroke-linejoin="round"/>
<path d="M190.121 333.549L189.605 372.205" stroke="black" stroke-miterlimit="10" stroke-linecap="round" stroke-linejoin="round"/>
<path d="M194.244 344.373L195.275 363.959" stroke="black" stroke-miterlimit="10" stroke-linecap="round" stroke-linejoin="round"/>
<path d="M149.575 262.594C149.575 262.594 124.491 275.995 123.461 280.462C122.43 284.929 110.232 341.281 110.232 342.312C110.232 343.343 122.43 375.299 122.43 375.299L119.899 425.552C119.899 425.552 132.269 428.301 139.828 427.957C147.387 427.613 158.726 426.926 158.726 426.926L160.569 262.594H149.575Z" fill="#0D6EFD" stroke="black" stroke-miterlimit="10" stroke-linecap="round" stroke-linejoin="round"/>
<path d="M133.941 358.805L138.579 318.087" stroke="black" stroke-miterlimit="10" stroke-linecap="round" stroke-linejoin="round"/>
<path d="M134.113 352.62L107.655 286.991C107.655 286.991 103.875 276.683 100.783 273.934C97.6908 271.185 94.2538 269.124 92.1928 267.062C90.1308 265 89.7878 260.19 88.4128 265.344C87.0388 270.498 92.5358 274.278 92.5358 274.278L95.9718 280.119L73.9808 275.996C73.9808 275.996 62.6418 270.498 61.6108 272.904C60.5798 275.309 66.4218 277.371 71.2318 281.151C76.0418 284.931 78.7908 288.367 86.6938 291.116C94.5968 293.865 100.782 299.363 100.782 299.363C100.782 299.363 102.5 369.116 106.623 372.208C110.746 375.3 124.834 383.547 129.989 376.675C135.143 369.8 135.143 363.615 134.113 352.62Z" fill="white" stroke="black" stroke-miterlimit="10" stroke-linecap="round" stroke-linejoin="round"/>
<path d="M134.113 352.62L129.844 342.031L103.203 350.999C104.079 362.241 105.21 371.145 106.625 372.206C110.748 375.298 124.836 383.545 129.991 376.673C135.143 369.8 135.143 363.615 134.113 352.62Z" fill="#0D6EFD" stroke="black" stroke-miterlimit="10" stroke-linecap="round" stroke-linejoin="round"/>
<path d="M82.95 287.976C82.95 287.976 73.871 282.474 72.221 279.723C70.57 276.972 64.793 266.243 66.719 265.968C68.645 265.693 73.762 273.548 73.872 274.771C73.981 275.994 79.649 281.374 79.649 281.374" fill="white"/>
<path d="M82.95 287.976C82.95 287.976 73.871 282.474 72.221 279.723C70.57 276.972 64.793 266.243 66.719 265.968C68.645 265.693 73.762 273.548 73.872 274.771C73.981 275.994 79.649 281.374 79.649 281.374" stroke="black" stroke-miterlimit="10" stroke-linecap="round" stroke-linejoin="round"/>
<path d="M83.7748 290.177C83.7748 290.177 80.1988 287.976 77.9978 283.024C75.7968 278.072 73.3208 271.194 73.3208 267.343C73.3208 263.492 75.5218 264.867 76.3468 267.618C77.1718 270.369 79.9228 276.972 81.0238 278.347C82.1238 279.723 85.9758 285.225 85.9758 285.225" fill="white"/>
<path d="M83.7748 290.177C83.7748 290.177 80.1988 287.976 77.9978 283.024C75.7968 278.072 73.3208 271.194 73.3208 267.343C73.3208 263.492 75.5218 264.867 76.3468 267.618C77.1718 270.369 79.9228 276.972 81.0238 278.347C82.1238 279.723 85.9758 285.225 85.9758 285.225" stroke="black" stroke-miterlimit="10" stroke-linecap="round" stroke-linejoin="round"/>
<path d="M104.959 292.928C104.684 292.103 101.107 286.325 100.007 286.05C98.907 285.775 91.479 287.701 91.479 287.701L86.527 283.849C86.527 283.849 86.252 275.596 86.252 272.57C86.252 269.544 82.125 276.972 81.85 281.924C81.575 286.876 85.426 292.103 85.426 292.103C85.426 292.103 89.828 292.928 90.653 293.203C91.478 293.478 100.782 299.36 100.782 299.36" fill="white"/>
<path d="M104.959 292.928C104.684 292.103 101.107 286.325 100.007 286.05C98.907 285.775 91.479 287.701 91.479 287.701L86.527 283.849C86.527 283.849 86.252 275.596 86.252 272.57C86.252 269.544 82.125 276.972 81.85 281.924C81.575 286.876 85.426 292.103 85.426 292.103C85.426 292.103 89.828 292.928 90.653 293.203C91.478 293.478 100.782 299.36 100.782 299.36" stroke="black" stroke-miterlimit="10" stroke-linecap="round" stroke-linejoin="round"/>
<path d="M150.949 262.594L147.513 363.272L162.288 362.928L158.852 263.968L150.949 262.594Z" fill="white" stroke="black" stroke-miterlimit="10" stroke-linecap="round" stroke-linejoin="round"/>
<path d="M150.949 262.594L157.822 371.175L179.125 370.831L165.037 263.625L150.949 262.594Z" fill="white" stroke="black" stroke-miterlimit="10" stroke-linecap="round" stroke-linejoin="round"/>
<path d="M195.79 267.576L195.924 269.516L206.614 424.262L234.973 422.41L227.231 350.557C227.231 350.557 222.474 272.453 220.928 271.422C219.382 270.391 195.791 264.998 195.791 264.998V267.576H195.79Z" fill="#0D6EFD" stroke="black" stroke-miterlimit="10" stroke-linecap="round" stroke-linejoin="round"/>
<path d="M154.385 242.664C154.385 242.664 189.433 249.536 192.526 249.536C195.619 249.536 197.68 251.598 196.993 254.003C196.306 256.408 195.962 258.47 195.962 259.844C195.962 261.218 199.742 266.716 196.649 269.465C193.556 272.214 161.257 267.06 156.79 266.716C152.323 266.372 148.2 266.029 148.2 263.624C148.2 261.219 153.354 257.095 153.354 255.377C153.355 253.66 149.231 248.506 154.385 242.664Z" fill="white" stroke="black" stroke-miterlimit="10" stroke-linecap="round" stroke-linejoin="round"/>
<path d="M62.6628 62.259H155.743C161.697 62.259 166.524 67.086 166.524 73.04V125.007C166.524 130.961 161.697 135.788 155.743 135.788H120.89L129.307 158.094L108.566 135.788H62.6628C56.7088 135.788 51.8818 130.961 51.8818 125.007V73.041C51.8818 67.087 56.7088 62.259 62.6628 62.259Z" fill="white" stroke="black" stroke-miterlimit="10" stroke-linecap="round" stroke-linejoin="round"/>
<path d="M91.5696 99.3101C91.5696 96.7471 89.4916 94.6691 86.9286 94.6691C84.3656 94.6691 82.2876 96.7471 82.2876 99.3101C82.2876 101.873 84.3656 103.951 86.9286 103.951C89.4916 103.951 91.5696 101.873 91.5696 99.3101Z" fill="black"/>
<path d="M114.001 99.3101C114.001 96.7471 111.923 94.6691 109.36 94.6691C106.797 94.6691 104.719 96.7471 104.719 99.3101C104.719 101.873 106.797 103.951 109.36 103.951C111.923 103.951 114.001 101.873 114.001 99.3101Z" fill="black"/>
<path d="M136.431 99.3101C136.431 96.7471 134.353 94.6691 131.79 94.6691C129.227 94.6691 127.149 96.7471 127.149 99.3101C127.149 101.873 129.227 103.951 131.79 103.951C134.353 103.951 136.431 101.873 136.431 99.3101Z" fill="black"/>
<path d="M35.019 454.672H712.446" stroke="black" stroke-miterlimit="10" stroke-linecap="round" stroke-linejoin="round"/>
</svg>
